<svg xmlns="http://www.w3.org/2000/svg" xmlns:xlink="http://www.w3.org/1999/xlink" width="500" zoomAndPan="magnify" viewBox="0 0 375 374.999991" height="500" preserveAspectRatio="xMidYMid meet" version="1.2"><g id="e72d7498cc"><path style=" stroke:none;fill-rule:nonzero;fill:#ff9561;fill-opacity:1;" d="M 374.851562 187.828125 C 374.851562 190.894531 374.773438 193.960938 374.625 197.023438 C 374.472656 200.089844 374.25 203.148438 373.949219 206.199219 C 373.648438 209.25 373.273438 212.296875 372.820312 215.328125 C 372.371094 218.363281 371.847656 221.382812 371.25 224.394531 C 370.648438 227.402344 369.976562 230.394531 369.234375 233.367188 C 368.488281 236.34375 367.671875 239.300781 366.78125 242.234375 C 365.890625 245.171875 364.925781 248.082031 363.894531 250.96875 C 362.859375 253.859375 361.757812 256.71875 360.582031 259.550781 C 359.410156 262.386719 358.167969 265.191406 356.855469 267.960938 C 355.542969 270.734375 354.164062 273.476562 352.71875 276.179688 C 351.273438 278.886719 349.761719 281.554688 348.183594 284.183594 C 346.609375 286.816406 344.96875 289.40625 343.261719 291.957031 C 341.558594 294.507812 339.792969 297.011719 337.964844 299.476562 C 336.140625 301.941406 334.253906 304.359375 332.304688 306.730469 C 330.359375 309.101562 328.359375 311.421875 326.296875 313.695312 C 324.238281 315.96875 322.125 318.1875 319.953125 320.359375 C 317.785156 322.527344 315.566406 324.640625 313.292969 326.699219 C 311.019531 328.761719 308.695312 330.765625 306.328125 332.710938 C 303.957031 334.65625 301.539062 336.542969 299.074219 338.371094 C 296.609375 340.195312 294.101562 341.960938 291.554688 343.667969 C 289.003906 345.371094 286.410156 347.011719 283.78125 348.589844 C 281.148438 350.164062 278.480469 351.675781 275.777344 353.121094 C 273.070312 354.566406 270.332031 355.945312 267.558594 357.257812 C 264.785156 358.570312 261.984375 359.8125 259.148438 360.988281 C 256.316406 362.160156 253.453125 363.265625 250.566406 364.296875 C 247.679688 365.332031 244.765625 366.292969 241.832031 367.183594 C 238.894531 368.074219 235.941406 368.890625 232.964844 369.636719 C 229.988281 370.382812 227 371.054688 223.988281 371.652344 C 220.980469 372.25 217.960938 372.773438 214.925781 373.226562 C 211.890625 373.675781 208.847656 374.050781 205.796875 374.351562 C 202.742188 374.652344 199.683594 374.878906 196.621094 375.027344 C 193.558594 375.179688 190.492188 375.253906 187.425781 375.253906 C 184.359375 375.253906 181.292969 375.179688 178.226562 375.027344 C 175.164062 374.878906 172.105469 374.652344 169.054688 374.351562 C 166 374.050781 162.957031 373.675781 159.925781 373.226562 C 156.890625 372.773438 153.867188 372.25 150.859375 371.652344 C 147.851562 371.054688 144.859375 370.382812 141.882812 369.636719 C 138.910156 368.890625 135.953125 368.074219 133.019531 367.183594 C 130.082031 366.292969 127.171875 365.332031 124.285156 364.296875 C 121.394531 363.265625 118.535156 362.160156 115.699219 360.984375 C 112.867188 359.8125 110.0625 358.570312 107.289062 357.257812 C 104.519531 355.945312 101.777344 354.566406 99.074219 353.121094 C 96.367188 351.675781 93.699219 350.164062 91.070312 348.589844 C 88.4375 347.011719 85.847656 345.371094 83.296875 343.667969 C 80.746094 341.960938 78.238281 340.195312 75.777344 338.371094 C 73.3125 336.542969 70.894531 334.65625 68.523438 332.710938 C 66.152344 330.765625 63.832031 328.761719 61.558594 326.699219 C 59.285156 324.640625 57.066406 322.527344 54.894531 320.359375 C 52.726562 318.1875 50.613281 315.96875 48.550781 313.695312 C 46.492188 311.421875 44.488281 309.101562 42.542969 306.730469 C 40.597656 304.359375 38.710938 301.941406 36.882812 299.476562 C 35.054688 297.011719 33.289062 294.507812 31.585938 291.957031 C 29.882812 289.40625 28.242188 286.816406 26.664062 284.183594 C 25.089844 281.554688 23.578125 278.886719 22.132812 276.179688 C 20.683594 273.476562 19.304688 270.734375 17.996094 267.960938 C 16.683594 265.191406 15.441406 262.386719 14.265625 259.550781 C 13.09375 256.71875 11.988281 253.859375 10.957031 250.96875 C 9.921875 248.082031 8.960938 245.171875 8.070312 242.234375 C 7.179688 239.300781 6.363281 236.34375 5.617188 233.367188 C 4.871094 230.394531 4.199219 227.402344 3.601562 224.394531 C 3.003906 221.382812 2.480469 218.363281 2.027344 215.328125 C 1.578125 212.296875 1.203125 209.25 0.902344 206.199219 C 0.601562 203.148438 0.375 200.089844 0.226562 197.023438 C 0.0742188 193.960938 0 190.894531 0 187.828125 C 0 184.761719 0.0742188 181.695312 0.226562 178.632812 C 0.375 175.566406 0.601562 172.511719 0.902344 169.457031 C 1.203125 166.40625 1.578125 163.363281 2.027344 160.328125 C 2.480469 157.292969 3.003906 154.273438 3.601562 151.261719 C 4.199219 148.253906 4.871094 145.261719 5.617188 142.289062 C 6.363281 139.3125 7.179688 136.355469 8.070312 133.421875 C 8.960938 130.488281 9.921875 127.574219 10.957031 124.6875 C 11.988281 121.796875 13.09375 118.9375 14.265625 116.105469 C 15.441406 113.269531 16.683594 110.464844 17.996094 107.695312 C 19.304688 104.921875 20.683594 102.183594 22.132812 99.476562 C 23.578125 96.773438 25.089844 94.101562 26.664062 91.472656 C 28.242188 88.839844 29.882812 86.25 31.585938 83.699219 C 33.289062 81.148438 35.054688 78.644531 36.882812 76.179688 C 38.710938 73.714844 40.597656 71.296875 42.542969 68.925781 C 44.488281 66.554688 46.492188 64.234375 48.550781 61.960938 C 50.613281 59.6875 52.726562 57.46875 54.894531 55.296875 C 57.066406 53.128906 59.285156 51.015625 61.558594 48.957031 C 63.832031 46.894531 66.152344 44.894531 68.523438 42.945312 C 70.894531 41 73.3125 39.113281 75.777344 37.285156 C 78.238281 35.460938 80.746094 33.695312 83.296875 31.988281 C 85.847656 30.285156 88.4375 28.644531 91.070312 27.070312 C 93.699219 25.492188 96.367188 23.980469 99.074219 22.535156 C 101.777344 21.089844 104.519531 19.710938 107.289062 18.398438 C 110.0625 17.085938 112.867188 15.84375 115.699219 14.671875 C 118.535156 13.496094 121.394531 12.394531 124.285156 11.359375 C 127.171875 10.324219 130.082031 9.363281 133.019531 8.472656 C 135.953125 7.582031 138.910156 6.765625 141.882812 6.019531 C 144.859375 5.273438 147.851562 4.601562 150.859375 4.003906 C 153.867188 3.40625 156.890625 2.882812 159.925781 2.433594 C 162.957031 1.980469 166 1.605469 169.054688 1.304688 C 172.105469 1.003906 175.164062 0.78125 178.226562 0.628906 C 181.292969 0.476562 184.359375 0.402344 187.425781 0.402344 C 190.496094 0.390625 193.566406 0.453125 196.632812 0.59375 C 199.699219 0.734375 202.761719 0.945312 205.820312 1.238281 C 208.875 1.527344 211.925781 1.894531 214.964844 2.332031 C 218.003906 2.773438 221.027344 3.289062 224.042969 3.878906 C 227.054688 4.46875 230.054688 5.132812 233.035156 5.871094 C 236.015625 6.609375 238.976562 7.421875 241.914062 8.304688 C 244.855469 9.1875 247.773438 10.144531 250.667969 11.171875 C 253.5625 12.199219 256.425781 13.296875 259.265625 14.46875 C 262.105469 15.636719 264.914062 16.875 267.691406 18.183594 C 270.472656 19.492188 273.214844 20.867188 275.925781 22.3125 C 278.636719 23.753906 281.308594 25.265625 283.945312 26.839844 C 286.582031 28.414062 289.175781 30.054688 291.730469 31.757812 C 294.285156 33.460938 296.796875 35.226562 299.265625 37.054688 C 301.734375 38.882812 304.15625 40.769531 306.527344 42.714844 C 308.902344 44.664062 311.230469 46.667969 313.503906 48.726562 C 315.78125 50.789062 318.003906 52.90625 320.175781 55.078125 C 322.347656 57.25 324.464844 59.472656 326.523438 61.75 C 328.585938 64.023438 330.589844 66.347656 332.539062 68.722656 C 334.484375 71.097656 336.371094 73.519531 338.199219 75.988281 C 340.027344 78.457031 341.792969 80.96875 343.496094 83.523438 C 345.199219 86.078125 346.839844 88.671875 348.414062 91.308594 C 349.988281 93.945312 351.5 96.617188 352.941406 99.328125 C 354.386719 102.039062 355.761719 104.78125 357.070312 107.558594 C 358.378906 110.339844 359.617188 113.148438 360.785156 115.988281 C 361.953125 118.824219 363.054688 121.691406 364.082031 124.585938 C 365.109375 127.480469 366.066406 130.398438 366.949219 133.335938 C 367.832031 136.277344 368.644531 139.238281 369.382812 142.21875 C 370.121094 145.199219 370.785156 148.199219 371.375 151.210938 C 371.964844 154.226562 372.480469 157.25 372.917969 160.289062 C 373.359375 163.328125 373.726562 166.378906 374.015625 169.433594 C 374.304688 172.492188 374.519531 175.554688 374.660156 178.621094 C 374.800781 181.6875 374.863281 184.757812 374.851562 187.828125 Z M 374.851562 187.828125 "/><path style=" stroke:none;fill-rule:nonzero;fill:#000000;fill-opacity:1;" d="M 327.28125 312.601562 C 325.136719 315.007812 322.929688 317.355469 320.664062 319.648438 C 318.394531 321.9375 316.070312 324.167969 313.6875 326.339844 C 311.304688 328.511719 308.871094 330.621094 306.378906 332.667969 C 303.886719 334.710938 301.34375 336.691406 298.753906 338.605469 C 296.160156 340.519531 293.519531 342.367188 290.828125 344.144531 C 288.140625 345.925781 285.410156 347.632812 282.632812 349.269531 C 279.855469 350.90625 277.039062 352.472656 274.179688 353.964844 C 271.324219 355.457031 268.429688 356.871094 265.5 358.214844 C 262.570312 359.558594 259.605469 360.824219 256.609375 362.015625 C 253.613281 363.203125 250.589844 364.316406 247.535156 365.351562 C 244.484375 366.382812 241.40625 367.339844 238.304688 368.214844 C 235.203125 369.089844 232.078125 369.882812 228.933594 370.597656 C 225.792969 371.3125 222.632812 371.945312 219.457031 372.496094 C 216.28125 373.046875 213.09375 373.515625 209.890625 373.902344 C 206.691406 374.289062 203.484375 374.589844 200.269531 374.8125 C 197.050781 375.035156 193.832031 375.171875 190.609375 375.226562 C 187.386719 375.28125 184.164062 375.253906 180.941406 375.140625 C 177.722656 375.03125 174.503906 374.835938 171.292969 374.558594 C 168.082031 374.28125 164.878906 373.921875 161.6875 373.480469 C 158.496094 373.039062 155.316406 372.515625 152.148438 371.90625 C 148.984375 371.300781 145.835938 370.613281 142.703125 369.84375 C 139.574219 369.078125 136.464844 368.226562 133.378906 367.296875 C 130.292969 366.371094 127.230469 365.363281 124.199219 364.273438 C 121.164062 363.1875 118.160156 362.023438 115.183594 360.78125 C 112.210938 359.539062 109.269531 358.222656 106.363281 356.828125 C 103.457031 355.433594 100.585938 353.964844 97.757812 352.425781 C 94.925781 350.882812 92.136719 349.269531 89.386719 347.585938 C 86.640625 345.898438 83.9375 344.144531 81.28125 342.320312 C 78.625 340.492188 76.015625 338.601562 73.457031 336.640625 C 70.898438 334.683594 68.390625 332.660156 65.933594 330.570312 C 63.480469 328.480469 61.078125 326.332031 58.734375 324.117188 C 56.390625 321.90625 54.105469 319.632812 51.878906 317.304688 C 54.757812 312.847656 57.808594 308.324219 61.105469 303.867188 C 93.621094 259.703125 158.660156 249.003906 158.660156 249.003906 L 160.757812 248.554688 L 191.136719 241.925781 L 191.519531 241.996094 L 218.289062 247.855469 L 223.617188 249.011719 C 223.617188 249.011719 288.652344 259.710938 321.136719 303.875 C 323.285156 306.78125 325.320312 309.691406 327.28125 312.601562 Z M 327.28125 312.601562 "/><path style=" stroke:none;fill-rule:nonzero;fill:#2c3e50;fill-opacity:1;" d="M 243.769531 141.136719 C 281.214844 128.886719 288.652344 99.03125 278.910156 90.175781 C 269.167969 81.320312 247.742188 90.175781 247.742188 90.175781 C 247.742188 90.175781 259.519531 71.746094 251.476562 60.9375 C 243.4375 50.128906 237.355469 72.183594 217.550781 74 C 197.75 75.820312 167.945312 65.125 153.371094 79.933594 C 138.792969 94.742188 144.992188 108.21875 144.992188 108.21875 C 144.992188 108.21875 114.457031 109.394531 121.0625 139.957031 C 127.667969 170.519531 148.269531 202.148438 160.097656 214.53125 C 171.925781 226.914062 203.269531 180.179688 203.269531 180.179688 Z M 243.769531 141.136719 "/><path style=" stroke:none;fill-rule:nonzero;fill:#ffc4b5;fill-opacity:1;" d="M 198.363281 277.265625 C 180.238281 278.71875 169.800781 269.246094 162.800781 258.222656 C 161.914062 256.851562 161.296875 255.367188 160.941406 253.769531 C 160.585938 252.175781 160.519531 250.570312 160.734375 248.949219 C 162.121094 237.753906 162.929688 226.519531 163.160156 215.242188 C 163.367188 207.101562 163.394531 197.761719 163.042969 187.296875 L 219.804688 208.429688 L 218.726562 236.492188 L 218.273438 248.992188 L 218.007812 255.890625 C 218.007812 255.890625 221.128906 275.429688 198.363281 277.265625 Z M 198.363281 277.265625 "/><path style=" stroke:none;fill-rule:nonzero;fill:#ff8286;fill-opacity:1;" d="M 218.269531 248.992188 C 190.636719 248.644531 169.933594 227.632812 163.160156 215.238281 C 163.367188 207.097656 163.394531 197.757812 163.042969 187.292969 L 219.804688 208.425781 L 218.726562 236.488281 Z M 218.269531 248.992188 "/><path style=" stroke:none;fill-rule:nonzero;fill:#ffc4b5;fill-opacity:1;" d="M 254.273438 118.050781 C 197.757812 140.542969 172.609375 137.84375 172.609375 137.84375 C 172.609375 137.84375 174.324219 171.226562 169.4375 172.59375 C 164.550781 173.964844 169.292969 159.527344 159.5 153.929688 C 149.707031 148.328125 134.402344 158.875 137.886719 172.730469 C 141.371094 186.585938 159.976562 182.800781 159.976562 182.800781 C 159.976562 182.800781 172.757812 237.632812 220.367188 236.367188 C 267.972656 235.097656 261.019531 159.289062 258.148438 147.6875 C 255.28125 136.082031 254.273438 118.050781 254.273438 118.050781 Z M 254.273438 118.050781 "/></g></svg>