<svg xmlns="http://www.w3.org/2000/svg" xmlns:xlink="http://www.w3.org/1999/xlink" width="500" zoomAndPan="magnify" viewBox="0 0 375 374.999991" height="500" preserveAspectRatio="xMidYMid meet" version="1.2"><defs><clipPath id="e1b1a9fbe6"><path d="M 4 6.816406 L 370 6.816406 L 370 373 L 4 373 Z M 4 6.816406 "/></clipPath></defs><g id="771db81c68"><rect x="0" width="375" y="0" height="374.999991" style="fill:#ffffff;fill-opacity:1;stroke:none;"/><rect x="0" width="375" y="0" height="374.999991" style="fill:#ffffff;fill-opacity:1;stroke:none;"/><g clip-rule="nonzero" clip-path="url(#e1b1a9fbe6)"><path style=" stroke:none;fill-rule:nonzero;fill:#3998ff;fill-opacity:1;" d="M 369.769531 189.734375 C 369.769531 192.726562 369.699219 195.71875 369.550781 198.707031 C 369.40625 201.695312 369.1875 204.679688 368.894531 207.65625 C 368.601562 210.632812 368.234375 213.601562 367.796875 216.5625 C 367.355469 219.523438 366.847656 222.46875 366.261719 225.40625 C 365.679688 228.339844 365.023438 231.257812 364.296875 234.160156 C 363.570312 237.0625 362.773438 239.945312 361.90625 242.808594 C 361.035156 245.671875 360.097656 248.511719 359.089844 251.332031 C 358.082031 254.148438 357.007812 256.9375 355.863281 259.703125 C 354.71875 262.46875 353.507812 265.203125 352.226562 267.90625 C 350.949219 270.613281 349.601562 273.285156 348.191406 275.921875 C 346.78125 278.5625 345.308594 281.164062 343.769531 283.730469 C 342.234375 286.296875 340.632812 288.824219 338.972656 291.3125 C 337.308594 293.800781 335.585938 296.246094 333.804688 298.652344 C 332.023438 301.054688 330.183594 303.414062 328.285156 305.726562 C 326.386719 308.039062 324.433594 310.304688 322.421875 312.519531 C 320.414062 314.738281 318.351562 316.90625 316.238281 319.019531 C 314.121094 321.136719 311.953125 323.199219 309.738281 325.210938 C 307.519531 327.21875 305.257812 329.171875 302.945312 331.070312 C 300.628906 332.96875 298.273438 334.808594 295.871094 336.59375 C 293.464844 338.375 291.019531 340.097656 288.535156 341.761719 C 286.046875 343.421875 283.519531 345.023438 280.953125 346.5625 C 278.386719 348.101562 275.785156 349.574219 273.144531 350.984375 C 270.507812 352.394531 267.835938 353.742188 265.128906 355.019531 C 262.425781 356.300781 259.691406 357.511719 256.925781 358.65625 C 254.160156 359.804688 251.371094 360.878906 248.554688 361.886719 C 245.738281 362.894531 242.894531 363.835938 240.03125 364.703125 C 237.171875 365.574219 234.289062 366.371094 231.382812 367.097656 C 228.480469 367.824219 225.5625 368.480469 222.628906 369.0625 C 219.695312 369.648438 216.746094 370.160156 213.789062 370.597656 C 210.828125 371.039062 207.859375 371.402344 204.882812 371.699219 C 201.902344 371.992188 198.921875 372.210938 195.933594 372.359375 C 192.945312 372.503906 189.953125 372.578125 186.960938 372.578125 C 183.96875 372.578125 180.980469 372.503906 177.992188 372.359375 C 175 372.210938 172.019531 371.992188 169.039062 371.699219 C 166.0625 371.40625 163.09375 371.039062 160.136719 370.601562 C 157.175781 370.164062 154.226562 369.652344 151.292969 369.066406 C 148.359375 368.484375 145.441406 367.828125 142.539062 367.101562 C 139.636719 366.375 136.753906 365.578125 133.890625 364.707031 C 131.027344 363.839844 128.183594 362.902344 125.367188 361.894531 C 122.550781 360.886719 119.761719 359.808594 116.996094 358.664062 C 114.230469 357.519531 111.496094 356.308594 108.792969 355.027344 C 106.085938 353.75 103.414062 352.402344 100.777344 350.992188 C 98.136719 349.582031 95.535156 348.109375 92.96875 346.570312 C 90.402344 345.03125 87.875 343.433594 85.386719 341.769531 C 82.898438 340.105469 80.453125 338.382812 78.050781 336.601562 C 75.648438 334.820312 73.289062 332.980469 70.976562 331.082031 C 68.664062 329.183594 66.398438 327.230469 64.179688 325.21875 C 61.964844 323.210938 59.796875 321.148438 57.679688 319.03125 C 55.566406 316.917969 53.503906 314.75 51.492188 312.535156 C 49.484375 310.316406 47.53125 308.050781 45.632812 305.738281 C 43.734375 303.425781 41.894531 301.066406 40.113281 298.664062 C 38.328125 296.261719 36.605469 293.816406 34.945312 291.328125 C 33.28125 288.839844 31.683594 286.3125 30.144531 283.746094 C 28.605469 281.179688 27.132812 278.578125 25.722656 275.9375 C 24.3125 273.296875 22.964844 270.625 21.6875 267.921875 C 20.40625 265.21875 19.195312 262.484375 18.050781 259.71875 C 16.90625 256.953125 15.828125 254.164062 14.820312 251.34375 C 13.8125 248.527344 12.875 245.6875 12.007812 242.824219 C 11.136719 239.960938 10.339844 237.078125 9.613281 234.175781 C 8.886719 231.273438 8.230469 228.355469 7.648438 225.421875 C 7.0625 222.484375 6.550781 219.539062 6.113281 216.578125 C 5.675781 213.617188 5.308594 210.648438 5.015625 207.671875 C 4.722656 204.695312 4.503906 201.710938 4.355469 198.722656 C 4.210938 195.734375 4.136719 192.746094 4.136719 189.753906 C 4.136719 186.761719 4.210938 183.769531 4.355469 180.78125 C 4.503906 177.792969 4.722656 174.808594 5.015625 171.832031 C 5.3125 168.855469 5.675781 165.886719 6.117188 162.925781 C 6.554688 159.964844 7.066406 157.019531 7.652344 154.085938 C 8.234375 151.148438 8.890625 148.230469 9.617188 145.328125 C 10.34375 142.425781 11.144531 139.542969 12.011719 136.679688 C 12.878906 133.816406 13.820312 130.976562 14.828125 128.160156 C 15.835938 125.34375 16.914062 122.550781 18.058594 119.789062 C 19.203125 117.023438 20.414062 114.289062 21.695312 111.585938 C 22.972656 108.878906 24.320312 106.207031 25.730469 103.570312 C 27.140625 100.929688 28.613281 98.328125 30.152344 95.761719 C 31.691406 93.195312 33.292969 90.667969 34.953125 88.179688 C 36.617188 85.691406 38.339844 83.246094 40.121094 80.84375 C 41.90625 78.441406 43.746094 76.082031 45.644531 73.769531 C 47.542969 71.457031 49.496094 69.191406 51.507812 66.976562 C 53.515625 64.757812 55.578125 62.59375 57.695312 60.476562 C 59.8125 58.363281 61.976562 56.300781 64.195312 54.289062 C 66.410156 52.28125 68.675781 50.328125 70.988281 48.429688 C 73.304688 46.53125 75.660156 44.691406 78.066406 42.910156 C 80.46875 41.128906 82.914062 39.40625 85.402344 37.742188 C 87.890625 36.082031 90.417969 34.480469 92.984375 32.941406 C 95.550781 31.40625 98.152344 29.929688 100.792969 28.519531 C 103.429688 27.109375 106.101562 25.765625 108.808594 24.488281 C 111.511719 23.207031 114.25 21.996094 117.011719 20.851562 C 119.777344 19.707031 122.566406 18.632812 125.386719 17.625 C 128.203125 16.617188 131.042969 15.675781 133.90625 14.808594 C 136.769531 13.941406 139.652344 13.144531 142.554688 12.417969 C 145.457031 11.691406 148.375 11.035156 151.3125 10.453125 C 154.246094 9.867188 157.191406 9.359375 160.152344 8.917969 C 163.113281 8.480469 166.082031 8.113281 169.058594 7.820312 C 172.039062 7.527344 175.019531 7.308594 178.007812 7.164062 C 180.996094 7.015625 183.988281 6.945312 186.980469 6.945312 C 189.972656 6.933594 192.96875 6.996094 195.957031 7.132812 C 198.949219 7.269531 201.9375 7.480469 204.917969 7.765625 C 207.898438 8.046875 210.871094 8.40625 213.832031 8.835938 C 216.796875 9.265625 219.746094 9.769531 222.6875 10.347656 C 225.625 10.921875 228.546875 11.570312 231.453125 12.292969 C 234.359375 13.011719 237.246094 13.804688 240.117188 14.667969 C 242.984375 15.527344 245.828125 16.460938 248.648438 17.464844 C 251.46875 18.46875 254.265625 19.539062 257.035156 20.679688 C 259.800781 21.820312 262.542969 23.03125 265.25 24.304688 C 267.960938 25.582031 270.636719 26.925781 273.277344 28.332031 C 275.921875 29.742188 278.527344 31.210938 281.097656 32.75 C 283.667969 34.285156 286.199219 35.886719 288.691406 37.546875 C 291.179688 39.207031 293.628906 40.929688 296.035156 42.710938 C 298.441406 44.492188 300.804688 46.335938 303.121094 48.234375 C 305.433594 50.132812 307.703125 52.085938 309.921875 54.097656 C 312.140625 56.105469 314.308594 58.171875 316.425781 60.289062 C 318.542969 62.40625 320.609375 64.574219 322.617188 66.792969 C 324.628906 69.011719 326.585938 71.28125 328.484375 73.597656 C 330.382812 75.910156 332.222656 78.273438 334.003906 80.679688 C 335.785156 83.085938 337.507812 85.535156 339.167969 88.027344 C 340.832031 90.515625 342.429688 93.046875 343.964844 95.617188 C 345.503906 98.1875 346.976562 100.792969 348.382812 103.4375 C 349.789062 106.082031 351.132812 108.757812 352.410156 111.464844 C 353.683594 114.175781 354.894531 116.914062 356.035156 119.683594 C 357.175781 122.449219 358.246094 125.246094 359.25 128.066406 C 360.253906 130.890625 361.1875 133.734375 362.050781 136.601562 C 362.910156 139.46875 363.703125 142.355469 364.421875 145.261719 C 365.144531 148.167969 365.792969 151.089844 366.367188 154.03125 C 366.945312 156.96875 367.449219 159.917969 367.878906 162.882812 C 368.308594 165.847656 368.667969 168.816406 368.949219 171.800781 C 369.234375 174.78125 369.445312 177.765625 369.582031 180.757812 C 369.71875 183.75 369.78125 186.742188 369.769531 189.734375 Z M 369.769531 189.734375 "/></g><path style=" stroke:none;fill-rule:nonzero;fill:#e0714b;fill-opacity:1;" d="M 327.988281 306.121094 C 325.832031 308.734375 323.601562 311.289062 321.300781 313.78125 C 319 316.269531 316.632812 318.695312 314.199219 321.054688 C 311.761719 323.414062 309.265625 325.703125 306.703125 327.925781 C 304.140625 330.144531 301.515625 332.292969 298.835938 334.367188 C 296.152344 336.441406 293.414062 338.441406 290.621094 340.363281 C 287.828125 342.285156 284.984375 344.128906 282.089844 345.890625 C 279.191406 347.65625 276.25 349.335938 273.261719 350.9375 C 270.269531 352.539062 267.238281 354.054688 264.167969 355.484375 C 261.09375 356.917969 257.980469 358.261719 254.832031 359.519531 C 251.683594 360.777344 248.503906 361.949219 245.289062 363.03125 C 242.074219 364.113281 238.835938 365.101562 235.566406 366.003906 C 232.296875 366.90625 229.007812 367.714844 225.691406 368.433594 C 222.378906 369.152344 219.046875 369.777344 215.699219 370.308594 C 212.351562 370.84375 208.988281 371.28125 205.617188 371.628906 C 202.242188 371.972656 198.863281 372.226562 195.476562 372.382812 C 192.089844 372.539062 188.699219 372.605469 185.308594 372.574219 C 181.917969 372.542969 178.53125 372.417969 175.148438 372.199219 C 171.765625 371.980469 168.390625 371.667969 165.023438 371.257812 C 161.65625 370.851562 158.304688 370.351562 154.96875 369.757812 C 151.628906 369.164062 148.308594 368.480469 145.007812 367.703125 C 141.707031 366.921875 138.433594 366.054688 135.179688 365.09375 C 131.929688 364.132812 128.707031 363.082031 125.511719 361.945312 C 122.320312 360.804688 119.160156 359.578125 116.035156 358.261719 C 112.910156 356.945312 109.824219 355.546875 106.777344 354.058594 C 103.730469 352.570312 100.726562 351 97.765625 349.347656 C 94.804688 347.691406 91.894531 345.957031 89.03125 344.140625 C 86.167969 342.324219 83.355469 340.429688 80.597656 338.457031 C 77.839844 336.484375 75.140625 334.4375 72.496094 332.316406 C 69.851562 330.191406 67.269531 327.996094 64.746094 325.730469 C 62.226562 323.464844 59.769531 321.128906 57.375 318.726562 C 54.984375 316.324219 52.660156 313.855469 50.40625 311.324219 C 48.152344 308.792969 45.96875 306.199219 43.859375 303.542969 C 63.332031 275.773438 93.523438 256.507812 157 255.785156 C 230.261719 254.902344 284.152344 252.230469 306.410156 276.859375 C 314.511719 285.941406 321.703125 295.695312 327.988281 306.121094 Z M 327.988281 306.121094 "/><path style=" stroke:none;fill-rule:nonzero;fill:#14213d;fill-opacity:1;" d="M 126.410156 143.636719 C 91.261719 130.921875 96.992188 84.554688 101.980469 83.558594 C 106.96875 82.5625 117.679688 90.789062 118.179688 91.039062 C 118.683594 91.285156 115.691406 70.347656 122.421875 60.625 C 129.15625 50.902344 154.828125 70.597656 174.523438 70.847656 C 194.21875 71.09375 241.832031 72.339844 255.789062 84.804688 C 269.746094 97.269531 262.503906 123.945312 262.503906 123.945312 C 262.503906 123.945312 278.476562 128.183594 275.230469 150.617188 C 271.980469 173.054688 246.808594 192.324219 237.835938 208.488281 C 228.859375 224.65625 175.554688 227.648438 167.285156 204.214844 "/><path style=" stroke:none;fill-rule:nonzero;fill:#ffb5a6;fill-opacity:1;" d="M 184.308594 282.804688 C 158.753906 282.804688 154.992188 261.476562 154.890625 257.867188 C 154.890625 257.457031 154.839844 256.734375 154.890625 255.757812 C 154.839844 253.746094 154.839844 250.65625 154.839844 247.050781 C 154.941406 237.3125 155.042969 223.867188 154.890625 218.09375 L 203.679688 200.628906 L 212.539062 197.4375 L 222.382812 193.933594 C 222.382812 193.933594 222.328125 195.839844 222.226562 198.980469 C 222.175781 200.785156 222.125 203 222.070312 205.523438 C 222.078125 205.820312 222.0625 206.113281 222.019531 206.40625 C 221.96875 210.058594 221.917969 214.238281 221.816406 218.617188 C 221.660156 232.371094 221.609375 247.828125 222.328125 253.390625 C 223.664062 264.207031 209.855469 282.804688 184.308594 282.804688 Z M 184.308594 282.804688 "/><path style=" stroke:none;fill-rule:nonzero;fill:#e86b70;fill-opacity:1;" d="M 222.425781 205.628906 C 222.308594 205.894531 222.171875 206.152344 222.015625 206.398438 C 204.703125 242 178.6875 256.117188 154.886719 255.757812 C 154.832031 253.746094 154.832031 250.65625 154.832031 247.050781 C 154.9375 237.3125 155.039062 223.867188 154.886719 218.09375 L 203.675781 200.628906 L 222.070312 205.523438 Z M 222.425781 205.628906 "/><path style=" stroke:none;fill-rule:nonzero;fill:#ffb5a6;fill-opacity:1;" d="M 125.441406 111.976562 C 153.863281 146.046875 224.050781 139.898438 224.050781 139.898438 C 224.050781 139.898438 225.378906 179.785156 232.359375 179.453125 C 239.339844 179.121094 240.503906 157.015625 257.621094 160.679688 C 274.738281 164.34375 264.101562 197.40625 250.808594 199.234375 C 237.511719 201.058594 234.1875 189.761719 234.1875 189.761719 C 234.1875 189.761719 209.675781 238.371094 170.785156 238.371094 C 131.894531 238.371094 121.941406 201.089844 122.171875 180.78125 C 122.40625 160.472656 125.441406 111.976562 125.441406 111.976562 Z M 125.441406 111.976562 "/></g></svg>