<svg xmlns="http://www.w3.org/2000/svg" xmlns:xlink="http://www.w3.org/1999/xlink" width="500" zoomAndPan="magnify" viewBox="0 0 375 374.999991" height="500" preserveAspectRatio="xMidYMid meet" version="1.2"><defs><clipPath id="61e9b4122d"><path d="M 0 187.535156 C 0 181.394531 0.300781 175.265625 0.902344 169.15625 C 1.503906 163.042969 2.40625 156.972656 3.601562 150.949219 C 4.800781 144.925781 6.292969 138.976562 8.074219 133.097656 C 9.859375 127.21875 11.925781 121.445312 14.277344 115.769531 C 16.625 110.09375 19.25 104.550781 22.144531 99.132812 C 25.039062 93.714844 28.191406 88.453125 31.605469 83.347656 C 35.019531 78.238281 38.671875 73.3125 42.570312 68.566406 C 46.464844 63.816406 50.585938 59.269531 54.929688 54.929688 C 59.269531 50.585938 63.816406 46.464844 68.566406 42.570312 C 73.3125 38.671875 78.238281 35.019531 83.347656 31.605469 C 88.453125 28.191406 93.714844 25.039062 99.132812 22.144531 C 104.550781 19.25 110.09375 16.625 115.769531 14.277344 C 121.445312 11.925781 127.21875 9.859375 133.097656 8.074219 C 138.976562 6.292969 144.925781 4.800781 150.949219 3.601562 C 156.972656 2.40625 163.042969 1.503906 169.15625 0.902344 C 175.265625 0.300781 181.394531 0 187.535156 0 C 193.679688 0 199.804688 0.300781 205.917969 0.902344 C 212.03125 1.503906 218.097656 2.40625 224.125 3.601562 C 230.148438 4.800781 236.097656 6.292969 241.976562 8.074219 C 247.855469 9.859375 253.628906 11.925781 259.304688 14.277344 C 264.980469 16.625 270.523438 19.25 275.941406 22.144531 C 281.359375 25.039062 286.621094 28.191406 291.726562 31.605469 C 296.832031 35.019531 301.761719 38.671875 306.507812 42.570312 C 311.257812 46.464844 315.800781 50.585938 320.144531 54.929688 C 324.488281 59.269531 328.609375 63.816406 332.503906 68.566406 C 336.402344 73.3125 340.054688 78.238281 343.46875 83.347656 C 346.878906 88.453125 350.035156 93.714844 352.929688 99.132812 C 355.824219 104.550781 358.449219 110.09375 360.796875 115.769531 C 363.148438 121.445312 365.214844 127.21875 367 133.097656 C 368.78125 138.976562 370.273438 144.925781 371.46875 150.949219 C 372.667969 156.972656 373.570312 163.042969 374.171875 169.15625 C 374.773438 175.265625 375.074219 181.394531 375.074219 187.535156 C 375.074219 193.679688 374.773438 199.804688 374.171875 205.917969 C 373.570312 212.03125 372.667969 218.097656 371.46875 224.125 C 370.273438 230.148438 368.78125 236.097656 367 241.976562 C 365.214844 247.855469 363.148438 253.628906 360.796875 259.304688 C 358.449219 264.980469 355.824219 270.523438 352.929688 275.941406 C 350.035156 281.359375 346.878906 286.621094 343.46875 291.726562 C 340.054688 296.832031 336.402344 301.761719 332.503906 306.507812 C 328.609375 311.257812 324.488281 315.800781 320.144531 320.144531 C 315.800781 324.488281 311.257812 328.609375 306.507812 332.503906 C 301.761719 336.402344 296.832031 340.054688 291.726562 343.46875 C 286.621094 346.878906 281.359375 350.035156 275.941406 352.929688 C 270.523438 355.824219 264.980469 358.449219 259.304688 360.796875 C 253.628906 363.148438 247.855469 365.214844 241.976562 367 C 236.097656 368.78125 230.148438 370.273438 224.125 371.46875 C 218.097656 372.667969 212.03125 373.570312 205.917969 374.171875 C 199.804688 374.773438 193.679688 375.074219 187.535156 375.074219 C 181.394531 375.074219 175.265625 374.773438 169.15625 374.171875 C 163.042969 373.570312 156.972656 372.667969 150.949219 371.46875 C 144.925781 370.273438 138.976562 368.78125 133.097656 367 C 127.21875 365.214844 121.445312 363.148438 115.769531 360.796875 C 110.09375 358.449219 104.550781 355.824219 99.132812 352.929688 C 93.714844 350.035156 88.453125 346.878906 83.347656 343.46875 C 78.238281 340.054688 73.3125 336.402344 68.566406 332.503906 C 63.816406 328.609375 59.269531 324.488281 54.929688 320.144531 C 50.585938 315.800781 46.464844 311.257812 42.570312 306.507812 C 38.671875 301.761719 35.019531 296.832031 31.605469 291.726562 C 28.191406 286.621094 25.039062 281.359375 22.144531 275.941406 C 19.25 270.523438 16.625 264.980469 14.277344 259.304688 C 11.925781 253.628906 9.859375 247.855469 8.074219 241.976562 C 6.292969 236.097656 4.800781 230.148438 3.601562 224.125 C 2.40625 218.097656 1.503906 212.03125 0.902344 205.917969 C 0.300781 199.804688 0 193.679688 0 187.535156 Z M 0 187.535156 "/></clipPath><clipPath id="eb309385d4"><path d="M 52 246 L 351 246 L 351 375 L 52 375 Z M 52 246 "/></clipPath><clipPath id="94cc5adf58"><path d="M 0 187.535156 C 0 181.394531 0.300781 175.265625 0.902344 169.15625 C 1.503906 163.042969 2.40625 156.972656 3.601562 150.949219 C 4.800781 144.925781 6.292969 138.976562 8.074219 133.097656 C 9.859375 127.21875 11.925781 121.445312 14.277344 115.769531 C 16.625 110.09375 19.25 104.550781 22.144531 99.132812 C 25.039062 93.714844 28.191406 88.453125 31.605469 83.347656 C 35.019531 78.238281 38.671875 73.3125 42.570312 68.566406 C 46.464844 63.816406 50.585938 59.269531 54.929688 54.929688 C 59.269531 50.585938 63.816406 46.464844 68.566406 42.570312 C 73.3125 38.671875 78.238281 35.019531 83.347656 31.605469 C 88.453125 28.191406 93.714844 25.039062 99.132812 22.144531 C 104.550781 19.25 110.09375 16.625 115.769531 14.277344 C 121.445312 11.925781 127.21875 9.859375 133.097656 8.074219 C 138.976562 6.292969 144.925781 4.800781 150.949219 3.601562 C 156.972656 2.40625 163.042969 1.503906 169.15625 0.902344 C 175.265625 0.300781 181.394531 0 187.535156 0 C 193.679688 0 199.804688 0.300781 205.917969 0.902344 C 212.03125 1.503906 218.097656 2.40625 224.125 3.601562 C 230.148438 4.800781 236.097656 6.292969 241.976562 8.074219 C 247.855469 9.859375 253.628906 11.925781 259.304688 14.277344 C 264.980469 16.625 270.523438 19.25 275.941406 22.144531 C 281.359375 25.039062 286.621094 28.191406 291.726562 31.605469 C 296.832031 35.019531 301.761719 38.671875 306.507812 42.570312 C 311.257812 46.464844 315.800781 50.585938 320.144531 54.929688 C 324.488281 59.269531 328.609375 63.816406 332.503906 68.566406 C 336.402344 73.3125 340.054688 78.238281 343.46875 83.347656 C 346.878906 88.453125 350.035156 93.714844 352.929688 99.132812 C 355.824219 104.550781 358.449219 110.09375 360.796875 115.769531 C 363.148438 121.445312 365.214844 127.21875 367 133.097656 C 368.78125 138.976562 370.273438 144.925781 371.46875 150.949219 C 372.667969 156.972656 373.570312 163.042969 374.171875 169.15625 C 374.773438 175.265625 375.074219 181.394531 375.074219 187.535156 C 375.074219 193.679688 374.773438 199.804688 374.171875 205.917969 C 373.570312 212.03125 372.667969 218.097656 371.46875 224.125 C 370.273438 230.148438 368.78125 236.097656 367 241.976562 C 365.214844 247.855469 363.148438 253.628906 360.796875 259.304688 C 358.449219 264.980469 355.824219 270.523438 352.929688 275.941406 C 350.035156 281.359375 346.878906 286.621094 343.46875 291.726562 C 340.054688 296.832031 336.402344 301.761719 332.503906 306.507812 C 328.609375 311.257812 324.488281 315.800781 320.144531 320.144531 C 315.800781 324.488281 311.257812 328.609375 306.507812 332.503906 C 301.761719 336.402344 296.832031 340.054688 291.726562 343.46875 C 286.621094 346.878906 281.359375 350.035156 275.941406 352.929688 C 270.523438 355.824219 264.980469 358.449219 259.304688 360.796875 C 253.628906 363.148438 247.855469 365.214844 241.976562 367 C 236.097656 368.78125 230.148438 370.273438 224.125 371.46875 C 218.097656 372.667969 212.03125 373.570312 205.917969 374.171875 C 199.804688 374.773438 193.679688 375.074219 187.535156 375.074219 C 181.394531 375.074219 175.265625 374.773438 169.15625 374.171875 C 163.042969 373.570312 156.972656 372.667969 150.949219 371.46875 C 144.925781 370.273438 138.976562 368.78125 133.097656 367 C 127.21875 365.214844 121.445312 363.148438 115.769531 360.796875 C 110.09375 358.449219 104.550781 355.824219 99.132812 352.929688 C 93.714844 350.035156 88.453125 346.878906 83.347656 343.46875 C 78.238281 340.054688 73.3125 336.402344 68.566406 332.503906 C 63.816406 328.609375 59.269531 324.488281 54.929688 320.144531 C 50.585938 315.800781 46.464844 311.257812 42.570312 306.507812 C 38.671875 301.761719 35.019531 296.832031 31.605469 291.726562 C 28.191406 286.621094 25.039062 281.359375 22.144531 275.941406 C 19.25 270.523438 16.625 264.980469 14.277344 259.304688 C 11.925781 253.628906 9.859375 247.855469 8.074219 241.976562 C 6.292969 236.097656 4.800781 230.148438 3.601562 224.125 C 2.40625 218.097656 1.503906 212.03125 0.902344 205.917969 C 0.300781 199.804688 0 193.679688 0 187.535156 Z M 0 187.535156 "/></clipPath><clipPath id="950322643c"><path d="M 165 246 L 222 246 L 222 271 L 165 271 Z M 165 246 "/></clipPath><clipPath id="c3b4868821"><path d="M 0 187.535156 C 0 181.394531 0.300781 175.265625 0.902344 169.15625 C 1.503906 163.042969 2.40625 156.972656 3.601562 150.949219 C 4.800781 144.925781 6.292969 138.976562 8.074219 133.097656 C 9.859375 127.21875 11.925781 121.445312 14.277344 115.769531 C 16.625 110.09375 19.25 104.550781 22.144531 99.132812 C 25.039062 93.714844 28.191406 88.453125 31.605469 83.347656 C 35.019531 78.238281 38.671875 73.3125 42.570312 68.566406 C 46.464844 63.816406 50.585938 59.269531 54.929688 54.929688 C 59.269531 50.585938 63.816406 46.464844 68.566406 42.570312 C 73.3125 38.671875 78.238281 35.019531 83.347656 31.605469 C 88.453125 28.191406 93.714844 25.039062 99.132812 22.144531 C 104.550781 19.25 110.09375 16.625 115.769531 14.277344 C 121.445312 11.925781 127.21875 9.859375 133.097656 8.074219 C 138.976562 6.292969 144.925781 4.800781 150.949219 3.601562 C 156.972656 2.40625 163.042969 1.503906 169.15625 0.902344 C 175.265625 0.300781 181.394531 0 187.535156 0 C 193.679688 0 199.804688 0.300781 205.917969 0.902344 C 212.03125 1.503906 218.097656 2.40625 224.125 3.601562 C 230.148438 4.800781 236.097656 6.292969 241.976562 8.074219 C 247.855469 9.859375 253.628906 11.925781 259.304688 14.277344 C 264.980469 16.625 270.523438 19.25 275.941406 22.144531 C 281.359375 25.039062 286.621094 28.191406 291.726562 31.605469 C 296.832031 35.019531 301.761719 38.671875 306.507812 42.570312 C 311.257812 46.464844 315.800781 50.585938 320.144531 54.929688 C 324.488281 59.269531 328.609375 63.816406 332.503906 68.566406 C 336.402344 73.3125 340.054688 78.238281 343.46875 83.347656 C 346.878906 88.453125 350.035156 93.714844 352.929688 99.132812 C 355.824219 104.550781 358.449219 110.09375 360.796875 115.769531 C 363.148438 121.445312 365.214844 127.21875 367 133.097656 C 368.78125 138.976562 370.273438 144.925781 371.46875 150.949219 C 372.667969 156.972656 373.570312 163.042969 374.171875 169.15625 C 374.773438 175.265625 375.074219 181.394531 375.074219 187.535156 C 375.074219 193.679688 374.773438 199.804688 374.171875 205.917969 C 373.570312 212.03125 372.667969 218.097656 371.46875 224.125 C 370.273438 230.148438 368.78125 236.097656 367 241.976562 C 365.214844 247.855469 363.148438 253.628906 360.796875 259.304688 C 358.449219 264.980469 355.824219 270.523438 352.929688 275.941406 C 350.035156 281.359375 346.878906 286.621094 343.46875 291.726562 C 340.054688 296.832031 336.402344 301.761719 332.503906 306.507812 C 328.609375 311.257812 324.488281 315.800781 320.144531 320.144531 C 315.800781 324.488281 311.257812 328.609375 306.507812 332.503906 C 301.761719 336.402344 296.832031 340.054688 291.726562 343.46875 C 286.621094 346.878906 281.359375 350.035156 275.941406 352.929688 C 270.523438 355.824219 264.980469 358.449219 259.304688 360.796875 C 253.628906 363.148438 247.855469 365.214844 241.976562 367 C 236.097656 368.78125 230.148438 370.273438 224.125 371.46875 C 218.097656 372.667969 212.03125 373.570312 205.917969 374.171875 C 199.804688 374.773438 193.679688 375.074219 187.535156 375.074219 C 181.394531 375.074219 175.265625 374.773438 169.15625 374.171875 C 163.042969 373.570312 156.972656 372.667969 150.949219 371.46875 C 144.925781 370.273438 138.976562 368.78125 133.097656 367 C 127.21875 365.214844 121.445312 363.148438 115.769531 360.796875 C 110.09375 358.449219 104.550781 355.824219 99.132812 352.929688 C 93.714844 350.035156 88.453125 346.878906 83.347656 343.46875 C 78.238281 340.054688 73.3125 336.402344 68.566406 332.503906 C 63.816406 328.609375 59.269531 324.488281 54.929688 320.144531 C 50.585938 315.800781 46.464844 311.257812 42.570312 306.507812 C 38.671875 301.761719 35.019531 296.832031 31.605469 291.726562 C 28.191406 286.621094 25.039062 281.359375 22.144531 275.941406 C 19.25 270.523438 16.625 264.980469 14.277344 259.304688 C 11.925781 253.628906 9.859375 247.855469 8.074219 241.976562 C 6.292969 236.097656 4.800781 230.148438 3.601562 224.125 C 2.40625 218.097656 1.503906 212.03125 0.902344 205.917969 C 0.300781 199.804688 0 193.679688 0 187.535156 Z M 0 187.535156 "/></clipPath><clipPath id="fd9f7f6ee1"><path d="M 117 110 L 241 110 L 241 224 L 117 224 Z M 117 110 "/></clipPath><clipPath id="55e5a67b7b"><path d="M 0 187.535156 C 0 181.394531 0.300781 175.265625 0.902344 169.15625 C 1.503906 163.042969 2.40625 156.972656 3.601562 150.949219 C 4.800781 144.925781 6.292969 138.976562 8.074219 133.097656 C 9.859375 127.21875 11.925781 121.445312 14.277344 115.769531 C 16.625 110.09375 19.25 104.550781 22.144531 99.132812 C 25.039062 93.714844 28.191406 88.453125 31.605469 83.347656 C 35.019531 78.238281 38.671875 73.3125 42.570312 68.566406 C 46.464844 63.816406 50.585938 59.269531 54.929688 54.929688 C 59.269531 50.585938 63.816406 46.464844 68.566406 42.570312 C 73.3125 38.671875 78.238281 35.019531 83.347656 31.605469 C 88.453125 28.191406 93.714844 25.039062 99.132812 22.144531 C 104.550781 19.25 110.09375 16.625 115.769531 14.277344 C 121.445312 11.925781 127.21875 9.859375 133.097656 8.074219 C 138.976562 6.292969 144.925781 4.800781 150.949219 3.601562 C 156.972656 2.40625 163.042969 1.503906 169.15625 0.902344 C 175.265625 0.300781 181.394531 0 187.535156 0 C 193.679688 0 199.804688 0.300781 205.917969 0.902344 C 212.03125 1.503906 218.097656 2.40625 224.125 3.601562 C 230.148438 4.800781 236.097656 6.292969 241.976562 8.074219 C 247.855469 9.859375 253.628906 11.925781 259.304688 14.277344 C 264.980469 16.625 270.523438 19.25 275.941406 22.144531 C 281.359375 25.039062 286.621094 28.191406 291.726562 31.605469 C 296.832031 35.019531 301.761719 38.671875 306.507812 42.570312 C 311.257812 46.464844 315.800781 50.585938 320.144531 54.929688 C 324.488281 59.269531 328.609375 63.816406 332.503906 68.566406 C 336.402344 73.3125 340.054688 78.238281 343.46875 83.347656 C 346.878906 88.453125 350.035156 93.714844 352.929688 99.132812 C 355.824219 104.550781 358.449219 110.09375 360.796875 115.769531 C 363.148438 121.445312 365.214844 127.21875 367 133.097656 C 368.78125 138.976562 370.273438 144.925781 371.46875 150.949219 C 372.667969 156.972656 373.570312 163.042969 374.171875 169.15625 C 374.773438 175.265625 375.074219 181.394531 375.074219 187.535156 C 375.074219 193.679688 374.773438 199.804688 374.171875 205.917969 C 373.570312 212.03125 372.667969 218.097656 371.46875 224.125 C 370.273438 230.148438 368.78125 236.097656 367 241.976562 C 365.214844 247.855469 363.148438 253.628906 360.796875 259.304688 C 358.449219 264.980469 355.824219 270.523438 352.929688 275.941406 C 350.035156 281.359375 346.878906 286.621094 343.46875 291.726562 C 340.054688 296.832031 336.402344 301.761719 332.503906 306.507812 C 328.609375 311.257812 324.488281 315.800781 320.144531 320.144531 C 315.800781 324.488281 311.257812 328.609375 306.507812 332.503906 C 301.761719 336.402344 296.832031 340.054688 291.726562 343.46875 C 286.621094 346.878906 281.359375 350.035156 275.941406 352.929688 C 270.523438 355.824219 264.980469 358.449219 259.304688 360.796875 C 253.628906 363.148438 247.855469 365.214844 241.976562 367 C 236.097656 368.78125 230.148438 370.273438 224.125 371.46875 C 218.097656 372.667969 212.03125 373.570312 205.917969 374.171875 C 199.804688 374.773438 193.679688 375.074219 187.535156 375.074219 C 181.394531 375.074219 175.265625 374.773438 169.15625 374.171875 C 163.042969 373.570312 156.972656 372.667969 150.949219 371.46875 C 144.925781 370.273438 138.976562 368.78125 133.097656 367 C 127.21875 365.214844 121.445312 363.148438 115.769531 360.796875 C 110.09375 358.449219 104.550781 355.824219 99.132812 352.929688 C 93.714844 350.035156 88.453125 346.878906 83.347656 343.46875 C 78.238281 340.054688 73.3125 336.402344 68.566406 332.503906 C 63.816406 328.609375 59.269531 324.488281 54.929688 320.144531 C 50.585938 315.800781 46.464844 311.257812 42.570312 306.507812 C 38.671875 301.761719 35.019531 296.832031 31.605469 291.726562 C 28.191406 286.621094 25.039062 281.359375 22.144531 275.941406 C 19.25 270.523438 16.625 264.980469 14.277344 259.304688 C 11.925781 253.628906 9.859375 247.855469 8.074219 241.976562 C 6.292969 236.097656 4.800781 230.148438 3.601562 224.125 C 2.40625 218.097656 1.503906 212.03125 0.902344 205.917969 C 0.300781 199.804688 0 193.679688 0 187.535156 Z M 0 187.535156 "/></clipPath><clipPath id="2789612c27"><path d="M 164 198 L 218 198 L 218 263 L 164 263 Z M 164 198 "/></clipPath><clipPath id="1a0a534cf8"><path d="M 0 187.535156 C 0 181.394531 0.300781 175.265625 0.902344 169.15625 C 1.503906 163.042969 2.40625 156.972656 3.601562 150.949219 C 4.800781 144.925781 6.292969 138.976562 8.074219 133.097656 C 9.859375 127.21875 11.925781 121.445312 14.277344 115.769531 C 16.625 110.09375 19.25 104.550781 22.144531 99.132812 C 25.039062 93.714844 28.191406 88.453125 31.605469 83.347656 C 35.019531 78.238281 38.671875 73.3125 42.570312 68.566406 C 46.464844 63.816406 50.585938 59.269531 54.929688 54.929688 C 59.269531 50.585938 63.816406 46.464844 68.566406 42.570312 C 73.3125 38.671875 78.238281 35.019531 83.347656 31.605469 C 88.453125 28.191406 93.714844 25.039062 99.132812 22.144531 C 104.550781 19.25 110.09375 16.625 115.769531 14.277344 C 121.445312 11.925781 127.21875 9.859375 133.097656 8.074219 C 138.976562 6.292969 144.925781 4.800781 150.949219 3.601562 C 156.972656 2.40625 163.042969 1.503906 169.15625 0.902344 C 175.265625 0.300781 181.394531 0 187.535156 0 C 193.679688 0 199.804688 0.300781 205.917969 0.902344 C 212.03125 1.503906 218.097656 2.40625 224.125 3.601562 C 230.148438 4.800781 236.097656 6.292969 241.976562 8.074219 C 247.855469 9.859375 253.628906 11.925781 259.304688 14.277344 C 264.980469 16.625 270.523438 19.25 275.941406 22.144531 C 281.359375 25.039062 286.621094 28.191406 291.726562 31.605469 C 296.832031 35.019531 301.761719 38.671875 306.507812 42.570312 C 311.257812 46.464844 315.800781 50.585938 320.144531 54.929688 C 324.488281 59.269531 328.609375 63.816406 332.503906 68.566406 C 336.402344 73.3125 340.054688 78.238281 343.46875 83.347656 C 346.878906 88.453125 350.035156 93.714844 352.929688 99.132812 C 355.824219 104.550781 358.449219 110.09375 360.796875 115.769531 C 363.148438 121.445312 365.214844 127.21875 367 133.097656 C 368.78125 138.976562 370.273438 144.925781 371.46875 150.949219 C 372.667969 156.972656 373.570312 163.042969 374.171875 169.15625 C 374.773438 175.265625 375.074219 181.394531 375.074219 187.535156 C 375.074219 193.679688 374.773438 199.804688 374.171875 205.917969 C 373.570312 212.03125 372.667969 218.097656 371.46875 224.125 C 370.273438 230.148438 368.78125 236.097656 367 241.976562 C 365.214844 247.855469 363.148438 253.628906 360.796875 259.304688 C 358.449219 264.980469 355.824219 270.523438 352.929688 275.941406 C 350.035156 281.359375 346.878906 286.621094 343.46875 291.726562 C 340.054688 296.832031 336.402344 301.761719 332.503906 306.507812 C 328.609375 311.257812 324.488281 315.800781 320.144531 320.144531 C 315.800781 324.488281 311.257812 328.609375 306.507812 332.503906 C 301.761719 336.402344 296.832031 340.054688 291.726562 343.46875 C 286.621094 346.878906 281.359375 350.035156 275.941406 352.929688 C 270.523438 355.824219 264.980469 358.449219 259.304688 360.796875 C 253.628906 363.148438 247.855469 365.214844 241.976562 367 C 236.097656 368.78125 230.148438 370.273438 224.125 371.46875 C 218.097656 372.667969 212.03125 373.570312 205.917969 374.171875 C 199.804688 374.773438 193.679688 375.074219 187.535156 375.074219 C 181.394531 375.074219 175.265625 374.773438 169.15625 374.171875 C 163.042969 373.570312 156.972656 372.667969 150.949219 371.46875 C 144.925781 370.273438 138.976562 368.78125 133.097656 367 C 127.21875 365.214844 121.445312 363.148438 115.769531 360.796875 C 110.09375 358.449219 104.550781 355.824219 99.132812 352.929688 C 93.714844 350.035156 88.453125 346.878906 83.347656 343.46875 C 78.238281 340.054688 73.3125 336.402344 68.566406 332.503906 C 63.816406 328.609375 59.269531 324.488281 54.929688 320.144531 C 50.585938 315.800781 46.464844 311.257812 42.570312 306.507812 C 38.671875 301.761719 35.019531 296.832031 31.605469 291.726562 C 28.191406 286.621094 25.039062 281.359375 22.144531 275.941406 C 19.25 270.523438 16.625 264.980469 14.277344 259.304688 C 11.925781 253.628906 9.859375 247.855469 8.074219 241.976562 C 6.292969 236.097656 4.800781 230.148438 3.601562 224.125 C 2.40625 218.097656 1.503906 212.03125 0.902344 205.917969 C 0.300781 199.804688 0 193.679688 0 187.535156 Z M 0 187.535156 "/></clipPath><clipPath id="6dbba388b9"><path d="M 164 198 L 211 198 L 211 243 L 164 243 Z M 164 198 "/></clipPath><clipPath id="080f2b3398"><path d="M 0 187.535156 C 0 181.394531 0.300781 175.265625 0.902344 169.15625 C 1.503906 163.042969 2.40625 156.972656 3.601562 150.949219 C 4.800781 144.925781 6.292969 138.976562 8.074219 133.097656 C 9.859375 127.21875 11.925781 121.445312 14.277344 115.769531 C 16.625 110.09375 19.25 104.550781 22.144531 99.132812 C 25.039062 93.714844 28.191406 88.453125 31.605469 83.347656 C 35.019531 78.238281 38.671875 73.3125 42.570312 68.566406 C 46.464844 63.816406 50.585938 59.269531 54.929688 54.929688 C 59.269531 50.585938 63.816406 46.464844 68.566406 42.570312 C 73.3125 38.671875 78.238281 35.019531 83.347656 31.605469 C 88.453125 28.191406 93.714844 25.039062 99.132812 22.144531 C 104.550781 19.25 110.09375 16.625 115.769531 14.277344 C 121.445312 11.925781 127.21875 9.859375 133.097656 8.074219 C 138.976562 6.292969 144.925781 4.800781 150.949219 3.601562 C 156.972656 2.40625 163.042969 1.503906 169.15625 0.902344 C 175.265625 0.300781 181.394531 0 187.535156 0 C 193.679688 0 199.804688 0.300781 205.917969 0.902344 C 212.03125 1.503906 218.097656 2.40625 224.125 3.601562 C 230.148438 4.800781 236.097656 6.292969 241.976562 8.074219 C 247.855469 9.859375 253.628906 11.925781 259.304688 14.277344 C 264.980469 16.625 270.523438 19.25 275.941406 22.144531 C 281.359375 25.039062 286.621094 28.191406 291.726562 31.605469 C 296.832031 35.019531 301.761719 38.671875 306.507812 42.570312 C 311.257812 46.464844 315.800781 50.585938 320.144531 54.929688 C 324.488281 59.269531 328.609375 63.816406 332.503906 68.566406 C 336.402344 73.3125 340.054688 78.238281 343.46875 83.347656 C 346.878906 88.453125 350.035156 93.714844 352.929688 99.132812 C 355.824219 104.550781 358.449219 110.09375 360.796875 115.769531 C 363.148438 121.445312 365.214844 127.21875 367 133.097656 C 368.78125 138.976562 370.273438 144.925781 371.46875 150.949219 C 372.667969 156.972656 373.570312 163.042969 374.171875 169.15625 C 374.773438 175.265625 375.074219 181.394531 375.074219 187.535156 C 375.074219 193.679688 374.773438 199.804688 374.171875 205.917969 C 373.570312 212.03125 372.667969 218.097656 371.46875 224.125 C 370.273438 230.148438 368.78125 236.097656 367 241.976562 C 365.214844 247.855469 363.148438 253.628906 360.796875 259.304688 C 358.449219 264.980469 355.824219 270.523438 352.929688 275.941406 C 350.035156 281.359375 346.878906 286.621094 343.46875 291.726562 C 340.054688 296.832031 336.402344 301.761719 332.503906 306.507812 C 328.609375 311.257812 324.488281 315.800781 320.144531 320.144531 C 315.800781 324.488281 311.257812 328.609375 306.507812 332.503906 C 301.761719 336.402344 296.832031 340.054688 291.726562 343.46875 C 286.621094 346.878906 281.359375 350.035156 275.941406 352.929688 C 270.523438 355.824219 264.980469 358.449219 259.304688 360.796875 C 253.628906 363.148438 247.855469 365.214844 241.976562 367 C 236.097656 368.78125 230.148438 370.273438 224.125 371.46875 C 218.097656 372.667969 212.03125 373.570312 205.917969 374.171875 C 199.804688 374.773438 193.679688 375.074219 187.535156 375.074219 C 181.394531 375.074219 175.265625 374.773438 169.15625 374.171875 C 163.042969 373.570312 156.972656 372.667969 150.949219 371.46875 C 144.925781 370.273438 138.976562 368.78125 133.097656 367 C 127.21875 365.214844 121.445312 363.148438 115.769531 360.796875 C 110.09375 358.449219 104.550781 355.824219 99.132812 352.929688 C 93.714844 350.035156 88.453125 346.878906 83.347656 343.46875 C 78.238281 340.054688 73.3125 336.402344 68.566406 332.503906 C 63.816406 328.609375 59.269531 324.488281 54.929688 320.144531 C 50.585938 315.800781 46.464844 311.257812 42.570312 306.507812 C 38.671875 301.761719 35.019531 296.832031 31.605469 291.726562 C 28.191406 286.621094 25.039062 281.359375 22.144531 275.941406 C 19.25 270.523438 16.625 264.980469 14.277344 259.304688 C 11.925781 253.628906 9.859375 247.855469 8.074219 241.976562 C 6.292969 236.097656 4.800781 230.148438 3.601562 224.125 C 2.40625 218.097656 1.503906 212.03125 0.902344 205.917969 C 0.300781 199.804688 0 193.679688 0 187.535156 Z M 0 187.535156 "/></clipPath><clipPath id="a580192ed0"><path d="M 138 146 L 231 146 L 231 231 L 138 231 Z M 138 146 "/></clipPath><clipPath id="c4c1a962a5"><path d="M 0 187.535156 C 0 181.394531 0.300781 175.265625 0.902344 169.15625 C 1.503906 163.042969 2.40625 156.972656 3.601562 150.949219 C 4.800781 144.925781 6.292969 138.976562 8.074219 133.097656 C 9.859375 127.21875 11.925781 121.445312 14.277344 115.769531 C 16.625 110.09375 19.25 104.550781 22.144531 99.132812 C 25.039062 93.714844 28.191406 88.453125 31.605469 83.347656 C 35.019531 78.238281 38.671875 73.3125 42.570312 68.566406 C 46.464844 63.816406 50.585938 59.269531 54.929688 54.929688 C 59.269531 50.585938 63.816406 46.464844 68.566406 42.570312 C 73.3125 38.671875 78.238281 35.019531 83.347656 31.605469 C 88.453125 28.191406 93.714844 25.039062 99.132812 22.144531 C 104.550781 19.25 110.09375 16.625 115.769531 14.277344 C 121.445312 11.925781 127.21875 9.859375 133.097656 8.074219 C 138.976562 6.292969 144.925781 4.800781 150.949219 3.601562 C 156.972656 2.40625 163.042969 1.503906 169.15625 0.902344 C 175.265625 0.300781 181.394531 0 187.535156 0 C 193.679688 0 199.804688 0.300781 205.917969 0.902344 C 212.03125 1.503906 218.097656 2.40625 224.125 3.601562 C 230.148438 4.800781 236.097656 6.292969 241.976562 8.074219 C 247.855469 9.859375 253.628906 11.925781 259.304688 14.277344 C 264.980469 16.625 270.523438 19.25 275.941406 22.144531 C 281.359375 25.039062 286.621094 28.191406 291.726562 31.605469 C 296.832031 35.019531 301.761719 38.671875 306.507812 42.570312 C 311.257812 46.464844 315.800781 50.585938 320.144531 54.929688 C 324.488281 59.269531 328.609375 63.816406 332.503906 68.566406 C 336.402344 73.3125 340.054688 78.238281 343.46875 83.347656 C 346.878906 88.453125 350.035156 93.714844 352.929688 99.132812 C 355.824219 104.550781 358.449219 110.09375 360.796875 115.769531 C 363.148438 121.445312 365.214844 127.21875 367 133.097656 C 368.78125 138.976562 370.273438 144.925781 371.46875 150.949219 C 372.667969 156.972656 373.570312 163.042969 374.171875 169.15625 C 374.773438 175.265625 375.074219 181.394531 375.074219 187.535156 C 375.074219 193.679688 374.773438 199.804688 374.171875 205.917969 C 373.570312 212.03125 372.667969 218.097656 371.46875 224.125 C 370.273438 230.148438 368.78125 236.097656 367 241.976562 C 365.214844 247.855469 363.148438 253.628906 360.796875 259.304688 C 358.449219 264.980469 355.824219 270.523438 352.929688 275.941406 C 350.035156 281.359375 346.878906 286.621094 343.46875 291.726562 C 340.054688 296.832031 336.402344 301.761719 332.503906 306.507812 C 328.609375 311.257812 324.488281 315.800781 320.144531 320.144531 C 315.800781 324.488281 311.257812 328.609375 306.507812 332.503906 C 301.761719 336.402344 296.832031 340.054688 291.726562 343.46875 C 286.621094 346.878906 281.359375 350.035156 275.941406 352.929688 C 270.523438 355.824219 264.980469 358.449219 259.304688 360.796875 C 253.628906 363.148438 247.855469 365.214844 241.976562 367 C 236.097656 368.78125 230.148438 370.273438 224.125 371.46875 C 218.097656 372.667969 212.03125 373.570312 205.917969 374.171875 C 199.804688 374.773438 193.679688 375.074219 187.535156 375.074219 C 181.394531 375.074219 175.265625 374.773438 169.15625 374.171875 C 163.042969 373.570312 156.972656 372.667969 150.949219 371.46875 C 144.925781 370.273438 138.976562 368.78125 133.097656 367 C 127.21875 365.214844 121.445312 363.148438 115.769531 360.796875 C 110.09375 358.449219 104.550781 355.824219 99.132812 352.929688 C 93.714844 350.035156 88.453125 346.878906 83.347656 343.46875 C 78.238281 340.054688 73.3125 336.402344 68.566406 332.503906 C 63.816406 328.609375 59.269531 324.488281 54.929688 320.144531 C 50.585938 315.800781 46.464844 311.257812 42.570312 306.507812 C 38.671875 301.761719 35.019531 296.832031 31.605469 291.726562 C 28.191406 286.621094 25.039062 281.359375 22.144531 275.941406 C 19.25 270.523438 16.625 264.980469 14.277344 259.304688 C 11.925781 253.628906 9.859375 247.855469 8.074219 241.976562 C 6.292969 236.097656 4.800781 230.148438 3.601562 224.125 C 2.40625 218.097656 1.503906 212.03125 0.902344 205.917969 C 0.300781 199.804688 0 193.679688 0 187.535156 Z M 0 187.535156 "/></clipPath></defs><g id="19ae25d6ff"><rect x="0" width="375" y="0" height="374.999991" style="fill:#ffffff;fill-opacity:1;stroke:none;"/><rect x="0" width="375" y="0" height="374.999991" style="fill:#ffffff;fill-opacity:1;stroke:none;"/><g clip-rule="nonzero" clip-path="url(#61e9b4122d)"><path style=" stroke:none;fill-rule:nonzero;fill:#8f4399;fill-opacity:1;" d="M 375.074219 187.535156 C 375.074219 190.605469 375 193.671875 374.847656 196.738281 C 374.695312 199.804688 374.472656 202.863281 374.171875 205.917969 C 373.871094 208.972656 373.496094 212.019531 373.042969 215.054688 C 372.59375 218.089844 372.070312 221.113281 371.46875 224.125 C 370.871094 227.132812 370.199219 230.128906 369.453125 233.105469 C 368.707031 236.082031 367.890625 239.039062 367 241.976562 C 366.109375 244.914062 365.144531 247.828125 364.109375 250.714844 C 363.078125 253.605469 361.972656 256.46875 360.796875 259.304688 C 359.625 262.140625 358.378906 264.945312 357.066406 267.71875 C 355.757812 270.492188 354.375 273.234375 352.929688 275.941406 C 351.484375 278.648438 349.96875 281.316406 348.390625 283.949219 C 346.816406 286.582031 345.171875 289.175781 343.46875 291.726562 C 341.761719 294.277344 339.996094 296.789062 338.167969 299.253906 C 336.339844 301.71875 334.453125 304.136719 332.503906 306.507812 C 330.558594 308.882812 328.554688 311.203125 326.492188 313.480469 C 324.429688 315.753906 322.316406 317.976562 320.144531 320.144531 C 317.976562 322.316406 315.753906 324.429688 313.480469 326.492188 C 311.203125 328.554688 308.882812 330.558594 306.507812 332.503906 C 304.136719 334.453125 301.71875 336.339844 299.253906 338.167969 C 296.789062 339.996094 294.277344 341.761719 291.726562 343.46875 C 289.175781 345.171875 286.582031 346.816406 283.949219 348.390625 C 281.316406 349.96875 278.648438 351.484375 275.941406 352.929688 C 273.234375 354.375 270.492188 355.757812 267.71875 357.066406 C 264.945312 358.378906 262.140625 359.625 259.304688 360.796875 C 256.46875 361.972656 253.605469 363.078125 250.714844 364.109375 C 247.828125 365.144531 244.914062 366.109375 241.976562 367 C 239.039062 367.890625 236.082031 368.707031 233.105469 369.453125 C 230.128906 370.199219 227.132812 370.871094 224.125 371.46875 C 221.113281 372.070312 218.089844 372.59375 215.054688 373.042969 C 212.019531 373.496094 208.972656 373.871094 205.917969 374.171875 C 202.863281 374.472656 199.804688 374.695312 196.738281 374.847656 C 193.671875 375 190.605469 375.074219 187.535156 375.074219 C 184.46875 375.074219 181.398438 375 178.335938 374.847656 C 175.269531 374.695312 172.210938 374.472656 169.15625 374.171875 C 166.101562 373.871094 163.054688 373.496094 160.019531 373.042969 C 156.984375 372.59375 153.960938 372.070312 150.949219 371.46875 C 147.941406 370.871094 144.945312 370.199219 141.96875 369.453125 C 138.992188 368.707031 136.035156 367.890625 133.097656 367 C 130.160156 366.109375 127.246094 365.144531 124.359375 364.109375 C 121.46875 363.078125 118.605469 361.972656 115.769531 360.796875 C 112.933594 359.625 110.128906 358.378906 107.355469 357.066406 C 104.578125 355.757812 101.839844 354.375 99.132812 352.929688 C 96.425781 351.484375 93.757812 349.96875 91.125 348.390625 C 88.492188 346.816406 85.898438 345.171875 83.347656 343.46875 C 80.796875 341.761719 78.285156 339.996094 75.820312 338.167969 C 73.355469 336.339844 70.9375 334.453125 68.566406 332.503906 C 66.191406 330.558594 63.867188 328.554688 61.59375 326.492188 C 59.320312 324.429688 57.097656 322.316406 54.929688 320.144531 C 52.757812 317.976562 50.640625 315.753906 48.582031 313.480469 C 46.519531 311.203125 44.515625 308.882812 42.570312 306.507812 C 40.621094 304.136719 38.734375 301.71875 36.90625 299.253906 C 35.078125 296.789062 33.3125 294.277344 31.605469 291.726562 C 29.902344 289.175781 28.257812 286.582031 26.679688 283.949219 C 25.101562 281.316406 23.589844 278.648438 22.144531 275.941406 C 20.699219 273.234375 19.316406 270.492188 18.003906 267.71875 C 16.691406 264.945312 15.449219 262.140625 14.277344 259.304688 C 13.101562 256.46875 11.996094 253.605469 10.960938 250.714844 C 9.929688 247.828125 8.964844 244.914062 8.074219 241.976562 C 7.183594 239.039062 6.367188 236.082031 5.621094 233.105469 C 4.875 230.128906 4.203125 227.132812 3.601562 224.125 C 3.003906 221.113281 2.480469 218.089844 2.03125 215.054688 C 1.578125 212.019531 1.203125 208.972656 0.902344 205.917969 C 0.601562 202.863281 0.375 199.804688 0.226562 196.738281 C 0.0742188 193.671875 0 190.605469 0 187.535156 C 0 184.46875 0.0742188 181.398438 0.226562 178.335938 C 0.375 175.269531 0.601562 172.210938 0.902344 169.15625 C 1.203125 166.101562 1.578125 163.054688 2.03125 160.019531 C 2.480469 156.984375 3.003906 153.960938 3.601562 150.949219 C 4.203125 147.941406 4.875 144.945312 5.621094 141.96875 C 6.367188 138.992188 7.183594 136.035156 8.074219 133.097656 C 8.964844 130.160156 9.929688 127.246094 10.960938 124.359375 C 11.996094 121.46875 13.101562 118.605469 14.277344 115.769531 C 15.449219 112.933594 16.691406 110.128906 18.003906 107.355469 C 19.316406 104.578125 20.699219 101.839844 22.144531 99.132812 C 23.589844 96.425781 25.101562 93.757812 26.679688 91.125 C 28.257812 88.492188 29.902344 85.898438 31.605469 83.347656 C 33.3125 80.796875 35.078125 78.285156 36.90625 75.820312 C 38.734375 73.355469 40.621094 70.9375 42.570312 68.566406 C 44.515625 66.191406 46.519531 63.867188 48.582031 61.59375 C 50.640625 59.320312 52.757812 57.097656 54.929688 54.929688 C 57.097656 52.757812 59.320312 50.640625 61.59375 48.582031 C 63.867188 46.519531 66.191406 44.515625 68.566406 42.570312 C 70.9375 40.621094 73.355469 38.734375 75.820312 36.90625 C 78.285156 35.078125 80.796875 33.3125 83.347656 31.605469 C 85.898438 29.902344 88.492188 28.257812 91.125 26.679688 C 93.757812 25.101562 96.425781 23.589844 99.132812 22.144531 C 101.839844 20.699219 104.578125 19.316406 107.355469 18.003906 C 110.128906 16.691406 112.933594 15.449219 115.769531 14.277344 C 118.605469 13.101562 121.46875 11.996094 124.359375 10.960938 C 127.246094 9.929688 130.160156 8.964844 133.097656 8.074219 C 136.035156 7.183594 138.992188 6.367188 141.96875 5.621094 C 144.945312 4.875 147.941406 4.203125 150.949219 3.601562 C 153.960938 3.003906 156.984375 2.480469 160.019531 2.03125 C 163.054688 1.578125 166.101562 1.203125 169.15625 0.902344 C 172.210938 0.601562 175.269531 0.375 178.335938 0.226562 C 181.398438 0.0742188 184.46875 0 187.535156 0 C 190.605469 0 193.671875 0.0742188 196.738281 0.226562 C 199.804688 0.375 202.863281 0.601562 205.917969 0.902344 C 208.972656 1.203125 212.019531 1.578125 215.054688 2.03125 C 218.089844 2.480469 221.113281 3.003906 224.125 3.601562 C 227.132812 4.203125 230.128906 4.875 233.105469 5.621094 C 236.082031 6.367188 239.039062 7.183594 241.976562 8.074219 C 244.914062 8.964844 247.828125 9.929688 250.714844 10.960938 C 253.605469 11.996094 256.46875 13.101562 259.304688 14.277344 C 262.140625 15.449219 264.945312 16.691406 267.71875 18.003906 C 270.492188 19.316406 273.234375 20.699219 275.941406 22.144531 C 278.648438 23.589844 281.316406 25.101562 283.949219 26.679688 C 286.582031 28.257812 289.175781 29.902344 291.726562 31.605469 C 294.277344 33.3125 296.789062 35.078125 299.253906 36.90625 C 301.71875 38.734375 304.136719 40.621094 306.507812 42.570312 C 308.882812 44.515625 311.203125 46.519531 313.480469 48.582031 C 315.753906 50.640625 317.976562 52.757812 320.144531 54.929688 C 322.316406 57.097656 324.429688 59.320312 326.492188 61.59375 C 328.554688 63.867188 330.558594 66.191406 332.503906 68.566406 C 334.453125 70.9375 336.339844 73.355469 338.167969 75.820312 C 339.996094 78.285156 341.761719 80.796875 343.46875 83.347656 C 345.171875 85.898438 346.816406 88.492188 348.390625 91.125 C 349.96875 93.757812 351.484375 96.425781 352.929688 99.132812 C 354.375 101.839844 355.757812 104.578125 357.066406 107.355469 C 358.378906 110.128906 359.625 112.933594 360.796875 115.769531 C 361.972656 118.605469 363.078125 121.46875 364.109375 124.359375 C 365.144531 127.246094 366.109375 130.160156 367 133.097656 C 367.890625 136.035156 368.707031 138.992188 369.453125 141.96875 C 370.199219 144.945312 370.871094 147.941406 371.46875 150.949219 C 372.070312 153.960938 372.59375 156.984375 373.042969 160.019531 C 373.496094 163.054688 373.871094 166.101562 374.171875 169.15625 C 374.472656 172.210938 374.695312 175.269531 374.847656 178.335938 C 375 181.398438 375.074219 184.46875 375.074219 187.535156 Z M 375.074219 187.535156 "/></g><g clip-rule="nonzero" clip-path="url(#eb309385d4)"><g clip-rule="nonzero" clip-path="url(#94cc5adf58)"><path style=" stroke:none;fill-rule:nonzero;fill:#ffffff;fill-opacity:1;" d="M 350.527344 362.96875 C 350.527344 362.96875 223.230469 422.84375 159.875 415.351562 C 96.523438 407.863281 52.054688 362.96875 52.054688 362.96875 C 52.054688 362.96875 89.101562 267.675781 123.449219 257.550781 C 137.1875 253.507812 151.140625 250.441406 165.308594 248.355469 C 177.152344 246.609375 184.4375 246.3125 184.4375 246.3125 L 210.980469 246.3125 C 210.980469 246.3125 214.976562 246.480469 221.378906 247.074219 C 240.183594 248.808594 279.753906 254.199219 299.460938 269.640625 C 325.882812 290.332031 350.527344 362.96875 350.527344 362.96875 Z M 350.527344 362.96875 "/></g></g><g clip-rule="nonzero" clip-path="url(#950322643c)"><g clip-rule="nonzero" clip-path="url(#c3b4868821)"><path style=" stroke:none;fill-rule:nonzero;fill:#371952;fill-opacity:1;" d="M 221.378906 247.082031 C 220.085938 256.878906 211.277344 265.960938 198.96875 269.0625 C 183.734375 272.878906 168.902344 266.089844 165.839844 253.882812 C 165.378906 252.066406 165.199219 250.222656 165.308594 248.351562 C 177.152344 246.605469 184.4375 246.308594 184.4375 246.308594 L 210.980469 246.308594 C 210.980469 246.308594 214.976562 246.480469 221.378906 247.082031 Z M 221.378906 247.082031 "/></g></g><g clip-rule="nonzero" clip-path="url(#fd9f7f6ee1)"><g clip-rule="nonzero" clip-path="url(#55e5a67b7b)"><path style=" stroke:none;fill-rule:nonzero;fill:#371952;fill-opacity:1;" d="M 133.792969 164.234375 C 120 168.453125 126.496094 144.910156 126.496094 144.910156 C 126.496094 144.910156 114.15625 140.039062 118.863281 128.1875 C 123.574219 116.332031 159.292969 106.429688 196.152344 112.4375 C 233.011719 118.445312 231.710938 144.746094 231.710938 144.746094 C 231.710938 144.746094 243.726562 148.640625 240.316406 162.605469 C 236.90625 176.570312 221.707031 201.980469 218.558594 212.621094 C 215.410156 223.261719 201.1875 223.011719 201.1875 223.011719 "/></g></g><g clip-rule="nonzero" clip-path="url(#2789612c27)"><g clip-rule="nonzero" clip-path="url(#1a0a534cf8)"><path style=" stroke:none;fill-rule:nonzero;fill:#f7a8a7;fill-opacity:1;" d="M 171.074219 242.941406 C 171.800781 247.894531 172.226562 251.375 172.226562 251.375 C 172.226562 251.375 169.808594 262.160156 189.398438 262.820312 C 190.785156 262.882812 192.167969 262.847656 193.546875 262.722656 C 194.929688 262.597656 196.292969 262.378906 197.644531 262.070312 C 198.996094 261.757812 200.320312 261.359375 201.617188 260.871094 C 202.914062 260.382812 204.175781 259.808594 205.394531 259.148438 C 206.613281 258.492188 207.785156 257.753906 208.90625 256.9375 C 210.023438 256.121094 211.085938 255.234375 212.085938 254.273438 C 213.085938 253.316406 214.019531 252.292969 214.882812 251.207031 C 215.746094 250.121094 216.53125 248.984375 217.238281 247.792969 C 217.238281 247.792969 212.9375 225.976562 210.96875 210.5625 C 210.292969 206.417969 210.214844 202.265625 210.738281 198.097656 L 164.09375 210.875 C 166.78125 215.789062 169.5625 232.597656 171.074219 242.941406 Z M 171.074219 242.941406 "/></g></g><g clip-rule="nonzero" clip-path="url(#6dbba388b9)"><g clip-rule="nonzero" clip-path="url(#080f2b3398)"><path style=" stroke:none;fill-rule:nonzero;fill:#f38296;fill-opacity:1;" d="M 164.09375 210.875 C 166.78125 215.789062 169.5625 232.597656 171.074219 242.941406 C 192.527344 243.707031 206.984375 227.644531 210.980469 210.5625 C 210.304688 206.417969 210.226562 202.265625 210.75 198.097656 Z M 164.09375 210.875 "/></g></g><g clip-rule="nonzero" clip-path="url(#a580192ed0)"><g clip-rule="nonzero" clip-path="url(#c4c1a962a5)"><path style=" stroke:none;fill-rule:nonzero;fill:#f7a8a7;fill-opacity:1;" d="M 138.523438 146.460938 C 165.234375 156.535156 202.609375 154.527344 202.609375 154.527344 L 208.003906 182.8125 C 208.003906 182.8125 215.199219 160.628906 225.886719 168.777344 C 236.574219 176.925781 226.492188 191.617188 214.71875 191.726562 C 214.71875 191.726562 204.617188 234.734375 167.207031 229.828125 C 145.386719 226.964844 138.777344 202.289062 138.558594 187.984375 C 138.339844 173.679688 138.523438 146.460938 138.523438 146.460938 Z M 138.523438 146.460938 "/></g></g><path style=" stroke:none;fill-rule:nonzero;fill:#371952;fill-opacity:1;" d="M 136.875 140.933594 C 144.558594 153.261719 159.785156 162.6875 166.746094 161.960938 C 173.707031 161.238281 165.734375 154.710938 165.734375 154.710938 C 173.402344 158.558594 181.523438 160.683594 190.09375 161.089844 C 203.976562 161.679688 210.839844 157.609375 210.839844 157.609375 L 205.769531 143.398438 Z M 136.875 140.933594 "/></g></svg>