<svg xmlns="http://www.w3.org/2000/svg" xmlns:xlink="http://www.w3.org/1999/xlink" width="500" zoomAndPan="magnify" viewBox="0 0 375 374.999991" height="500" preserveAspectRatio="xMidYMid meet" version="1.2"><defs><clipPath id="d99b135008"><path d="M 98 29 L 304 29 L 304 316 L 98 316 Z M 98 29 "/></clipPath><clipPath id="a797f8da9e"><path d="M 0.140625 187.496094 C 0.140625 181.359375 0.441406 175.238281 1.042969 169.128906 C 1.644531 163.023438 2.542969 156.957031 3.738281 150.941406 C 4.9375 144.921875 6.425781 138.976562 8.207031 133.101562 C 9.988281 127.230469 12.054688 121.457031 14.402344 115.789062 C 16.75 110.117188 19.371094 104.578125 22.261719 99.164062 C 25.15625 93.753906 28.304688 88.496094 31.714844 83.394531 C 35.125 78.289062 38.777344 73.367188 42.667969 68.625 C 46.5625 63.878906 50.675781 59.335938 55.015625 55 C 59.355469 50.660156 63.898438 46.542969 68.640625 42.648438 C 73.382812 38.757812 78.308594 35.105469 83.410156 31.695312 C 88.511719 28.285156 93.769531 25.132812 99.179688 22.242188 C 104.59375 19.347656 110.132812 16.726562 115.800781 14.378906 C 121.472656 12.03125 127.242188 9.964844 133.113281 8.183594 C 138.984375 6.402344 144.929688 4.914062 150.949219 3.714844 C 156.96875 2.519531 163.03125 1.621094 169.136719 1.019531 C 175.246094 0.417969 181.367188 0.117188 187.503906 0.117188 C 193.640625 0.117188 199.761719 0.417969 205.867188 1.019531 C 211.972656 1.621094 218.035156 2.519531 224.054688 3.714844 C 230.074219 4.914062 236.019531 6.402344 241.890625 8.183594 C 247.761719 9.964844 253.535156 12.03125 259.203125 14.378906 C 264.871094 16.726562 270.414062 19.347656 275.824219 22.242188 C 281.238281 25.132812 286.492188 28.285156 291.597656 31.695312 C 296.699219 35.105469 301.621094 38.757812 306.363281 42.648438 C 311.109375 46.542969 315.648438 50.660156 319.988281 55 C 324.328125 59.335938 328.441406 63.878906 332.335938 68.625 C 336.230469 73.367188 339.878906 78.289062 343.289062 83.394531 C 346.699219 88.496094 349.847656 93.753906 352.742188 99.164062 C 355.632812 104.578125 358.253906 110.117188 360.601562 115.789062 C 362.953125 121.457031 365.015625 127.230469 366.796875 133.101562 C 368.578125 138.976562 370.066406 144.921875 371.265625 150.941406 C 372.460938 156.957031 373.363281 163.023438 373.964844 169.128906 C 374.566406 175.238281 374.867188 181.359375 374.867188 187.496094 C 374.867188 193.632812 374.566406 199.753906 373.964844 205.863281 C 373.363281 211.96875 372.460938 218.03125 371.265625 224.050781 C 370.066406 230.070312 368.578125 236.015625 366.796875 241.890625 C 365.015625 247.761719 362.953125 253.53125 360.601562 259.203125 C 358.253906 264.871094 355.632812 270.414062 352.742188 275.824219 C 349.847656 281.238281 346.699219 286.496094 343.289062 291.597656 C 339.878906 296.699219 336.230469 301.625 332.335938 306.367188 C 328.441406 311.113281 324.328125 315.652344 319.988281 319.992188 C 315.648438 324.332031 311.109375 328.449219 306.363281 332.34375 C 301.621094 336.234375 296.699219 339.886719 291.597656 343.296875 C 286.492188 346.707031 281.238281 349.855469 275.824219 352.75 C 270.414062 355.644531 264.871094 358.261719 259.203125 360.613281 C 253.535156 362.960938 247.761719 365.027344 241.890625 366.808594 C 236.019531 368.589844 230.074219 370.078125 224.054688 371.273438 C 218.035156 372.472656 211.972656 373.371094 205.867188 373.972656 C 199.761719 374.574219 193.640625 374.875 187.503906 374.875 C 181.367188 374.875 175.246094 374.574219 169.136719 373.972656 C 163.03125 373.371094 156.96875 372.472656 150.949219 371.273438 C 144.929688 370.078125 138.984375 368.589844 133.113281 366.808594 C 127.242188 365.027344 121.472656 362.960938 115.800781 360.613281 C 110.132812 358.261719 104.59375 355.644531 99.179688 352.75 C 93.769531 349.855469 88.511719 346.707031 83.410156 343.296875 C 78.308594 339.886719 73.382812 336.234375 68.640625 332.34375 C 63.898438 328.449219 59.355469 324.332031 55.015625 319.992188 C 50.675781 315.652344 46.5625 311.113281 42.667969 306.367188 C 38.777344 301.625 35.125 296.699219 31.714844 291.597656 C 28.304688 286.496094 25.15625 281.238281 22.261719 275.824219 C 19.371094 270.414062 16.75 264.871094 14.402344 259.203125 C 12.054688 253.53125 9.988281 247.761719 8.207031 241.890625 C 6.425781 236.015625 4.9375 230.070312 3.738281 224.050781 C 2.542969 218.03125 1.644531 211.96875 1.042969 205.863281 C 0.441406 199.753906 0.140625 193.632812 0.140625 187.496094 Z M 0.140625 187.496094 "/></clipPath><clipPath id="64dd945c61"><path d="M 157 190 L 230 190 L 230 272 L 157 272 Z M 157 190 "/></clipPath><clipPath id="49aa6f8af9"><path d="M 0.140625 187.496094 C 0.140625 181.359375 0.441406 175.238281 1.042969 169.128906 C 1.644531 163.023438 2.542969 156.957031 3.738281 150.941406 C 4.9375 144.921875 6.425781 138.976562 8.207031 133.101562 C 9.988281 127.230469 12.054688 121.457031 14.402344 115.789062 C 16.75 110.117188 19.371094 104.578125 22.261719 99.164062 C 25.15625 93.753906 28.304688 88.496094 31.714844 83.394531 C 35.125 78.289062 38.777344 73.367188 42.667969 68.625 C 46.5625 63.878906 50.675781 59.335938 55.015625 55 C 59.355469 50.660156 63.898438 46.542969 68.640625 42.648438 C 73.382812 38.757812 78.308594 35.105469 83.410156 31.695312 C 88.511719 28.285156 93.769531 25.132812 99.179688 22.242188 C 104.59375 19.347656 110.132812 16.726562 115.800781 14.378906 C 121.472656 12.03125 127.242188 9.964844 133.113281 8.183594 C 138.984375 6.402344 144.929688 4.914062 150.949219 3.714844 C 156.96875 2.519531 163.03125 1.621094 169.136719 1.019531 C 175.246094 0.417969 181.367188 0.117188 187.503906 0.117188 C 193.640625 0.117188 199.761719 0.417969 205.867188 1.019531 C 211.972656 1.621094 218.035156 2.519531 224.054688 3.714844 C 230.074219 4.914062 236.019531 6.402344 241.890625 8.183594 C 247.761719 9.964844 253.535156 12.03125 259.203125 14.378906 C 264.871094 16.726562 270.414062 19.347656 275.824219 22.242188 C 281.238281 25.132812 286.492188 28.285156 291.597656 31.695312 C 296.699219 35.105469 301.621094 38.757812 306.363281 42.648438 C 311.109375 46.542969 315.648438 50.660156 319.988281 55 C 324.328125 59.335938 328.441406 63.878906 332.335938 68.625 C 336.230469 73.367188 339.878906 78.289062 343.289062 83.394531 C 346.699219 88.496094 349.847656 93.753906 352.742188 99.164062 C 355.632812 104.578125 358.253906 110.117188 360.601562 115.789062 C 362.953125 121.457031 365.015625 127.230469 366.796875 133.101562 C 368.578125 138.976562 370.066406 144.921875 371.265625 150.941406 C 372.460938 156.957031 373.363281 163.023438 373.964844 169.128906 C 374.566406 175.238281 374.867188 181.359375 374.867188 187.496094 C 374.867188 193.632812 374.566406 199.753906 373.964844 205.863281 C 373.363281 211.96875 372.460938 218.03125 371.265625 224.050781 C 370.066406 230.070312 368.578125 236.015625 366.796875 241.890625 C 365.015625 247.761719 362.953125 253.53125 360.601562 259.203125 C 358.253906 264.871094 355.632812 270.414062 352.742188 275.824219 C 349.847656 281.238281 346.699219 286.496094 343.289062 291.597656 C 339.878906 296.699219 336.230469 301.625 332.335938 306.367188 C 328.441406 311.113281 324.328125 315.652344 319.988281 319.992188 C 315.648438 324.332031 311.109375 328.449219 306.363281 332.34375 C 301.621094 336.234375 296.699219 339.886719 291.597656 343.296875 C 286.492188 346.707031 281.238281 349.855469 275.824219 352.75 C 270.414062 355.644531 264.871094 358.261719 259.203125 360.613281 C 253.535156 362.960938 247.761719 365.027344 241.890625 366.808594 C 236.019531 368.589844 230.074219 370.078125 224.054688 371.273438 C 218.035156 372.472656 211.972656 373.371094 205.867188 373.972656 C 199.761719 374.574219 193.640625 374.875 187.503906 374.875 C 181.367188 374.875 175.246094 374.574219 169.136719 373.972656 C 163.03125 373.371094 156.96875 372.472656 150.949219 371.273438 C 144.929688 370.078125 138.984375 368.589844 133.113281 366.808594 C 127.242188 365.027344 121.472656 362.960938 115.800781 360.613281 C 110.132812 358.261719 104.59375 355.644531 99.179688 352.75 C 93.769531 349.855469 88.511719 346.707031 83.410156 343.296875 C 78.308594 339.886719 73.382812 336.234375 68.640625 332.34375 C 63.898438 328.449219 59.355469 324.332031 55.015625 319.992188 C 50.675781 315.652344 46.5625 311.113281 42.667969 306.367188 C 38.777344 301.625 35.125 296.699219 31.714844 291.597656 C 28.304688 286.496094 25.15625 281.238281 22.261719 275.824219 C 19.371094 270.414062 16.75 264.871094 14.402344 259.203125 C 12.054688 253.53125 9.988281 247.761719 8.207031 241.890625 C 6.425781 236.015625 4.9375 230.070312 3.738281 224.050781 C 2.542969 218.03125 1.644531 211.96875 1.042969 205.863281 C 0.441406 199.753906 0.140625 193.632812 0.140625 187.496094 Z M 0.140625 187.496094 "/></clipPath><clipPath id="e7032843ca"><path d="M 157 190.351562 L 230 190.351562 L 230 236 L 157 236 Z M 157 190.351562 "/></clipPath><clipPath id="a5609e283f"><path d="M 0.140625 187.496094 C 0.140625 181.359375 0.441406 175.238281 1.042969 169.128906 C 1.644531 163.023438 2.542969 156.957031 3.738281 150.941406 C 4.9375 144.921875 6.425781 138.976562 8.207031 133.101562 C 9.988281 127.230469 12.054688 121.457031 14.402344 115.789062 C 16.75 110.117188 19.371094 104.578125 22.261719 99.164062 C 25.15625 93.753906 28.304688 88.496094 31.714844 83.394531 C 35.125 78.289062 38.777344 73.367188 42.667969 68.625 C 46.5625 63.878906 50.675781 59.335938 55.015625 55 C 59.355469 50.660156 63.898438 46.542969 68.640625 42.648438 C 73.382812 38.757812 78.308594 35.105469 83.410156 31.695312 C 88.511719 28.285156 93.769531 25.132812 99.179688 22.242188 C 104.59375 19.347656 110.132812 16.726562 115.800781 14.378906 C 121.472656 12.03125 127.242188 9.964844 133.113281 8.183594 C 138.984375 6.402344 144.929688 4.914062 150.949219 3.714844 C 156.96875 2.519531 163.03125 1.621094 169.136719 1.019531 C 175.246094 0.417969 181.367188 0.117188 187.503906 0.117188 C 193.640625 0.117188 199.761719 0.417969 205.867188 1.019531 C 211.972656 1.621094 218.035156 2.519531 224.054688 3.714844 C 230.074219 4.914062 236.019531 6.402344 241.890625 8.183594 C 247.761719 9.964844 253.535156 12.03125 259.203125 14.378906 C 264.871094 16.726562 270.414062 19.347656 275.824219 22.242188 C 281.238281 25.132812 286.492188 28.285156 291.597656 31.695312 C 296.699219 35.105469 301.621094 38.757812 306.363281 42.648438 C 311.109375 46.542969 315.648438 50.660156 319.988281 55 C 324.328125 59.335938 328.441406 63.878906 332.335938 68.625 C 336.230469 73.367188 339.878906 78.289062 343.289062 83.394531 C 346.699219 88.496094 349.847656 93.753906 352.742188 99.164062 C 355.632812 104.578125 358.253906 110.117188 360.601562 115.789062 C 362.953125 121.457031 365.015625 127.230469 366.796875 133.101562 C 368.578125 138.976562 370.066406 144.921875 371.265625 150.941406 C 372.460938 156.957031 373.363281 163.023438 373.964844 169.128906 C 374.566406 175.238281 374.867188 181.359375 374.867188 187.496094 C 374.867188 193.632812 374.566406 199.753906 373.964844 205.863281 C 373.363281 211.96875 372.460938 218.03125 371.265625 224.050781 C 370.066406 230.070312 368.578125 236.015625 366.796875 241.890625 C 365.015625 247.761719 362.953125 253.53125 360.601562 259.203125 C 358.253906 264.871094 355.632812 270.414062 352.742188 275.824219 C 349.847656 281.238281 346.699219 286.496094 343.289062 291.597656 C 339.878906 296.699219 336.230469 301.625 332.335938 306.367188 C 328.441406 311.113281 324.328125 315.652344 319.988281 319.992188 C 315.648438 324.332031 311.109375 328.449219 306.363281 332.34375 C 301.621094 336.234375 296.699219 339.886719 291.597656 343.296875 C 286.492188 346.707031 281.238281 349.855469 275.824219 352.75 C 270.414062 355.644531 264.871094 358.261719 259.203125 360.613281 C 253.535156 362.960938 247.761719 365.027344 241.890625 366.808594 C 236.019531 368.589844 230.074219 370.078125 224.054688 371.273438 C 218.035156 372.472656 211.972656 373.371094 205.867188 373.972656 C 199.761719 374.574219 193.640625 374.875 187.503906 374.875 C 181.367188 374.875 175.246094 374.574219 169.136719 373.972656 C 163.03125 373.371094 156.96875 372.472656 150.949219 371.273438 C 144.929688 370.078125 138.984375 368.589844 133.113281 366.808594 C 127.242188 365.027344 121.472656 362.960938 115.800781 360.613281 C 110.132812 358.261719 104.59375 355.644531 99.179688 352.75 C 93.769531 349.855469 88.511719 346.707031 83.410156 343.296875 C 78.308594 339.886719 73.382812 336.234375 68.640625 332.34375 C 63.898438 328.449219 59.355469 324.332031 55.015625 319.992188 C 50.675781 315.652344 46.5625 311.113281 42.667969 306.367188 C 38.777344 301.625 35.125 296.699219 31.714844 291.597656 C 28.304688 286.496094 25.15625 281.238281 22.261719 275.824219 C 19.371094 270.414062 16.75 264.871094 14.402344 259.203125 C 12.054688 253.53125 9.988281 247.761719 8.207031 241.890625 C 6.425781 236.015625 4.9375 230.070312 3.738281 224.050781 C 2.542969 218.03125 1.644531 211.96875 1.042969 205.863281 C 0.441406 199.753906 0.140625 193.632812 0.140625 187.496094 Z M 0.140625 187.496094 "/></clipPath><clipPath id="43fb4dec72"><path d="M 157.46875 198.167969 C 157.171875 206.835938 160.070312 248.929688 158.457031 262.121094 C 180.261719 267.128906 208.496094 278.429688 229.8125 265.902344 C 226.757812 256.980469 226.628906 246.25 226.195312 236.953125 C 225.355469 218.941406 222.355469 208.453125 224.546875 190.546875 Z M 157.46875 198.167969 "/></clipPath><clipPath id="f963bde6e1"><path d="M 46 239 L 335 239 L 335 375 L 46 375 Z M 46 239 "/></clipPath><clipPath id="0d8171eb76"><path d="M 0.140625 187.496094 C 0.140625 181.359375 0.441406 175.238281 1.042969 169.128906 C 1.644531 163.023438 2.542969 156.957031 3.738281 150.941406 C 4.9375 144.921875 6.425781 138.976562 8.207031 133.101562 C 9.988281 127.230469 12.054688 121.457031 14.402344 115.789062 C 16.75 110.117188 19.371094 104.578125 22.261719 99.164062 C 25.15625 93.753906 28.304688 88.496094 31.714844 83.394531 C 35.125 78.289062 38.777344 73.367188 42.667969 68.625 C 46.5625 63.878906 50.675781 59.335938 55.015625 55 C 59.355469 50.660156 63.898438 46.542969 68.640625 42.648438 C 73.382812 38.757812 78.308594 35.105469 83.410156 31.695312 C 88.511719 28.285156 93.769531 25.132812 99.179688 22.242188 C 104.59375 19.347656 110.132812 16.726562 115.800781 14.378906 C 121.472656 12.03125 127.242188 9.964844 133.113281 8.183594 C 138.984375 6.402344 144.929688 4.914062 150.949219 3.714844 C 156.96875 2.519531 163.03125 1.621094 169.136719 1.019531 C 175.246094 0.417969 181.367188 0.117188 187.503906 0.117188 C 193.640625 0.117188 199.761719 0.417969 205.867188 1.019531 C 211.972656 1.621094 218.035156 2.519531 224.054688 3.714844 C 230.074219 4.914062 236.019531 6.402344 241.890625 8.183594 C 247.761719 9.964844 253.535156 12.03125 259.203125 14.378906 C 264.871094 16.726562 270.414062 19.347656 275.824219 22.242188 C 281.238281 25.132812 286.492188 28.285156 291.597656 31.695312 C 296.699219 35.105469 301.621094 38.757812 306.363281 42.648438 C 311.109375 46.542969 315.648438 50.660156 319.988281 55 C 324.328125 59.335938 328.441406 63.878906 332.335938 68.625 C 336.230469 73.367188 339.878906 78.289062 343.289062 83.394531 C 346.699219 88.496094 349.847656 93.753906 352.742188 99.164062 C 355.632812 104.578125 358.253906 110.117188 360.601562 115.789062 C 362.953125 121.457031 365.015625 127.230469 366.796875 133.101562 C 368.578125 138.976562 370.066406 144.921875 371.265625 150.941406 C 372.460938 156.957031 373.363281 163.023438 373.964844 169.128906 C 374.566406 175.238281 374.867188 181.359375 374.867188 187.496094 C 374.867188 193.632812 374.566406 199.753906 373.964844 205.863281 C 373.363281 211.96875 372.460938 218.03125 371.265625 224.050781 C 370.066406 230.070312 368.578125 236.015625 366.796875 241.890625 C 365.015625 247.761719 362.953125 253.53125 360.601562 259.203125 C 358.253906 264.871094 355.632812 270.414062 352.742188 275.824219 C 349.847656 281.238281 346.699219 286.496094 343.289062 291.597656 C 339.878906 296.699219 336.230469 301.625 332.335938 306.367188 C 328.441406 311.113281 324.328125 315.652344 319.988281 319.992188 C 315.648438 324.332031 311.109375 328.449219 306.363281 332.34375 C 301.621094 336.234375 296.699219 339.886719 291.597656 343.296875 C 286.492188 346.707031 281.238281 349.855469 275.824219 352.75 C 270.414062 355.644531 264.871094 358.261719 259.203125 360.613281 C 253.535156 362.960938 247.761719 365.027344 241.890625 366.808594 C 236.019531 368.589844 230.074219 370.078125 224.054688 371.273438 C 218.035156 372.472656 211.972656 373.371094 205.867188 373.972656 C 199.761719 374.574219 193.640625 374.875 187.503906 374.875 C 181.367188 374.875 175.246094 374.574219 169.136719 373.972656 C 163.03125 373.371094 156.96875 372.472656 150.949219 371.273438 C 144.929688 370.078125 138.984375 368.589844 133.113281 366.808594 C 127.242188 365.027344 121.472656 362.960938 115.800781 360.613281 C 110.132812 358.261719 104.59375 355.644531 99.179688 352.75 C 93.769531 349.855469 88.511719 346.707031 83.410156 343.296875 C 78.308594 339.886719 73.382812 336.234375 68.640625 332.34375 C 63.898438 328.449219 59.355469 324.332031 55.015625 319.992188 C 50.675781 315.652344 46.5625 311.113281 42.667969 306.367188 C 38.777344 301.625 35.125 296.699219 31.714844 291.597656 C 28.304688 286.496094 25.15625 281.238281 22.261719 275.824219 C 19.371094 270.414062 16.75 264.871094 14.402344 259.203125 C 12.054688 253.53125 9.988281 247.761719 8.207031 241.890625 C 6.425781 236.015625 4.9375 230.070312 3.738281 224.050781 C 2.542969 218.03125 1.644531 211.96875 1.042969 205.863281 C 0.441406 199.753906 0.140625 193.632812 0.140625 187.496094 Z M 0.140625 187.496094 "/></clipPath><clipPath id="9a6853d263"><path d="M 185 252 L 199 252 L 199 375 L 185 375 Z M 185 252 "/></clipPath><clipPath id="52149967f4"><path d="M 0.140625 187.496094 C 0.140625 181.359375 0.441406 175.238281 1.042969 169.128906 C 1.644531 163.023438 2.542969 156.957031 3.738281 150.941406 C 4.9375 144.921875 6.425781 138.976562 8.207031 133.101562 C 9.988281 127.230469 12.054688 121.457031 14.402344 115.789062 C 16.75 110.117188 19.371094 104.578125 22.261719 99.164062 C 25.15625 93.753906 28.304688 88.496094 31.714844 83.394531 C 35.125 78.289062 38.777344 73.367188 42.667969 68.625 C 46.5625 63.878906 50.675781 59.335938 55.015625 55 C 59.355469 50.660156 63.898438 46.542969 68.640625 42.648438 C 73.382812 38.757812 78.308594 35.105469 83.410156 31.695312 C 88.511719 28.285156 93.769531 25.132812 99.179688 22.242188 C 104.59375 19.347656 110.132812 16.726562 115.800781 14.378906 C 121.472656 12.03125 127.242188 9.964844 133.113281 8.183594 C 138.984375 6.402344 144.929688 4.914062 150.949219 3.714844 C 156.96875 2.519531 163.03125 1.621094 169.136719 1.019531 C 175.246094 0.417969 181.367188 0.117188 187.503906 0.117188 C 193.640625 0.117188 199.761719 0.417969 205.867188 1.019531 C 211.972656 1.621094 218.035156 2.519531 224.054688 3.714844 C 230.074219 4.914062 236.019531 6.402344 241.890625 8.183594 C 247.761719 9.964844 253.535156 12.03125 259.203125 14.378906 C 264.871094 16.726562 270.414062 19.347656 275.824219 22.242188 C 281.238281 25.132812 286.492188 28.285156 291.597656 31.695312 C 296.699219 35.105469 301.621094 38.757812 306.363281 42.648438 C 311.109375 46.542969 315.648438 50.660156 319.988281 55 C 324.328125 59.335938 328.441406 63.878906 332.335938 68.625 C 336.230469 73.367188 339.878906 78.289062 343.289062 83.394531 C 346.699219 88.496094 349.847656 93.753906 352.742188 99.164062 C 355.632812 104.578125 358.253906 110.117188 360.601562 115.789062 C 362.953125 121.457031 365.015625 127.230469 366.796875 133.101562 C 368.578125 138.976562 370.066406 144.921875 371.265625 150.941406 C 372.460938 156.957031 373.363281 163.023438 373.964844 169.128906 C 374.566406 175.238281 374.867188 181.359375 374.867188 187.496094 C 374.867188 193.632812 374.566406 199.753906 373.964844 205.863281 C 373.363281 211.96875 372.460938 218.03125 371.265625 224.050781 C 370.066406 230.070312 368.578125 236.015625 366.796875 241.890625 C 365.015625 247.761719 362.953125 253.53125 360.601562 259.203125 C 358.253906 264.871094 355.632812 270.414062 352.742188 275.824219 C 349.847656 281.238281 346.699219 286.496094 343.289062 291.597656 C 339.878906 296.699219 336.230469 301.625 332.335938 306.367188 C 328.441406 311.113281 324.328125 315.652344 319.988281 319.992188 C 315.648438 324.332031 311.109375 328.449219 306.363281 332.34375 C 301.621094 336.234375 296.699219 339.886719 291.597656 343.296875 C 286.492188 346.707031 281.238281 349.855469 275.824219 352.75 C 270.414062 355.644531 264.871094 358.261719 259.203125 360.613281 C 253.535156 362.960938 247.761719 365.027344 241.890625 366.808594 C 236.019531 368.589844 230.074219 370.078125 224.054688 371.273438 C 218.035156 372.472656 211.972656 373.371094 205.867188 373.972656 C 199.761719 374.574219 193.640625 374.875 187.503906 374.875 C 181.367188 374.875 175.246094 374.574219 169.136719 373.972656 C 163.03125 373.371094 156.96875 372.472656 150.949219 371.273438 C 144.929688 370.078125 138.984375 368.589844 133.113281 366.808594 C 127.242188 365.027344 121.472656 362.960938 115.800781 360.613281 C 110.132812 358.261719 104.59375 355.644531 99.179688 352.75 C 93.769531 349.855469 88.511719 346.707031 83.410156 343.296875 C 78.308594 339.886719 73.382812 336.234375 68.640625 332.34375 C 63.898438 328.449219 59.355469 324.332031 55.015625 319.992188 C 50.675781 315.652344 46.5625 311.113281 42.667969 306.367188 C 38.777344 301.625 35.125 296.699219 31.714844 291.597656 C 28.304688 286.496094 25.15625 281.238281 22.261719 275.824219 C 19.371094 270.414062 16.75 264.871094 14.402344 259.203125 C 12.054688 253.53125 9.988281 247.761719 8.207031 241.890625 C 6.425781 236.015625 4.9375 230.070312 3.738281 224.050781 C 2.542969 218.03125 1.644531 211.96875 1.042969 205.863281 C 0.441406 199.753906 0.140625 193.632812 0.140625 187.496094 Z M 0.140625 187.496094 "/></clipPath><clipPath id="e9468b3c34"><path d="M 46.277344 359.570312 C 53.8125 339.933594 61.042969 297.394531 73.496094 279.984375 C 81.097656 269.359375 142.273438 250.003906 158.621094 241.398438 C 166.097656 248.761719 184.804688 264.890625 196.039062 262.671875 C 206.082031 260.6875 218.179688 252.164062 226.546875 239.789062 C 242.867188 248.570312 286.03125 256.390625 303.160156 271.210938 C 316.691406 282.917969 328.257812 321.523438 334.582031 342.625 C 232.230469 438.027344 131.59375 453.042969 46.277344 359.570312 "/></clipPath><clipPath id="d54996e7a4"><path d="M 121 239.4375 L 266 239.4375 L 266 291 L 121 291 Z M 121 239.4375 "/></clipPath><clipPath id="a8859f7b75"><path d="M 0.140625 187.496094 C 0.140625 181.359375 0.441406 175.238281 1.042969 169.128906 C 1.644531 163.023438 2.542969 156.957031 3.738281 150.941406 C 4.9375 144.921875 6.425781 138.976562 8.207031 133.101562 C 9.988281 127.230469 12.054688 121.457031 14.402344 115.789062 C 16.75 110.117188 19.371094 104.578125 22.261719 99.164062 C 25.15625 93.753906 28.304688 88.496094 31.714844 83.394531 C 35.125 78.289062 38.777344 73.367188 42.667969 68.625 C 46.5625 63.878906 50.675781 59.335938 55.015625 55 C 59.355469 50.660156 63.898438 46.542969 68.640625 42.648438 C 73.382812 38.757812 78.308594 35.105469 83.410156 31.695312 C 88.511719 28.285156 93.769531 25.132812 99.179688 22.242188 C 104.59375 19.347656 110.132812 16.726562 115.800781 14.378906 C 121.472656 12.03125 127.242188 9.964844 133.113281 8.183594 C 138.984375 6.402344 144.929688 4.914062 150.949219 3.714844 C 156.96875 2.519531 163.03125 1.621094 169.136719 1.019531 C 175.246094 0.417969 181.367188 0.117188 187.503906 0.117188 C 193.640625 0.117188 199.761719 0.417969 205.867188 1.019531 C 211.972656 1.621094 218.035156 2.519531 224.054688 3.714844 C 230.074219 4.914062 236.019531 6.402344 241.890625 8.183594 C 247.761719 9.964844 253.535156 12.03125 259.203125 14.378906 C 264.871094 16.726562 270.414062 19.347656 275.824219 22.242188 C 281.238281 25.132812 286.492188 28.285156 291.597656 31.695312 C 296.699219 35.105469 301.621094 38.757812 306.363281 42.648438 C 311.109375 46.542969 315.648438 50.660156 319.988281 55 C 324.328125 59.335938 328.441406 63.878906 332.335938 68.625 C 336.230469 73.367188 339.878906 78.289062 343.289062 83.394531 C 346.699219 88.496094 349.847656 93.753906 352.742188 99.164062 C 355.632812 104.578125 358.253906 110.117188 360.601562 115.789062 C 362.953125 121.457031 365.015625 127.230469 366.796875 133.101562 C 368.578125 138.976562 370.066406 144.921875 371.265625 150.941406 C 372.460938 156.957031 373.363281 163.023438 373.964844 169.128906 C 374.566406 175.238281 374.867188 181.359375 374.867188 187.496094 C 374.867188 193.632812 374.566406 199.753906 373.964844 205.863281 C 373.363281 211.96875 372.460938 218.03125 371.265625 224.050781 C 370.066406 230.070312 368.578125 236.015625 366.796875 241.890625 C 365.015625 247.761719 362.953125 253.53125 360.601562 259.203125 C 358.253906 264.871094 355.632812 270.414062 352.742188 275.824219 C 349.847656 281.238281 346.699219 286.496094 343.289062 291.597656 C 339.878906 296.699219 336.230469 301.625 332.335938 306.367188 C 328.441406 311.113281 324.328125 315.652344 319.988281 319.992188 C 315.648438 324.332031 311.109375 328.449219 306.363281 332.34375 C 301.621094 336.234375 296.699219 339.886719 291.597656 343.296875 C 286.492188 346.707031 281.238281 349.855469 275.824219 352.75 C 270.414062 355.644531 264.871094 358.261719 259.203125 360.613281 C 253.535156 362.960938 247.761719 365.027344 241.890625 366.808594 C 236.019531 368.589844 230.074219 370.078125 224.054688 371.273438 C 218.035156 372.472656 211.972656 373.371094 205.867188 373.972656 C 199.761719 374.574219 193.640625 374.875 187.503906 374.875 C 181.367188 374.875 175.246094 374.574219 169.136719 373.972656 C 163.03125 373.371094 156.96875 372.472656 150.949219 371.273438 C 144.929688 370.078125 138.984375 368.589844 133.113281 366.808594 C 127.242188 365.027344 121.472656 362.960938 115.800781 360.613281 C 110.132812 358.261719 104.59375 355.644531 99.179688 352.75 C 93.769531 349.855469 88.511719 346.707031 83.410156 343.296875 C 78.308594 339.886719 73.382812 336.234375 68.640625 332.34375 C 63.898438 328.449219 59.355469 324.332031 55.015625 319.992188 C 50.675781 315.652344 46.5625 311.113281 42.667969 306.367188 C 38.777344 301.625 35.125 296.699219 31.714844 291.597656 C 28.304688 286.496094 25.15625 281.238281 22.261719 275.824219 C 19.371094 270.414062 16.75 264.871094 14.402344 259.203125 C 12.054688 253.53125 9.988281 247.761719 8.207031 241.890625 C 6.425781 236.015625 4.9375 230.070312 3.738281 224.050781 C 2.542969 218.03125 1.644531 211.96875 1.042969 205.863281 C 0.441406 199.753906 0.140625 193.632812 0.140625 187.496094 Z M 0.140625 187.496094 "/></clipPath><clipPath id="390970dbaf"><path d="M 46.277344 359.570312 C 53.8125 339.933594 61.042969 297.394531 73.496094 279.984375 C 81.097656 269.359375 142.273438 250.003906 158.621094 241.398438 C 166.097656 248.761719 184.804688 264.890625 196.039062 262.671875 C 206.082031 260.6875 218.179688 252.164062 226.546875 239.789062 C 242.867188 248.570312 286.03125 256.390625 303.160156 271.210938 C 316.691406 282.917969 328.257812 321.523438 334.582031 342.625 C 232.230469 438.027344 131.59375 453.042969 46.277344 359.570312 "/></clipPath><clipPath id="0504e91acb"><path d="M 121 69 L 258 69 L 258 226 L 121 226 Z M 121 69 "/></clipPath><clipPath id="9acba88c9d"><path d="M 0.140625 187.496094 C 0.140625 181.359375 0.441406 175.238281 1.042969 169.128906 C 1.644531 163.023438 2.542969 156.957031 3.738281 150.941406 C 4.9375 144.921875 6.425781 138.976562 8.207031 133.101562 C 9.988281 127.230469 12.054688 121.457031 14.402344 115.789062 C 16.75 110.117188 19.371094 104.578125 22.261719 99.164062 C 25.15625 93.753906 28.304688 88.496094 31.714844 83.394531 C 35.125 78.289062 38.777344 73.367188 42.667969 68.625 C 46.5625 63.878906 50.675781 59.335938 55.015625 55 C 59.355469 50.660156 63.898438 46.542969 68.640625 42.648438 C 73.382812 38.757812 78.308594 35.105469 83.410156 31.695312 C 88.511719 28.285156 93.769531 25.132812 99.179688 22.242188 C 104.59375 19.347656 110.132812 16.726562 115.800781 14.378906 C 121.472656 12.03125 127.242188 9.964844 133.113281 8.183594 C 138.984375 6.402344 144.929688 4.914062 150.949219 3.714844 C 156.96875 2.519531 163.03125 1.621094 169.136719 1.019531 C 175.246094 0.417969 181.367188 0.117188 187.503906 0.117188 C 193.640625 0.117188 199.761719 0.417969 205.867188 1.019531 C 211.972656 1.621094 218.035156 2.519531 224.054688 3.714844 C 230.074219 4.914062 236.019531 6.402344 241.890625 8.183594 C 247.761719 9.964844 253.535156 12.03125 259.203125 14.378906 C 264.871094 16.726562 270.414062 19.347656 275.824219 22.242188 C 281.238281 25.132812 286.492188 28.285156 291.597656 31.695312 C 296.699219 35.105469 301.621094 38.757812 306.363281 42.648438 C 311.109375 46.542969 315.648438 50.660156 319.988281 55 C 324.328125 59.335938 328.441406 63.878906 332.335938 68.625 C 336.230469 73.367188 339.878906 78.289062 343.289062 83.394531 C 346.699219 88.496094 349.847656 93.753906 352.742188 99.164062 C 355.632812 104.578125 358.253906 110.117188 360.601562 115.789062 C 362.953125 121.457031 365.015625 127.230469 366.796875 133.101562 C 368.578125 138.976562 370.066406 144.921875 371.265625 150.941406 C 372.460938 156.957031 373.363281 163.023438 373.964844 169.128906 C 374.566406 175.238281 374.867188 181.359375 374.867188 187.496094 C 374.867188 193.632812 374.566406 199.753906 373.964844 205.863281 C 373.363281 211.96875 372.460938 218.03125 371.265625 224.050781 C 370.066406 230.070312 368.578125 236.015625 366.796875 241.890625 C 365.015625 247.761719 362.953125 253.53125 360.601562 259.203125 C 358.253906 264.871094 355.632812 270.414062 352.742188 275.824219 C 349.847656 281.238281 346.699219 286.496094 343.289062 291.597656 C 339.878906 296.699219 336.230469 301.625 332.335938 306.367188 C 328.441406 311.113281 324.328125 315.652344 319.988281 319.992188 C 315.648438 324.332031 311.109375 328.449219 306.363281 332.34375 C 301.621094 336.234375 296.699219 339.886719 291.597656 343.296875 C 286.492188 346.707031 281.238281 349.855469 275.824219 352.75 C 270.414062 355.644531 264.871094 358.261719 259.203125 360.613281 C 253.535156 362.960938 247.761719 365.027344 241.890625 366.808594 C 236.019531 368.589844 230.074219 370.078125 224.054688 371.273438 C 218.035156 372.472656 211.972656 373.371094 205.867188 373.972656 C 199.761719 374.574219 193.640625 374.875 187.503906 374.875 C 181.367188 374.875 175.246094 374.574219 169.136719 373.972656 C 163.03125 373.371094 156.96875 372.472656 150.949219 371.273438 C 144.929688 370.078125 138.984375 368.589844 133.113281 366.808594 C 127.242188 365.027344 121.472656 362.960938 115.800781 360.613281 C 110.132812 358.261719 104.59375 355.644531 99.179688 352.75 C 93.769531 349.855469 88.511719 346.707031 83.410156 343.296875 C 78.308594 339.886719 73.382812 336.234375 68.640625 332.34375 C 63.898438 328.449219 59.355469 324.332031 55.015625 319.992188 C 50.675781 315.652344 46.5625 311.113281 42.667969 306.367188 C 38.777344 301.625 35.125 296.699219 31.714844 291.597656 C 28.304688 286.496094 25.15625 281.238281 22.261719 275.824219 C 19.371094 270.414062 16.75 264.871094 14.402344 259.203125 C 12.054688 253.53125 9.988281 247.761719 8.207031 241.890625 C 6.425781 236.015625 4.9375 230.070312 3.738281 224.050781 C 2.542969 218.03125 1.644531 211.96875 1.042969 205.863281 C 0.441406 199.753906 0.140625 193.632812 0.140625 187.496094 Z M 0.140625 187.496094 "/></clipPath><clipPath id="3cddf4b202"><path d="M 113 41 L 234 41 L 234 148 L 113 148 Z M 113 41 "/></clipPath><clipPath id="89dc8dd2ba"><path d="M 0.140625 187.496094 C 0.140625 181.359375 0.441406 175.238281 1.042969 169.128906 C 1.644531 163.023438 2.542969 156.957031 3.738281 150.941406 C 4.9375 144.921875 6.425781 138.976562 8.207031 133.101562 C 9.988281 127.230469 12.054688 121.457031 14.402344 115.789062 C 16.75 110.117188 19.371094 104.578125 22.261719 99.164062 C 25.15625 93.753906 28.304688 88.496094 31.714844 83.394531 C 35.125 78.289062 38.777344 73.367188 42.667969 68.625 C 46.5625 63.878906 50.675781 59.335938 55.015625 55 C 59.355469 50.660156 63.898438 46.542969 68.640625 42.648438 C 73.382812 38.757812 78.308594 35.105469 83.410156 31.695312 C 88.511719 28.285156 93.769531 25.132812 99.179688 22.242188 C 104.59375 19.347656 110.132812 16.726562 115.800781 14.378906 C 121.472656 12.03125 127.242188 9.964844 133.113281 8.183594 C 138.984375 6.402344 144.929688 4.914062 150.949219 3.714844 C 156.96875 2.519531 163.03125 1.621094 169.136719 1.019531 C 175.246094 0.417969 181.367188 0.117188 187.503906 0.117188 C 193.640625 0.117188 199.761719 0.417969 205.867188 1.019531 C 211.972656 1.621094 218.035156 2.519531 224.054688 3.714844 C 230.074219 4.914062 236.019531 6.402344 241.890625 8.183594 C 247.761719 9.964844 253.535156 12.03125 259.203125 14.378906 C 264.871094 16.726562 270.414062 19.347656 275.824219 22.242188 C 281.238281 25.132812 286.492188 28.285156 291.597656 31.695312 C 296.699219 35.105469 301.621094 38.757812 306.363281 42.648438 C 311.109375 46.542969 315.648438 50.660156 319.988281 55 C 324.328125 59.335938 328.441406 63.878906 332.335938 68.625 C 336.230469 73.367188 339.878906 78.289062 343.289062 83.394531 C 346.699219 88.496094 349.847656 93.753906 352.742188 99.164062 C 355.632812 104.578125 358.253906 110.117188 360.601562 115.789062 C 362.953125 121.457031 365.015625 127.230469 366.796875 133.101562 C 368.578125 138.976562 370.066406 144.921875 371.265625 150.941406 C 372.460938 156.957031 373.363281 163.023438 373.964844 169.128906 C 374.566406 175.238281 374.867188 181.359375 374.867188 187.496094 C 374.867188 193.632812 374.566406 199.753906 373.964844 205.863281 C 373.363281 211.96875 372.460938 218.03125 371.265625 224.050781 C 370.066406 230.070312 368.578125 236.015625 366.796875 241.890625 C 365.015625 247.761719 362.953125 253.53125 360.601562 259.203125 C 358.253906 264.871094 355.632812 270.414062 352.742188 275.824219 C 349.847656 281.238281 346.699219 286.496094 343.289062 291.597656 C 339.878906 296.699219 336.230469 301.625 332.335938 306.367188 C 328.441406 311.113281 324.328125 315.652344 319.988281 319.992188 C 315.648438 324.332031 311.109375 328.449219 306.363281 332.34375 C 301.621094 336.234375 296.699219 339.886719 291.597656 343.296875 C 286.492188 346.707031 281.238281 349.855469 275.824219 352.75 C 270.414062 355.644531 264.871094 358.261719 259.203125 360.613281 C 253.535156 362.960938 247.761719 365.027344 241.890625 366.808594 C 236.019531 368.589844 230.074219 370.078125 224.054688 371.273438 C 218.035156 372.472656 211.972656 373.371094 205.867188 373.972656 C 199.761719 374.574219 193.640625 374.875 187.503906 374.875 C 181.367188 374.875 175.246094 374.574219 169.136719 373.972656 C 163.03125 373.371094 156.96875 372.472656 150.949219 371.273438 C 144.929688 370.078125 138.984375 368.589844 133.113281 366.808594 C 127.242188 365.027344 121.472656 362.960938 115.800781 360.613281 C 110.132812 358.261719 104.59375 355.644531 99.179688 352.75 C 93.769531 349.855469 88.511719 346.707031 83.410156 343.296875 C 78.308594 339.886719 73.382812 336.234375 68.640625 332.34375 C 63.898438 328.449219 59.355469 324.332031 55.015625 319.992188 C 50.675781 315.652344 46.5625 311.113281 42.667969 306.367188 C 38.777344 301.625 35.125 296.699219 31.714844 291.597656 C 28.304688 286.496094 25.15625 281.238281 22.261719 275.824219 C 19.371094 270.414062 16.75 264.871094 14.402344 259.203125 C 12.054688 253.53125 9.988281 247.761719 8.207031 241.890625 C 6.425781 236.015625 4.9375 230.070312 3.738281 224.050781 C 2.542969 218.03125 1.644531 211.96875 1.042969 205.863281 C 0.441406 199.753906 0.140625 193.632812 0.140625 187.496094 Z M 0.140625 187.496094 "/></clipPath></defs><g id="7b6ba8f493"><rect x="0" width="375" y="0" height="374.999991" style="fill:#ffffff;fill-opacity:1;stroke:none;"/><rect x="0" width="375" y="0" height="374.999991" style="fill:#ffffff;fill-opacity:1;stroke:none;"/><path style=" stroke:none;fill-rule:nonzero;fill:#3998ff;fill-opacity:1;" d="M 374.867188 187.496094 C 374.867188 190.5625 374.789062 193.628906 374.640625 196.691406 C 374.488281 199.753906 374.265625 202.808594 373.964844 205.863281 C 373.664062 208.914062 373.289062 211.957031 372.835938 214.988281 C 372.386719 218.023438 371.863281 221.042969 371.265625 224.050781 C 370.667969 227.058594 369.996094 230.050781 369.25 233.023438 C 368.503906 236 367.6875 238.953125 366.796875 241.890625 C 365.90625 244.824219 364.945312 247.734375 363.914062 250.621094 C 362.878906 253.507812 361.777344 256.371094 360.601562 259.203125 C 359.429688 262.035156 358.1875 264.839844 356.875 267.609375 C 355.566406 270.382812 354.1875 273.121094 352.742188 275.824219 C 351.296875 278.53125 349.785156 281.199219 348.210938 283.828125 C 346.632812 286.457031 344.992188 289.046875 343.289062 291.597656 C 341.585938 294.148438 339.820312 296.65625 337.992188 299.117188 C 336.167969 301.582031 334.28125 303.996094 332.335938 306.367188 C 330.390625 308.738281 328.390625 311.058594 326.328125 313.332031 C 324.269531 315.605469 322.15625 317.824219 319.988281 319.992188 C 317.820312 322.160156 315.601562 324.277344 313.328125 326.335938 C 311.054688 328.394531 308.734375 330.398438 306.363281 332.34375 C 303.992188 334.289062 301.578125 336.175781 299.113281 338 C 296.652344 339.828125 294.144531 341.59375 291.597656 343.296875 C 289.046875 345 286.457031 346.640625 283.828125 348.214844 C 281.195312 349.792969 278.527344 351.304688 275.824219 352.75 C 273.121094 354.195312 270.382812 355.574219 267.609375 356.886719 C 264.839844 358.195312 262.035156 359.4375 259.203125 360.613281 C 256.371094 361.785156 253.511719 362.890625 250.625 363.921875 C 247.734375 364.957031 244.824219 365.917969 241.890625 366.808594 C 238.957031 367.695312 236.003906 368.515625 233.027344 369.261719 C 230.054688 370.003906 227.0625 370.675781 224.054688 371.273438 C 221.046875 371.875 218.027344 372.398438 214.996094 372.847656 C 211.960938 373.296875 208.917969 373.671875 205.867188 373.972656 C 202.816406 374.273438 199.757812 374.5 196.695312 374.648438 C 193.632812 374.800781 190.570312 374.875 187.503906 374.875 C 184.4375 374.875 181.371094 374.800781 178.308594 374.648438 C 175.246094 374.5 172.1875 374.273438 169.136719 373.972656 C 166.085938 373.671875 163.042969 373.296875 160.011719 372.847656 C 156.976562 372.398438 153.957031 371.875 150.949219 371.273438 C 147.941406 370.675781 144.953125 370.003906 141.976562 369.261719 C 139.003906 368.515625 136.046875 367.695312 133.113281 366.808594 C 130.179688 365.917969 127.269531 364.957031 124.382812 363.921875 C 121.496094 362.890625 118.632812 361.785156 115.800781 360.613281 C 112.96875 359.4375 110.167969 358.195312 107.394531 356.886719 C 104.621094 355.574219 101.882812 354.195312 99.179688 352.75 C 96.476562 351.304688 93.808594 349.792969 91.179688 348.214844 C 88.546875 346.640625 85.957031 345 83.410156 343.296875 C 80.859375 341.59375 78.351562 339.828125 75.890625 338 C 73.425781 336.175781 71.011719 334.289062 68.640625 332.34375 C 66.269531 330.398438 63.949219 328.394531 61.675781 326.335938 C 59.40625 324.277344 57.183594 322.160156 55.015625 319.992188 C 52.847656 317.824219 50.734375 315.605469 48.675781 313.332031 C 46.617188 311.058594 44.613281 308.738281 42.667969 306.367188 C 40.722656 303.996094 38.835938 301.582031 37.011719 299.117188 C 35.183594 296.65625 33.417969 294.148438 31.714844 291.597656 C 30.011719 289.046875 28.371094 286.457031 26.796875 283.828125 C 25.21875 281.199219 23.707031 278.53125 22.261719 275.824219 C 20.816406 273.121094 19.4375 270.382812 18.128906 267.609375 C 16.816406 264.839844 15.574219 262.035156 14.402344 259.203125 C 13.226562 256.371094 12.125 253.507812 11.089844 250.621094 C 10.058594 247.734375 9.097656 244.824219 8.207031 241.890625 C 7.316406 238.953125 6.5 236 5.753906 233.023438 C 5.007812 230.050781 4.335938 227.058594 3.738281 224.050781 C 3.140625 221.042969 2.617188 218.023438 2.167969 214.988281 C 1.71875 211.957031 1.34375 208.914062 1.042969 205.863281 C 0.742188 202.808594 0.515625 199.753906 0.363281 196.691406 C 0.214844 193.628906 0.140625 190.5625 0.140625 187.496094 C 0.140625 184.429688 0.214844 181.363281 0.363281 178.300781 C 0.515625 175.238281 0.742188 172.179688 1.042969 169.128906 C 1.34375 166.078125 1.71875 163.035156 2.167969 160 C 2.617188 156.96875 3.140625 153.949219 3.738281 150.941406 C 4.335938 147.933594 5.007812 144.941406 5.753906 141.964844 C 6.5 138.992188 7.316406 136.035156 8.207031 133.101562 C 9.097656 130.167969 10.058594 127.257812 11.089844 124.371094 C 12.125 121.480469 13.226562 118.621094 14.402344 115.789062 C 15.574219 112.957031 16.816406 110.152344 18.128906 107.378906 C 19.4375 104.609375 20.816406 101.871094 22.261719 99.164062 C 23.707031 96.460938 25.21875 93.792969 26.796875 91.164062 C 28.371094 88.53125 30.011719 85.941406 31.714844 83.394531 C 33.417969 80.84375 35.183594 78.335938 37.011719 75.875 C 38.835938 73.410156 40.722656 70.992188 42.667969 68.625 C 44.613281 66.253906 46.617188 63.929688 48.675781 61.660156 C 50.734375 59.386719 52.847656 57.167969 55.015625 55 C 57.183594 52.828125 59.40625 50.714844 61.675781 48.65625 C 63.949219 46.597656 66.269531 44.59375 68.640625 42.648438 C 71.011719 40.703125 73.425781 38.816406 75.890625 36.992188 C 78.351562 35.164062 80.859375 33.398438 83.410156 31.695312 C 85.957031 29.992188 88.546875 28.351562 91.179688 26.773438 C 93.808594 25.199219 96.476562 23.6875 99.179688 22.242188 C 101.882812 20.796875 104.621094 19.417969 107.394531 18.105469 C 110.167969 16.796875 112.96875 15.554688 115.800781 14.378906 C 118.632812 13.207031 121.496094 12.101562 124.382812 11.070312 C 127.269531 10.035156 130.179688 9.074219 133.113281 8.183594 C 136.046875 7.292969 139.003906 6.476562 141.976562 5.730469 C 144.953125 4.988281 147.941406 4.316406 150.949219 3.714844 C 153.957031 3.117188 156.976562 2.59375 160.011719 2.144531 C 163.042969 1.695312 166.085938 1.320312 169.136719 1.019531 C 172.1875 0.71875 175.246094 0.492188 178.308594 0.34375 C 181.371094 0.191406 184.4375 0.117188 187.503906 0.117188 C 190.570312 0.117188 193.632812 0.191406 196.695312 0.34375 C 199.757812 0.492188 202.816406 0.71875 205.867188 1.019531 C 208.917969 1.320312 211.960938 1.695312 214.996094 2.144531 C 218.027344 2.59375 221.046875 3.117188 224.054688 3.714844 C 227.0625 4.316406 230.054688 4.988281 233.027344 5.730469 C 236.003906 6.476562 238.957031 7.292969 241.890625 8.183594 C 244.824219 9.074219 247.734375 10.035156 250.625 11.070312 C 253.511719 12.101562 256.371094 13.207031 259.203125 14.378906 C 262.035156 15.554688 264.839844 16.796875 267.609375 18.105469 C 270.382812 19.417969 273.121094 20.796875 275.824219 22.242188 C 278.527344 23.6875 281.195312 25.199219 283.828125 26.773438 C 286.457031 28.351562 289.046875 29.992188 291.597656 31.695312 C 294.144531 33.398438 296.652344 35.164062 299.113281 36.992188 C 301.578125 38.816406 303.992188 40.703125 306.363281 42.648438 C 308.734375 44.59375 311.054688 46.597656 313.328125 48.65625 C 315.601562 50.714844 317.820312 52.828125 319.988281 55 C 322.15625 57.167969 324.269531 59.386719 326.328125 61.660156 C 328.390625 63.929688 330.390625 66.253906 332.335938 68.625 C 334.28125 70.992188 336.167969 73.410156 337.992188 75.875 C 339.820312 78.335938 341.585938 80.84375 343.289062 83.394531 C 344.992188 85.941406 346.632812 88.53125 348.210938 91.164062 C 349.785156 93.792969 351.296875 96.460938 352.742188 99.164062 C 354.1875 101.871094 355.566406 104.609375 356.875 107.378906 C 358.1875 110.152344 359.429688 112.957031 360.601562 115.789062 C 361.777344 118.621094 362.878906 121.480469 363.914062 124.371094 C 364.945312 127.257812 365.90625 130.167969 366.796875 133.101562 C 367.6875 136.035156 368.503906 138.992188 369.25 141.964844 C 369.996094 144.941406 370.667969 147.933594 371.265625 150.941406 C 371.863281 153.949219 372.386719 156.96875 372.835938 160 C 373.289062 163.035156 373.664062 166.078125 373.964844 169.128906 C 374.265625 172.179688 374.488281 175.238281 374.640625 178.300781 C 374.789062 181.363281 374.867188 184.429688 374.867188 187.496094 Z M 374.867188 187.496094 "/><g clip-rule="nonzero" clip-path="url(#d99b135008)"><g clip-rule="nonzero" clip-path="url(#a797f8da9e)"><path style=" stroke:none;fill-rule:evenodd;fill:#000000;fill-opacity:1;" d="M 144.210938 42.476562 C 126.25 41.984375 102.722656 74.539062 101.066406 108.011719 C 99.742188 134.800781 105.035156 162.734375 106.703125 175.101562 C 108.316406 187.0625 114.199219 214.945312 107.195312 233.542969 C 89.828125 279.648438 103.332031 297.242188 102.691406 313.5 C 120.011719 319.484375 120.085938 307.773438 138.148438 309.070312 C 201.445312 313.617188 244.234375 309.1875 303.332031 289.90625 C 296.59375 281.800781 292.078125 271.007812 288.578125 261.242188 C 282.980469 245.632812 279.1875 228.59375 278.40625 212.011719 C 277.539062 193.625 280.535156 175.515625 281.523438 157.214844 C 282.441406 140.316406 281.253906 115.789062 277.308594 99.328125 C 264.867188 47.445312 224.277344 32.195312 205.761719 30.117188 C 187.992188 28.117188 163.136719 27.820312 144.210938 42.476562 Z M 144.210938 42.476562 "/></g></g><g clip-rule="nonzero" clip-path="url(#64dd945c61)"><g clip-rule="nonzero" clip-path="url(#49aa6f8af9)"><path style=" stroke:none;fill-rule:evenodd;fill:#ffc9ac;fill-opacity:1;" d="M 157.46875 198.167969 C 157.171875 206.835938 160.070312 248.929688 158.457031 262.121094 C 180.261719 267.128906 208.496094 278.429688 229.8125 265.902344 C 226.757812 256.980469 226.628906 246.25 226.195312 236.953125 C 225.355469 218.941406 222.355469 208.453125 224.546875 190.546875 Z M 157.46875 198.167969 "/></g></g><g clip-rule="nonzero" clip-path="url(#e7032843ca)"><g clip-rule="nonzero" clip-path="url(#a5609e283f)"><g clip-rule="evenodd" clip-path="url(#43fb4dec72)"><path style=" stroke:none;fill-rule:evenodd;fill:#000000;fill-opacity:1;" d="M 124.679688 197.8125 C 129.15625 203.175781 141.882812 219.183594 147.460938 223.445312 C 161.835938 234.429688 185.9375 240.910156 202.308594 231.011719 C 219.117188 220.847656 227.507812 200.96875 231.523438 182.582031 Z M 124.679688 197.8125 "/></g></g></g><g clip-rule="nonzero" clip-path="url(#f963bde6e1)"><g clip-rule="nonzero" clip-path="url(#0d8171eb76)"><path style=" stroke:none;fill-rule:evenodd;fill:#e0714b;fill-opacity:1;" d="M 46.277344 359.570312 C 53.8125 339.933594 61.042969 297.394531 73.496094 279.984375 C 81.097656 269.359375 142.273438 250.003906 158.621094 241.398438 C 166.097656 248.761719 184.804688 264.890625 196.039062 262.671875 C 206.082031 260.6875 218.179688 252.164062 226.546875 239.789062 C 242.867188 248.570312 286.03125 256.390625 303.160156 271.210938 C 316.691406 282.917969 328.257812 321.523438 334.582031 342.625 C 232.230469 438.027344 131.59375 453.042969 46.277344 359.570312 "/></g></g><g clip-rule="nonzero" clip-path="url(#9a6853d263)"><g clip-rule="nonzero" clip-path="url(#52149967f4)"><g clip-rule="evenodd" clip-path="url(#e9468b3c34)"><path style=" stroke:none;fill-rule:evenodd;fill:#ffffff;fill-opacity:1;" d="M 186.09375 389.878906 C 185.082031 356.257812 189.195312 280.964844 193.632812 252.058594 C 194.273438 252.160156 196.824219 253.640625 198.101562 252.835938 C 195.238281 286.238281 191.191406 348.695312 191.832031 389.738281 Z M 186.09375 389.878906 "/></g></g></g><g clip-rule="nonzero" clip-path="url(#d54996e7a4)"><g clip-rule="nonzero" clip-path="url(#a8859f7b75)"><g clip-rule="evenodd" clip-path="url(#390970dbaf)"><path style=" stroke:none;fill-rule:evenodd;fill:#ffffff;fill-opacity:1;" d="M 121.625 238.21875 C 127.519531 252.992188 165.652344 291.878906 172.878906 289.503906 C 177.328125 288.042969 189.082031 273.980469 194.636719 262.8125 C 199.285156 273.0625 213.34375 290.867188 217.636719 290.792969 C 217.636719 290.792969 255.183594 261.285156 265.429688 232.140625 C 218.15625 220.613281 167.703125 222.695312 121.625 238.21875 Z M 121.625 238.21875 "/></g></g></g><g clip-rule="nonzero" clip-path="url(#0504e91acb)"><g clip-rule="nonzero" clip-path="url(#9acba88c9d)"><path style=" stroke:none;fill-rule:evenodd;fill:#ffc9ac;fill-opacity:1;" d="M 121.222656 108.957031 C 120.652344 136.644531 121.476562 173.8125 139.304688 196.839844 C 145.988281 205.46875 153.542969 212.820312 162.929688 218.125 C 170.246094 222.257812 179.457031 226.328125 187.988281 225.683594 C 198.066406 224.917969 205.019531 220.511719 211.1875 215.300781 C 225.402344 203.292969 235.425781 185.566406 240.824219 167.925781 C 250 162.832031 260.128906 152.808594 257.328125 141.242188 C 255.535156 133.839844 247.679688 131.515625 241.382812 135.039062 C 237.027344 137.480469 234.507812 141.574219 232.433594 145.96875 C 234.359375 126.605469 225.910156 101.882812 212.640625 86.941406 C 185.101562 55.925781 137.90625 66.421875 121.222656 108.957031 Z M 121.222656 108.957031 "/></g></g><g clip-rule="nonzero" clip-path="url(#3cddf4b202)"><g clip-rule="nonzero" clip-path="url(#89dc8dd2ba)"><path style=" stroke:none;fill-rule:evenodd;fill:#000000;fill-opacity:1;" d="M 115.453125 138.234375 C 118.574219 135.082031 120.40625 130.515625 122.53125 126.699219 C 131.550781 110.511719 133.179688 91.664062 133.542969 92.839844 C 134.476562 95.863281 141.789062 110.429688 157.609375 116.988281 C 171.566406 122.777344 186.921875 124.5625 201.875 125.269531 C 213.46875 125.816406 225.878906 135.667969 232.277344 147.097656 C 234.832031 138.066406 233.628906 117.292969 231.402344 108.507812 C 229.757812 102.007812 227.511719 95.835938 224.621094 90.078125 C 218.738281 78.359375 210.183594 68.355469 198.558594 60.835938 C 183.417969 51.039062 146.003906 41.101562 146.003906 41.101562 L 144.023438 42.488281 C 144.023438 42.488281 143.585938 42.546875 143.335938 42.542969 C 131.296875 42.300781 124.027344 64.734375 117.425781 76.460938 C 113.300781 83.785156 111.828125 116.90625 114.601562 126.125 Z M 115.453125 138.234375 "/></g></g><path style="fill:none;stroke-width:0.52;stroke-linecap:round;stroke-linejoin:round;stroke:#ffffff;stroke-opacity:1;stroke-miterlimit:1.5;" d="M 1225.226109 781.603593 C 1225.226109 788.299786 1225.066551 794.99598 1224.76339 801.683643 C 1224.452252 808.371306 1223.997511 815.041908 1223.383213 821.712511 C 1222.768914 828.374583 1222.003035 835.019596 1221.077599 841.639017 C 1220.16014 848.266969 1219.0911 854.8608 1217.870481 861.42904 C 1216.649862 867.997281 1215.277662 874.531401 1213.753883 881.022869 C 1212.230103 887.522868 1210.562721 893.971686 1208.743759 900.386384 C 1206.924797 906.792551 1204.962232 913.147536 1202.856066 919.451341 C 1200.741921 925.755146 1198.492152 932.00777 1196.090803 938.192152 C 1193.697432 944.376534 1191.160458 950.501205 1188.479883 956.549105 C 1185.807285 962.605534 1182.991085 968.585192 1180.03926 974.488078 C 1177.087436 980.399495 1173.999987 986.225609 1170.784892 991.966422 C 1167.561818 997.707235 1164.211099 1003.362746 1160.732732 1008.932955 C 1157.254366 1014.503164 1153.648354 1019.979541 1149.914695 1025.353556 C 1146.189013 1030.736101 1142.335686 1036.007754 1138.36269 1041.185575 C 1134.389693 1046.363395 1130.305006 1051.430324 1126.092673 1056.39489 C 1121.888318 1061.359456 1117.572272 1066.2046 1113.144535 1070.938851 C 1108.716798 1075.673102 1104.185349 1080.296461 1099.542208 1084.791867 C 1094.899068 1089.287273 1090.160193 1093.663257 1085.317606 1097.911288 C 1080.475018 1102.159319 1075.544673 1106.279397 1070.510616 1110.262992 C 1065.484536 1114.255117 1060.362722 1118.11076 1055.161128 1121.829919 C 1049.951557 1125.549079 1044.662207 1129.131756 1039.293077 1132.569419 C 1033.91597 1136.015613 1028.467061 1139.316793 1022.946352 1142.472961 C 1017.425642 1145.629128 1011.833132 1148.640283 1006.16882 1151.506424 C 1000.512486 1154.364035 994.784351 1157.076633 989.00037 1159.644218 C 983.21639 1162.203273 977.376564 1164.617314 971.480893 1166.869283 C 965.577244 1169.129781 959.633705 1171.228206 953.642299 1173.173087 C 947.650894 1175.109439 941.619598 1176.900777 935.540435 1178.530042 C 929.46925 1180.150777 923.358176 1181.617968 917.21519 1182.923086 C 911.072204 1184.236734 904.905284 1185.379779 898.71443 1186.360749 C 892.515599 1187.34172 886.300812 1188.160618 880.070068 1188.817442 C 873.839325 1189.474266 867.592627 1189.969017 861.33795 1190.293164 C 855.083273 1190.625841 848.828596 1190.787914 842.565942 1190.787914 C 836.303287 1190.787914 830.040632 1190.625841 823.785955 1190.293164 C 817.531279 1189.969017 811.28458 1189.474266 805.053837 1188.817442 C 798.823094 1188.160618 792.608307 1187.34172 786.417453 1186.360749 C 780.218622 1185.379779 774.051702 1184.236734 767.908716 1182.923086 C 761.76573 1181.617968 755.662633 1180.150777 749.58347 1178.530042 C 743.512285 1176.900777 737.473012 1175.109439 731.481606 1173.173087 C 725.4902 1171.228206 719.546661 1169.129781 713.65099 1166.869283 C 707.755319 1164.617314 701.907516 1162.203273 696.123535 1159.644218 C 690.339555 1157.076633 684.619397 1154.364035 678.955086 1151.506424 C 673.290774 1148.640283 667.698263 1145.629128 662.177553 1142.472961 C 656.656844 1139.316793 651.207935 1136.015613 645.838806 1132.569419 C 640.461699 1129.131756 635.172348 1125.549079 629.970755 1121.829919 C 624.761184 1118.11076 619.639369 1114.255117 614.61329 1110.262992 C 609.579232 1106.279397 604.648887 1102.159319 599.8063 1097.911288 C 594.963712 1093.663257 590.224837 1089.287273 585.581697 1084.791867 C 580.946535 1080.296461 576.407107 1075.673102 571.97937 1070.938851 C 567.551634 1066.2046 563.235588 1061.359456 559.031232 1056.39489 C 554.826877 1051.430324 550.734212 1046.363395 546.761216 1041.185575 C 542.78822 1036.007754 538.934892 1030.736101 535.209211 1025.353556 C 531.475552 1019.979541 527.869539 1014.503164 524.391173 1008.932955 C 520.912807 1003.362746 517.562087 997.707235 514.346992 991.966422 C 511.123918 986.225609 508.03647 980.399495 505.084645 974.488078 C 502.132821 968.585192 499.31662 962.605534 496.644023 956.549105 C 493.963447 950.501205 491.426473 944.376534 489.033102 938.192152 C 486.631753 932.00777 484.381984 925.755146 482.26784 919.451341 C 480.161673 913.147536 478.199108 906.792551 476.380146 900.386384 C 474.561184 893.971686 472.893802 887.522868 471.370023 881.022869 C 469.846243 874.531401 468.474043 867.997281 467.253424 861.42904 C 466.032805 854.8608 464.963766 848.266969 464.046307 841.639017 C 463.128848 835.019596 462.362969 828.374583 461.74867 821.712511 C 461.134372 815.041908 460.671653 808.371306 460.360515 801.683643 C 460.057355 794.99598 459.905775 788.299786 459.905775 781.603593 C 459.905775 774.9074 460.057355 768.211207 460.360515 761.523544 C 460.671653 754.835881 461.134372 748.156748 461.74867 741.494675 C 462.362969 734.832603 463.128848 728.187591 464.046307 721.559639 C 464.963766 714.940217 466.032805 708.346386 467.253424 701.778146 C 468.474043 695.209906 469.846243 688.675786 471.370023 682.175787 C 472.893802 675.684318 474.561184 669.22697 476.380146 662.820803 C 478.199108 656.414636 480.161673 650.05965 482.26784 643.755845 C 484.381984 637.44351 486.631753 631.199417 489.033102 625.015034 C 491.426473 618.830652 493.963447 612.705981 496.644023 606.649552 C 499.31662 600.601652 502.132821 594.621994 505.084645 588.710578 C 508.03647 582.807692 511.123918 576.981577 514.346992 571.240764 C 517.562087 565.491421 520.912807 559.83591 524.391173 554.274231 C 527.869539 548.704022 531.475552 543.227645 535.209211 537.85363 C 538.934892 532.471085 542.78822 527.190902 546.761216 522.021612 C 550.734212 516.843791 554.826877 511.768332 559.031232 506.812296 C 563.235588 501.84773 567.551634 497.002587 571.97937 492.268335 C 576.407107 487.525554 580.946535 482.910725 585.581697 478.415319 C 590.224837 473.919913 594.963712 469.543929 599.8063 465.295898 C 604.648887 461.047868 609.579232 456.92779 614.61329 452.944194 C 619.639369 448.952069 624.761184 445.096426 629.970755 441.377267 C 635.172348 437.658107 640.461699 434.075431 645.838806 430.629237 C 651.207935 427.191574 656.656844 423.890393 662.177553 420.734225 C 667.698263 417.578058 673.290774 414.566904 678.955086 411.700762 C 684.619397 408.843151 690.339555 406.130553 696.123535 403.562968 C 701.907516 401.003914 707.755319 398.589872 713.65099 396.337904 C 719.546661 394.077405 725.4902 391.978981 731.481606 390.034099 C 737.473012 388.089217 743.512285 386.306409 749.58347 384.677144 C 755.662633 383.05641 761.76573 381.589218 767.908716 380.27557 C 774.051702 378.970452 780.218622 377.827408 786.417453 376.846437 C 792.608307 375.865466 798.823094 375.046568 805.053837 374.389744 C 811.28458 373.73292 817.531279 373.23817 823.785955 372.914023 C 830.040632 372.581346 836.303287 372.419272 842.565942 372.419272 C 848.828596 372.419272 855.083273 372.581346 861.33795 372.914023 C 867.592627 373.23817 873.839325 373.73292 880.070068 374.389744 C 886.300812 375.046568 892.515599 375.865466 898.71443 376.846437 C 904.905284 377.827408 911.072204 378.970452 917.21519 380.27557 C 923.358176 381.589218 929.46925 383.05641 935.540435 384.677144 C 941.619598 386.306409 947.650894 388.089217 953.642299 390.034099 C 959.633705 391.978981 965.577244 394.077405 971.480893 396.337904 C 977.376564 398.589872 983.21639 401.003914 989.00037 403.562968 C 994.784351 406.130553 1000.512486 408.843151 1006.16882 411.700762 C 1011.833132 414.566904 1017.425642 417.578058 1022.946352 420.734225 C 1028.467061 423.890393 1033.91597 427.191574 1039.293077 430.629237 C 1044.662207 434.075431 1049.951557 437.658107 1055.161128 441.377267 C 1060.362722 445.096426 1065.484536 448.952069 1070.510616 452.944194 C 1075.544673 456.92779 1080.475018 461.047868 1085.317606 465.295898 C 1090.160193 469.543929 1094.899068 473.919913 1099.542208 478.415319 C 1104.185349 482.910725 1108.716798 487.525554 1113.144535 492.268335 C 1117.572272 497.002587 1121.888318 501.84773 1126.092673 506.812296 C 1130.305006 511.768332 1134.389693 516.843791 1138.36269 522.021612 C 1142.335686 527.190902 1146.189013 532.471085 1149.914695 537.85363 C 1153.648354 543.227645 1157.254366 548.704022 1160.732732 554.274231 C 1164.211099 559.83591 1167.561818 565.491421 1170.784892 571.240764 C 1173.999987 576.981577 1177.087436 582.807692 1180.03926 588.710578 C 1182.991085 594.621994 1185.807285 600.601652 1188.479883 606.649552 C 1191.160458 612.705981 1193.697432 618.830652 1196.090803 625.015034 C 1198.492152 631.199417 1200.741921 637.44351 1202.856066 643.755845 C 1204.962232 650.05965 1206.924797 656.414636 1208.743759 662.820803 C 1210.562721 669.22697 1212.230103 675.684318 1213.753883 682.175787 C 1215.277662 688.675786 1216.649862 695.209906 1217.870481 701.778146 C 1219.0911 708.346386 1220.16014 714.940217 1221.077599 721.559639 C 1222.003035 728.187591 1222.768914 734.832603 1223.383213 741.494675 C 1223.997511 748.156748 1224.452252 754.835881 1224.76339 761.523544 C 1225.066551 768.211207 1225.226109 774.9074 1225.226109 781.603593 Z M 1225.226109 781.603593 " transform="matrix(0.489634,0,0,0.457933,-225.044702,-170.425798)"/></g></svg>