<svg xmlns="http://www.w3.org/2000/svg" xmlns:xlink="http://www.w3.org/1999/xlink" width="500" zoomAndPan="magnify" viewBox="0 0 375 374.999991" height="500" preserveAspectRatio="xMidYMid meet" version="1.2"><defs><clipPath id="4a4d0d9125"><path d="M 2 3 L 370.21875 3 L 370.21875 370.476562 L 2 370.476562 Z M 2 3 "/></clipPath><clipPath id="a10ccd79e8"><path d="M 127 232 L 231 232 L 231 370.476562 L 127 370.476562 Z M 127 232 "/></clipPath><clipPath id="374147d40f"><path d="M 162 240 L 189 240 L 189 370.476562 L 162 370.476562 Z M 162 240 "/></clipPath></defs><g id="a4e9e9b4b6"><rect x="0" width="375" y="0" height="374.999991" style="fill:#ffffff;fill-opacity:1;stroke:none;"/><rect x="0" width="375" y="0" height="374.999991" style="fill:#ffffff;fill-opacity:1;stroke:none;"/><g clip-rule="nonzero" clip-path="url(#4a4d0d9125)"><path style=" stroke:none;fill-rule:nonzero;fill:#076c85;fill-opacity:1;" d="M 370.003906 187.1875 C 370.003906 189.769531 369.949219 192.347656 369.839844 194.929688 C 369.730469 197.507812 369.566406 200.085938 369.351562 202.65625 C 369.132812 205.230469 368.859375 207.796875 368.535156 210.359375 C 368.207031 212.917969 367.828125 215.472656 367.394531 218.015625 C 366.960938 220.5625 366.472656 223.097656 365.929688 225.621094 C 365.390625 228.144531 364.792969 230.660156 364.148438 233.15625 C 363.5 235.65625 362.800781 238.140625 362.046875 240.613281 C 361.292969 243.082031 360.488281 245.535156 359.632812 247.972656 C 358.777344 250.40625 357.871094 252.824219 356.910156 255.222656 C 355.953125 257.621094 354.945312 259.996094 353.886719 262.351562 C 352.824219 264.707031 351.71875 267.039062 350.558594 269.347656 C 349.402344 271.65625 348.195312 273.9375 346.941406 276.195312 C 345.6875 278.453125 344.386719 280.683594 343.039062 282.886719 C 341.691406 285.085938 340.296875 287.261719 338.855469 289.40625 C 337.417969 291.546875 335.933594 293.660156 334.402344 295.742188 C 332.871094 297.824219 331.300781 299.871094 329.683594 301.886719 C 328.066406 303.898438 326.410156 305.878906 324.710938 307.824219 C 323.011719 309.769531 321.269531 311.675781 319.488281 313.546875 C 317.710938 315.417969 315.890625 317.253906 314.03125 319.046875 C 312.175781 320.839844 310.28125 322.597656 308.347656 324.3125 C 306.414062 326.023438 304.449219 327.699219 302.445312 329.328125 C 300.441406 330.960938 298.40625 332.550781 296.335938 334.09375 C 294.265625 335.640625 292.164062 337.140625 290.03125 338.597656 C 287.898438 340.054688 285.734375 341.46875 283.542969 342.832031 C 281.347656 344.199219 279.128906 345.515625 276.878906 346.789062 C 274.628906 348.0625 272.355469 349.285156 270.054688 350.460938 C 267.753906 351.636719 265.429688 352.761719 263.082031 353.839844 C 260.734375 354.917969 258.363281 355.945312 255.972656 356.925781 C 253.582031 357.902344 251.167969 358.828125 248.738281 359.703125 C 246.308594 360.582031 243.859375 361.40625 241.394531 362.175781 C 238.929688 362.949219 236.449219 363.671875 233.953125 364.339844 C 231.457031 365.007812 228.945312 365.621094 226.425781 366.183594 C 221.445312 367.316406 216.386719 368.222656 211.253906 368.902344 C 203.777344 369.917969 196.265625 370.464844 188.71875 370.535156 C 187.96875 370.5625 187.222656 370.5625 186.472656 370.5625 C 178.332031 370.566406 170.222656 370.03125 162.152344 368.960938 C 156.300781 368.199219 150.546875 367.15625 144.886719 365.832031 C 139 364.476562 133.195312 362.828125 127.472656 360.886719 C 124.824219 359.992188 122.199219 359.03125 119.597656 358.015625 C 116.992188 357 114.414062 355.921875 111.859375 354.789062 C 109.304688 353.652344 106.777344 352.460938 104.28125 351.210938 C 101.78125 349.960938 99.308594 348.652344 96.871094 347.289062 C 94.429688 345.925781 92.023438 344.507812 89.648438 343.035156 C 87.273438 341.5625 84.933594 340.035156 82.628906 338.457031 C 80.324219 336.875 78.054688 335.246094 75.824219 333.5625 C 73.59375 331.878906 71.402344 330.144531 69.25 328.363281 C 67.101562 326.578125 64.992188 324.746094 62.921875 322.867188 C 60.855469 320.988281 58.832031 319.0625 56.851562 317.089844 C 54.871094 315.117188 52.941406 313.101562 51.050781 311.042969 C 49.164062 308.980469 47.324219 306.878906 45.535156 304.734375 C 43.742188 302.589844 42 300.40625 40.308594 298.183594 C 38.617188 295.960938 36.980469 293.699219 35.390625 291.402344 C 33.804688 289.101562 32.269531 286.769531 30.789062 284.402344 C 29.304688 282.03125 27.878906 279.628906 26.507812 277.195312 C 25.136719 274.761719 23.820312 272.300781 22.5625 269.804688 C 21.304688 267.3125 20.101562 264.792969 18.960938 262.242188 C 17.816406 259.695312 16.730469 257.121094 15.707031 254.523438 C 14.679688 251.925781 13.714844 249.304688 12.808594 246.664062 C 11.902344 244.019531 11.054688 241.359375 10.269531 238.679688 C 9.488281 235.996094 8.765625 233.300781 8.101562 230.585938 C 7.441406 227.871094 6.84375 225.144531 6.308594 222.40625 C 5.769531 219.664062 5.296875 216.910156 4.886719 214.148438 C 4.476562 211.386719 4.128906 208.617188 3.84375 205.835938 C 3.5625 203.058594 3.339844 200.273438 3.183594 197.488281 C 3.027344 194.699219 2.933594 191.90625 2.90625 189.113281 C 2.878906 186.320312 2.914062 183.53125 3.011719 180.738281 C 3.109375 177.949219 3.273438 175.160156 3.5 172.375 C 3.722656 169.59375 4.015625 166.816406 4.367188 164.042969 C 4.71875 161.273438 5.136719 158.511719 5.617188 155.761719 C 6.09375 153.011719 6.636719 150.269531 7.242188 147.542969 C 7.847656 144.816406 8.511719 142.105469 9.242188 139.410156 C 9.96875 136.710938 10.761719 134.035156 11.609375 131.375 C 12.460938 128.714844 13.375 126.074219 14.34375 123.457031 C 15.316406 120.835938 16.347656 118.242188 17.4375 115.667969 C 18.53125 113.097656 19.679688 110.554688 20.886719 108.035156 C 22.089844 105.515625 23.355469 103.023438 24.675781 100.5625 C 25.996094 98.101562 27.375 95.671875 28.804688 93.273438 C 30.238281 90.875 31.722656 88.507812 33.261719 86.175781 C 34.800781 83.847656 36.394531 81.550781 38.039062 79.292969 C 39.683594 77.035156 41.378906 74.816406 43.125 72.636719 C 44.871094 70.453125 46.667969 68.316406 48.511719 66.214844 C 50.355469 64.117188 52.246094 62.0625 54.1875 60.050781 C 56.125 58.035156 58.109375 56.070312 60.136719 54.148438 C 62.164062 52.226562 64.234375 50.351562 66.347656 48.523438 C 68.460938 46.695312 70.617188 44.917969 72.8125 43.1875 C 75.007812 41.460938 77.242188 39.78125 79.511719 38.152344 C 81.785156 36.527344 84.09375 34.953125 86.4375 33.429688 C 88.78125 31.910156 91.15625 30.441406 93.570312 29.027344 C 95.980469 27.613281 98.421875 26.257812 100.894531 24.957031 C 103.367188 23.652344 105.871094 22.410156 108.398438 21.222656 C 110.929688 20.035156 113.484375 18.902344 116.066406 17.832031 C 118.648438 16.761719 121.253906 15.75 123.882812 14.800781 C 126.507812 13.847656 129.15625 12.957031 131.828125 12.125 C 134.496094 11.292969 137.179688 10.523438 139.886719 9.816406 C 142.589844 9.105469 145.308594 8.460938 148.039062 7.875 C 150.773438 7.289062 153.519531 6.769531 156.277344 6.308594 C 159.035156 5.851562 161.800781 5.453125 164.574219 5.121094 C 167.351562 4.789062 170.132812 4.519531 172.921875 4.3125 C 175.707031 4.109375 178.5 3.964844 181.292969 3.886719 C 184.085938 3.808594 186.882812 3.792969 189.675781 3.84375 C 192.472656 3.890625 195.265625 4.003906 198.054688 4.183594 C 200.84375 4.359375 203.628906 4.597656 206.40625 4.902344 C 209.183594 5.207031 211.957031 5.574219 214.71875 6.003906 C 217.480469 6.433594 220.230469 6.925781 222.96875 7.480469 C 225.707031 8.039062 228.433594 8.65625 231.144531 9.335938 C 233.855469 10.015625 236.550781 10.757812 239.226562 11.558594 C 241.90625 12.363281 244.5625 13.226562 247.199219 14.152344 C 249.839844 15.074219 252.453125 16.058594 255.046875 17.101562 C 257.640625 18.148438 260.207031 19.25 262.75 20.410156 C 265.289062 21.570312 267.804688 22.789062 270.292969 24.066406 C 272.777344 25.339844 275.234375 26.671875 277.660156 28.0625 C 280.085938 29.449219 282.480469 30.890625 284.839844 32.386719 C 287.199219 33.886719 289.523438 35.433594 291.8125 37.039062 C 294.101562 38.640625 296.351562 40.296875 298.566406 42.003906 C 300.777344 43.707031 302.953125 45.464844 305.085938 47.269531 C 307.21875 49.074219 309.308594 50.925781 311.355469 52.828125 C 313.40625 54.726562 315.410156 56.675781 317.367188 58.667969 C 319.328125 60.660156 321.238281 62.695312 323.105469 64.773438 C 324.972656 66.851562 326.789062 68.972656 328.558594 71.136719 C 330.328125 73.296875 332.046875 75.5 333.714844 77.742188 C 335.382812 79.980469 337 82.257812 338.566406 84.574219 C 340.128906 86.886719 341.640625 89.238281 343.097656 91.621094 C 344.554688 94.003906 345.957031 96.417969 347.300781 98.867188 C 348.648438 101.316406 349.9375 103.792969 351.171875 106.296875 C 352.40625 108.804688 353.582031 111.339844 354.699219 113.898438 C 355.816406 116.457031 356.875 119.042969 357.875 121.652344 C 358.871094 124.257812 359.8125 126.890625 360.691406 129.539062 C 361.570312 132.191406 362.386719 134.859375 363.144531 137.550781 C 363.902344 140.238281 364.597656 142.941406 365.230469 145.664062 C 365.863281 148.382812 366.433594 151.117188 366.941406 153.863281 C 367.449219 156.609375 367.894531 159.367188 368.277344 162.132812 C 368.660156 164.898438 368.980469 167.671875 369.234375 170.453125 C 369.492188 173.234375 369.683594 176.023438 369.8125 178.8125 C 369.9375 181.601562 370.003906 184.394531 370.003906 187.1875 Z M 370.003906 187.1875 "/></g><g clip-rule="nonzero" clip-path="url(#a10ccd79e8)"><path style=" stroke:none;fill-rule:nonzero;fill:#b8ccd1;fill-opacity:1;" d="M 230.734375 284.285156 C 230.703125 285.765625 227.839844 339.558594 226.425781 366.179688 C 221.445312 367.3125 216.386719 368.21875 211.253906 368.898438 C 203.777344 369.914062 196.265625 370.460938 188.71875 370.53125 C 187.96875 370.558594 187.222656 370.558594 186.472656 370.558594 C 178.332031 370.5625 170.222656 370.027344 162.152344 368.957031 C 156.300781 368.195312 150.546875 367.152344 144.886719 365.828125 C 139 364.472656 133.195312 362.824219 127.472656 360.882812 L 127.472656 287.839844 L 155.703125 244.382812 L 158.714844 239.757812 L 158.835938 239.710938 L 172.144531 234.855469 L 176.636719 233.203125 L 176.648438 233.203125 L 191.773438 232.976562 L 198.179688 232.867188 L 224.050781 232.476562 C 224.050781 232.476562 224.3125 234.371094 224.710938 237.429688 C 226.40625 250.058594 230.765625 282.695312 230.734375 284.285156 Z M 230.734375 284.285156 "/></g><g clip-rule="nonzero" clip-path="url(#374147d40f)"><path style=" stroke:none;fill-rule:nonzero;fill:#074453;fill-opacity:1;" d="M 170.0625 250.441406 L 170.246094 247.589844 L 169.957031 240.703125 L 178.59375 240.6875 C 178.625 240.703125 178.65625 240.703125 178.6875 240.6875 C 178.6875 240.6875 178.6875 240.703125 178.703125 240.6875 L 188.050781 245.710938 L 188.082031 252.730469 L 188.722656 370.53125 C 187.976562 370.558594 187.226562 370.558594 186.476562 370.558594 C 178.335938 370.558594 170.226562 370.023438 162.15625 368.957031 Z M 170.0625 250.441406 "/></g><path style=" stroke:none;fill-rule:nonzero;fill:#074453;fill-opacity:1;" d="M 159.25 237.863281 C 159.109375 238.484375 158.972656 239.085938 158.835938 239.710938 C 157.933594 243.726562 157.078125 247.847656 156.300781 252.046875 C 148.523438 293.230469 145.820312 341.007812 144.886719 365.828125 C 139 364.472656 133.195312 362.824219 127.472656 360.882812 C 115.652344 356.867188 104.359375 351.699219 93.59375 345.382812 C 82.828125 339.0625 72.8125 331.722656 63.546875 323.363281 C 67.503906 305.183594 74.058594 284.007812 84.496094 270.898438 C 102.996094 247.632812 145.757812 239.863281 156.667969 238.230469 C 158.332031 237.972656 159.25 237.863281 159.25 237.863281 Z M 159.25 237.863281 "/><path style=" stroke:none;fill-rule:nonzero;fill:#074453;fill-opacity:1;" d="M 327.78125 304.21875 C 324.5625 308.101562 321.191406 311.84375 317.664062 315.449219 C 314.136719 319.054688 310.46875 322.503906 306.65625 325.808594 C 302.84375 329.109375 298.902344 332.246094 294.832031 335.222656 C 290.757812 338.199219 286.570312 341.003906 282.269531 343.632812 C 277.964844 346.265625 273.5625 348.710938 269.054688 350.980469 C 264.550781 353.246094 259.960938 355.324219 255.28125 357.214844 C 250.605469 359.101562 245.859375 360.792969 241.039062 362.292969 C 236.222656 363.789062 231.351562 365.085938 226.429688 366.179688 C 221.449219 367.3125 216.390625 368.21875 211.257812 368.898438 C 207.4375 345.433594 204.121094 299.105469 221.464844 240.824219 C 222.273438 238.0625 223.140625 235.28125 224.0625 232.476562 C 224.0625 232.476562 225.453125 232.683594 227.894531 233.148438 C 241.402344 235.667969 287.125 245.816406 308.835938 270.5 C 317.113281 279.933594 323.269531 292.085938 327.78125 304.21875 Z M 327.78125 304.21875 "/><path style=" stroke:none;fill-rule:nonzero;fill:#ffffff;fill-opacity:1;" d="M 171.132812 219.734375 C 155.757812 224.460938 152.800781 250.460938 157.976562 255.1875 C 163.152344 259.917969 178.703125 242.144531 178.6875 240.6875 C 178.675781 239.234375 174.535156 226.675781 174.535156 226.675781 Z M 171.132812 219.734375 "/><path style=" stroke:none;fill-rule:nonzero;fill:#074453;fill-opacity:1;" d="M 133.660156 126.558594 C 111.402344 122.035156 99.140625 102.816406 98.945312 89.617188 C 98.753906 76.421875 124.597656 83.023438 124.597656 83.023438 C 124.597656 83.023438 111.207031 67.953125 119.695312 58.707031 C 128.183594 49.464844 144.027344 68.699219 164.589844 69.445312 C 185.152344 70.191406 205.839844 59.265625 230.015625 70.386719 C 254.195312 81.503906 243.820312 111.46875 243.820312 111.46875 C 243.820312 111.46875 257.398438 110.90625 258.53125 131.449219 C 259.664062 151.992188 238.09375 182.527344 230.019531 193.457031 C 221.941406 204.390625 192.851562 206.289062 186.363281 188.757812 Z M 133.660156 126.558594 "/><path style=" stroke:none;fill-rule:nonzero;fill:#e26664;fill-opacity:1;" d="M 162.558594 205.3125 C 169.457031 221.855469 170.445312 234.265625 174.386719 238.992188 C 178.328125 243.71875 191.933594 238.007812 202.578125 229.734375 C 213.222656 221.460938 216.175781 219.097656 214.40625 209.644531 C 212.632812 200.191406 208.6875 189.355469 209.671875 179.113281 Z M 162.558594 205.3125 "/><path style=" stroke:none;fill-rule:nonzero;fill:#ffb5ab;fill-opacity:1;" d="M 125.8125 103.566406 C 142.433594 129.234375 210.75 127.269531 210.75 127.269531 C 210.75 127.269531 213.929688 156.875 216.894531 156.929688 C 219.855469 156.980469 220.320312 134.941406 237.453125 138.671875 C 254.582031 142.40625 252.191406 164.355469 242.546875 172.5 C 232.898438 180.644531 220.605469 172.523438 220.605469 172.523438 C 220.605469 172.523438 207.0625 216.78125 167.953125 215.414062 C 136.984375 214.335938 125.628906 194.644531 124.789062 166.691406 C 123.980469 139.925781 125.8125 103.566406 125.8125 103.566406 Z M 125.8125 103.566406 "/><path style=" stroke:none;fill-rule:nonzero;fill:#ffffff;fill-opacity:1;" d="M 213.644531 206.011719 C 214.898438 225.9375 177.519531 239.042969 178.6875 240.695312 C 179.859375 242.347656 192.277344 260.808594 197.894531 258.738281 C 203.511719 256.671875 226.738281 238.507812 228.578125 231.558594 C 230.421875 224.609375 213.644531 206.011719 213.644531 206.011719 Z M 213.644531 206.011719 "/></g></svg>