<svg xmlns="http://www.w3.org/2000/svg" xmlns:xlink="http://www.w3.org/1999/xlink" width="500" zoomAndPan="magnify" viewBox="0 0 375 374.999991" height="500" preserveAspectRatio="xMidYMid meet" version="1.2"><defs><clipPath id="426b7370cd"><path d="M 0 5.453125 L 364.5 5.453125 L 364.5 370 L 0 370 Z M 0 5.453125 "/></clipPath><clipPath id="579994dfb6"><path d="M 364.355469 187.59375 C 364.355469 190.574219 364.28125 193.550781 364.132812 196.523438 C 363.988281 199.5 363.769531 202.46875 363.476562 205.429688 C 363.183594 208.394531 362.820312 211.351562 362.382812 214.296875 C 361.945312 217.242188 361.433594 220.175781 360.855469 223.097656 C 360.273438 226.015625 359.617188 228.921875 358.894531 231.8125 C 358.171875 234.699219 357.375 237.570312 356.507812 240.417969 C 355.644531 243.269531 354.710938 246.097656 353.703125 248.898438 C 352.699219 251.703125 351.628906 254.480469 350.488281 257.234375 C 349.347656 259.984375 348.136719 262.707031 346.863281 265.398438 C 345.589844 268.089844 344.25 270.75 342.84375 273.375 C 341.4375 276.003906 339.96875 278.59375 338.4375 281.148438 C 336.902344 283.703125 335.308594 286.21875 333.652344 288.695312 C 331.996094 291.171875 330.277344 293.605469 328.503906 295.996094 C 326.726562 298.386719 324.894531 300.734375 323 303.039062 C 321.109375 305.339844 319.164062 307.59375 317.160156 309.800781 C 315.160156 312.007812 313.105469 314.164062 310.996094 316.269531 C 308.886719 318.375 306.730469 320.429688 304.519531 322.429688 C 302.3125 324.429688 300.054688 326.371094 297.75 328.261719 C 295.445312 330.152344 293.09375 331.984375 290.699219 333.757812 C 288.304688 335.53125 285.867188 337.246094 283.390625 338.898438 C 280.910156 340.554688 278.390625 342.148438 275.835938 343.679688 C 273.277344 345.210938 270.683594 346.675781 268.054688 348.082031 C 265.425781 349.484375 262.761719 350.824219 260.066406 352.097656 C 257.371094 353.371094 254.648438 354.578125 251.894531 355.714844 C 249.140625 356.855469 246.359375 357.925781 243.550781 358.929688 C 240.742188 359.933594 237.914062 360.867188 235.058594 361.734375 C 232.207031 362.597656 229.335938 363.390625 226.441406 364.113281 C 223.550781 364.839844 220.640625 365.492188 217.71875 366.070312 C 214.792969 366.652344 211.855469 367.160156 208.90625 367.597656 C 205.957031 368.035156 203 368.398438 200.035156 368.691406 C 197.066406 368.984375 194.09375 369.203125 191.117188 369.347656 C 188.136719 369.496094 185.160156 369.566406 182.175781 369.566406 C 179.195312 369.566406 176.214844 369.496094 173.238281 369.347656 C 170.261719 369.203125 167.289062 368.984375 164.320312 368.691406 C 161.355469 368.398438 158.394531 368.035156 155.445312 367.597656 C 152.496094 367.160156 149.558594 366.652344 146.636719 366.070312 C 143.710938 365.492188 140.804688 364.839844 137.910156 364.113281 C 135.019531 363.390625 132.148438 362.597656 129.292969 361.734375 C 126.441406 360.867188 123.609375 359.933594 120.804688 358.929688 C 117.996094 357.925781 115.214844 356.855469 112.460938 355.714844 C 109.707031 354.578125 106.980469 353.371094 104.285156 352.097656 C 101.589844 350.824219 98.929688 349.484375 96.300781 348.082031 C 93.671875 346.675781 91.078125 345.210938 88.519531 343.679688 C 85.960938 342.148438 83.445312 340.554688 80.964844 338.898438 C 78.484375 337.246094 76.050781 335.53125 73.65625 333.757812 C 71.257812 331.984375 68.910156 330.152344 66.605469 328.261719 C 64.300781 326.371094 62.042969 324.429688 59.835938 322.429688 C 57.625 320.429688 55.464844 318.375 53.359375 316.269531 C 51.25 314.164062 49.195312 312.007812 47.191406 309.800781 C 45.191406 307.59375 43.242188 305.339844 41.351562 303.039062 C 39.460938 300.734375 37.628906 298.386719 35.851562 295.996094 C 34.074219 293.605469 32.359375 291.171875 30.703125 288.695312 C 29.046875 286.21875 27.453125 283.703125 25.917969 281.148438 C 24.386719 278.59375 22.917969 276.003906 21.511719 273.375 C 20.105469 270.75 18.765625 268.089844 17.492188 265.398438 C 16.214844 262.707031 15.007812 259.984375 13.867188 257.234375 C 12.726562 254.480469 11.652344 251.703125 10.648438 248.898438 C 9.644531 246.097656 8.710938 243.269531 7.84375 240.417969 C 6.980469 237.570312 6.183594 234.699219 5.460938 231.8125 C 4.734375 228.921875 4.082031 226.015625 3.5 223.097656 C 2.917969 220.175781 2.410156 217.242188 1.972656 214.296875 C 1.535156 211.351562 1.167969 208.394531 0.878906 205.429688 C 0.585938 202.46875 0.367188 199.5 0.21875 196.523438 C 0.0742188 193.550781 0 190.574219 0 187.59375 C 0 184.617188 0.0742188 181.640625 0.21875 178.664062 C 0.367188 175.691406 0.585938 172.722656 0.878906 169.757812 C 1.167969 166.792969 1.535156 163.839844 1.972656 160.894531 C 2.410156 157.949219 2.917969 155.015625 3.5 152.09375 C 4.082031 149.171875 4.734375 146.269531 5.460938 143.378906 C 6.183594 140.488281 6.980469 137.621094 7.84375 134.769531 C 8.710938 131.921875 9.644531 129.09375 10.648438 126.289062 C 11.652344 123.484375 12.726562 120.707031 13.867188 117.957031 C 15.007812 115.207031 16.214844 112.484375 17.492188 109.792969 C 18.765625 107.097656 20.105469 104.441406 21.511719 101.8125 C 22.917969 99.1875 24.386719 96.597656 25.917969 94.042969 C 27.453125 91.488281 29.046875 88.972656 30.703125 86.496094 C 32.359375 84.019531 34.074219 81.585938 35.851562 79.191406 C 37.628906 76.800781 39.460938 74.453125 41.351562 72.152344 C 43.242188 69.851562 45.191406 67.59375 47.191406 65.390625 C 49.195312 63.183594 51.25 61.027344 53.359375 58.921875 C 55.464844 56.8125 57.625 54.761719 59.835938 52.761719 C 62.042969 50.761719 64.300781 48.816406 66.605469 46.925781 C 68.910156 45.039062 71.257812 43.207031 73.65625 41.433594 C 76.050781 39.660156 78.484375 37.945312 80.964844 36.289062 C 83.445312 34.636719 85.960938 33.042969 88.519531 31.511719 C 91.078125 29.980469 93.671875 28.511719 96.300781 27.109375 C 98.929688 25.703125 101.589844 24.367188 104.285156 23.09375 C 106.980469 21.820312 109.707031 20.613281 112.460938 19.472656 C 115.214844 18.332031 117.996094 17.261719 120.804688 16.257812 C 123.609375 15.253906 126.441406 14.320312 129.292969 13.457031 C 132.148438 12.59375 135.019531 11.796875 137.910156 11.074219 C 140.804688 10.351562 143.710938 9.699219 146.636719 9.117188 C 149.558594 8.535156 152.496094 8.027344 155.445312 7.589844 C 158.394531 7.152344 161.355469 6.789062 164.320312 6.496094 C 167.289062 6.207031 170.261719 5.988281 173.238281 5.839844 C 176.214844 5.695312 179.195312 5.621094 182.175781 5.621094 C 185.160156 5.613281 188.144531 5.675781 191.125 5.8125 C 194.105469 5.949219 197.082031 6.160156 200.050781 6.441406 C 203.023438 6.726562 205.984375 7.082031 208.9375 7.511719 C 211.890625 7.941406 214.832031 8.445312 217.761719 9.019531 C 220.6875 9.59375 223.601562 10.238281 226.496094 10.957031 C 229.394531 11.675781 232.269531 12.460938 235.128906 13.320312 C 237.984375 14.179688 240.820312 15.109375 243.632812 16.109375 C 246.441406 17.109375 249.226562 18.175781 251.988281 19.3125 C 254.746094 20.449219 257.476562 21.652344 260.175781 22.921875 C 262.875 24.191406 265.539062 25.527344 268.175781 26.929688 C 270.808594 28.332031 273.40625 29.796875 275.964844 31.328125 C 278.527344 32.859375 281.050781 34.449219 283.53125 36.105469 C 286.015625 37.757812 288.453125 39.472656 290.851562 41.246094 C 293.25 43.019531 295.601562 44.851562 297.910156 46.742188 C 300.21875 48.632812 302.476562 50.578125 304.691406 52.582031 C 306.902344 54.582031 309.0625 56.636719 311.171875 58.742188 C 313.28125 60.851562 315.339844 63.011719 317.34375 65.21875 C 319.347656 67.429688 321.292969 69.683594 323.1875 71.988281 C 325.078125 74.296875 326.914062 76.644531 328.6875 79.039062 C 330.464844 81.4375 332.179688 83.875 333.835938 86.351562 C 335.492188 88.832031 337.085938 91.351562 338.617188 93.910156 C 340.148438 96.46875 341.617188 99.0625 343.019531 101.695312 C 344.425781 104.324219 345.761719 106.988281 347.035156 109.683594 C 348.304688 112.382812 349.511719 115.105469 350.648438 117.863281 C 351.785156 120.617188 352.855469 123.402344 353.855469 126.210938 C 354.855469 129.019531 355.785156 131.847656 356.644531 134.703125 C 357.503906 137.558594 358.292969 140.429688 359.011719 143.324219 C 359.730469 146.21875 360.378906 149.125 360.953125 152.050781 C 361.527344 154.976562 362.03125 157.914062 362.460938 160.863281 C 362.890625 163.8125 363.246094 166.773438 363.53125 169.738281 C 363.816406 172.707031 364.027344 175.679688 364.164062 178.65625 C 364.300781 181.632812 364.363281 184.613281 364.355469 187.59375 Z M 364.355469 187.59375 "/></clipPath><linearGradient x1="117.3109" gradientTransform="matrix(1.457417,0,0,1.455788,0.0000045,5.62134)" y1="-6.847904" x2="132.688272" gradientUnits="userSpaceOnUse" y2="256.841553" id="a07d5ee29e"><stop style="stop-color:#6b9de2;stop-opacity:1;" offset="0"/><stop style="stop-color:#6b9de2;stop-opacity:1;" offset="0.0551028"/><stop style="stop-color:#6b9de2;stop-opacity:1;" offset="0.0625"/><stop style="stop-color:#6b9de2;stop-opacity:1;" offset="0.09375"/><stop style="stop-color:#6b9ce2;stop-opacity:1;" offset="0.125"/><stop style="stop-color:#6a9be2;stop-opacity:1;" offset="0.15625"/><stop style="stop-color:#6a9ae1;stop-opacity:1;" offset="0.1875"/><stop style="stop-color:#6a99e1;stop-opacity:1;" offset="0.21875"/><stop style="stop-color:#6a99e1;stop-opacity:1;" offset="0.25"/><stop style="stop-color:#6998e1;stop-opacity:1;" offset="0.28125"/><stop style="stop-color:#6997e0;stop-opacity:1;" offset="0.3125"/><stop style="stop-color:#6996e0;stop-opacity:1;" offset="0.34375"/><stop style="stop-color:#6895e0;stop-opacity:1;" offset="0.375"/><stop style="stop-color:#6894e0;stop-opacity:1;" offset="0.40625"/><stop style="stop-color:#6893df;stop-opacity:1;" offset="0.4375"/><stop style="stop-color:#6792df;stop-opacity:1;" offset="0.46875"/><stop style="stop-color:#6791df;stop-opacity:1;" offset="0.5"/><stop style="stop-color:#6790df;stop-opacity:1;" offset="0.53125"/><stop style="stop-color:#668fdf;stop-opacity:1;" offset="0.5625"/><stop style="stop-color:#668ede;stop-opacity:1;" offset="0.59375"/><stop style="stop-color:#668dde;stop-opacity:1;" offset="0.625"/><stop style="stop-color:#658cde;stop-opacity:1;" offset="0.65625"/><stop style="stop-color:#658bde;stop-opacity:1;" offset="0.6875"/><stop style="stop-color:#658bdd;stop-opacity:1;" offset="0.71875"/><stop style="stop-color:#648add;stop-opacity:1;" offset="0.75"/><stop style="stop-color:#6489dd;stop-opacity:1;" offset="0.78125"/><stop style="stop-color:#6488dd;stop-opacity:1;" offset="0.8125"/><stop style="stop-color:#6387dd;stop-opacity:1;" offset="0.84375"/><stop style="stop-color:#6386dc;stop-opacity:1;" offset="0.875"/><stop style="stop-color:#6385dc;stop-opacity:1;" offset="0.90625"/><stop style="stop-color:#6284dc;stop-opacity:1;" offset="0.9375"/><stop style="stop-color:#6283dc;stop-opacity:1;" offset="0.944897"/><stop style="stop-color:#6283dc;stop-opacity:1;" offset="0.96875"/><stop style="stop-color:#6282db;stop-opacity:1;" offset="1"/></linearGradient><clipPath id="e36b2656c1"><path d="M 84 99 L 278 99 L 278 304 L 84 304 Z M 84 99 "/></clipPath><clipPath id="a902cee0f9"><path d="M 120.863281 126.09375 C 87.878906 138.960938 72.933594 194.304688 96.644531 220.300781 C 120.351562 246.296875 72.933594 263.539062 87.621094 286.195312 C 102.3125 308.851562 137.355469 306.015625 200.75 295.460938 C 264.140625 284.910156 269.035156 309.875 276.25 280.789062 C 283.46875 251.707031 253.832031 236.507812 255.121094 203.316406 C 256.410156 170.125 247.648438 97.527344 188.378906 99.070312 C 129.109375 100.613281 123.441406 110.390625 120.863281 126.09375 Z M 120.863281 126.09375 "/></clipPath><linearGradient x1="109.454094" gradientTransform="matrix(1.457417,0,0,1.455788,0.0000045,5.62134)" y1="56.267725" x2="127.985381" gradientUnits="userSpaceOnUse" y2="216.679001" id="ade167b6aa"><stop style="stop-color:#45327c;stop-opacity:1;" offset="0"/><stop style="stop-color:#45337c;stop-opacity:1;" offset="0.03125"/><stop style="stop-color:#46337d;stop-opacity:1;" offset="0.0625"/><stop style="stop-color:#47347d;stop-opacity:1;" offset="0.09375"/><stop style="stop-color:#48357d;stop-opacity:1;" offset="0.102663"/><stop style="stop-color:#48357d;stop-opacity:1;" offset="0.125"/><stop style="stop-color:#49357e;stop-opacity:1;" offset="0.15625"/><stop style="stop-color:#49367e;stop-opacity:1;" offset="0.1875"/><stop style="stop-color:#4a377e;stop-opacity:1;" offset="0.21875"/><stop style="stop-color:#4b387f;stop-opacity:1;" offset="0.25"/><stop style="stop-color:#4c387f;stop-opacity:1;" offset="0.28125"/><stop style="stop-color:#4d397f;stop-opacity:1;" offset="0.3125"/><stop style="stop-color:#4d3a80;stop-opacity:1;" offset="0.34375"/><stop style="stop-color:#4e3a80;stop-opacity:1;" offset="0.375"/><stop style="stop-color:#4f3b81;stop-opacity:1;" offset="0.40625"/><stop style="stop-color:#503c81;stop-opacity:1;" offset="0.4375"/><stop style="stop-color:#513d81;stop-opacity:1;" offset="0.46875"/><stop style="stop-color:#523d82;stop-opacity:1;" offset="0.5"/><stop style="stop-color:#523e82;stop-opacity:1;" offset="0.53125"/><stop style="stop-color:#533f82;stop-opacity:1;" offset="0.5625"/><stop style="stop-color:#543f83;stop-opacity:1;" offset="0.59375"/><stop style="stop-color:#554083;stop-opacity:1;" offset="0.625"/><stop style="stop-color:#564183;stop-opacity:1;" offset="0.65625"/><stop style="stop-color:#564284;stop-opacity:1;" offset="0.6875"/><stop style="stop-color:#574284;stop-opacity:1;" offset="0.71875"/><stop style="stop-color:#584384;stop-opacity:1;" offset="0.75"/><stop style="stop-color:#594485;stop-opacity:1;" offset="0.78125"/><stop style="stop-color:#5a4485;stop-opacity:1;" offset="0.8125"/><stop style="stop-color:#5a4586;stop-opacity:1;" offset="0.84375"/><stop style="stop-color:#5b4686;stop-opacity:1;" offset="0.875"/><stop style="stop-color:#5c4786;stop-opacity:1;" offset="0.897337"/><stop style="stop-color:#5d4786;stop-opacity:1;" offset="0.90625"/><stop style="stop-color:#5d4787;stop-opacity:1;" offset="0.9375"/><stop style="stop-color:#5e4887;stop-opacity:1;" offset="0.96875"/><stop style="stop-color:#5f4987;stop-opacity:1;" offset="1"/></linearGradient><clipPath id="3fdd69f170"><path d="M 148 198 L 205 198 L 205 291 L 148 291 Z M 148 198 "/></clipPath><clipPath id="7097b75bf9"><path d="M 204.878906 198.296875 C 203.914062 220.253906 205.132812 256.191406 203.789062 268.53125 C 202.445312 280.871094 188.46875 291.898438 173.863281 290.777344 C 159.257812 289.660156 152.558594 270.726562 153.332031 264.121094 C 154.101562 257.511719 148.8125 203.804688 148.8125 203.804688 Z M 204.878906 198.296875 "/></clipPath><linearGradient x1="126.808607" gradientTransform="matrix(1.457417,0,0,1.455788,0.0000045,5.62134)" y1="197.942503" x2="120.554557" gradientUnits="userSpaceOnUse" y2="130.636837" id="7f9bd0aa43"><stop style="stop-color:#ffb1b4;stop-opacity:1;" offset="0"/><stop style="stop-color:#ffb0b4;stop-opacity:1;" offset="0.03125"/><stop style="stop-color:#ffb0b3;stop-opacity:1;" offset="0.052894"/><stop style="stop-color:#ffafb3;stop-opacity:1;" offset="0.0625"/><stop style="stop-color:#ffafb3;stop-opacity:1;" offset="0.09375"/><stop style="stop-color:#ffaeb2;stop-opacity:1;" offset="0.125"/><stop style="stop-color:#ffaeb2;stop-opacity:1;" offset="0.15625"/><stop style="stop-color:#ffadb1;stop-opacity:1;" offset="0.1875"/><stop style="stop-color:#ffadb1;stop-opacity:1;" offset="0.21875"/><stop style="stop-color:#ffacb0;stop-opacity:1;" offset="0.25"/><stop style="stop-color:#ffabb0;stop-opacity:1;" offset="0.28125"/><stop style="stop-color:#ffabaf;stop-opacity:1;" offset="0.3125"/><stop style="stop-color:#ffaaaf;stop-opacity:1;" offset="0.34375"/><stop style="stop-color:#ffa9ae;stop-opacity:1;" offset="0.375"/><stop style="stop-color:#ffa9ae;stop-opacity:1;" offset="0.40625"/><stop style="stop-color:#ffa8ae;stop-opacity:1;" offset="0.4375"/><stop style="stop-color:#ffa7ad;stop-opacity:1;" offset="0.46875"/><stop style="stop-color:#ffa7ad;stop-opacity:1;" offset="0.5"/><stop style="stop-color:#ffa6ac;stop-opacity:1;" offset="0.53125"/><stop style="stop-color:#ffa6ac;stop-opacity:1;" offset="0.5625"/><stop style="stop-color:#ffa5ab;stop-opacity:1;" offset="0.59375"/><stop style="stop-color:#ffa4ab;stop-opacity:1;" offset="0.625"/><stop style="stop-color:#ffa4aa;stop-opacity:1;" offset="0.65625"/><stop style="stop-color:#ffa3aa;stop-opacity:1;" offset="0.6875"/><stop style="stop-color:#ffa2a9;stop-opacity:1;" offset="0.71875"/><stop style="stop-color:#ffa2a9;stop-opacity:1;" offset="0.75"/><stop style="stop-color:#ffa1a8;stop-opacity:1;" offset="0.78125"/><stop style="stop-color:#ffa0a8;stop-opacity:1;" offset="0.8125"/><stop style="stop-color:#ffa0a7;stop-opacity:1;" offset="0.84375"/><stop style="stop-color:#ff9fa7;stop-opacity:1;" offset="0.875"/><stop style="stop-color:#ff9ea6;stop-opacity:1;" offset="0.90625"/><stop style="stop-color:#ff9ea6;stop-opacity:1;" offset="0.9375"/><stop style="stop-color:#ff9da5;stop-opacity:1;" offset="0.947106"/><stop style="stop-color:#ff9da5;stop-opacity:1;" offset="0.96875"/><stop style="stop-color:#ff9da5;stop-opacity:1;" offset="1"/></linearGradient><clipPath id="7a15ef10ad"><path d="M 122 133 L 243 133 L 243 249 L 122 249 Z M 122 133 "/></clipPath><clipPath id="a0606052f8"><path d="M 125.746094 133.480469 C 125.746094 133.480469 120.160156 185.015625 123.882812 215.03125 C 129.378906 259.339844 183.421875 260.675781 213.3125 212.800781 C 224.164062 219.597656 245.390625 202.8125 242.597656 187.339844 C 239.804688 171.863281 221.980469 177.535156 218.988281 182.558594 C 216.597656 187.019531 214.570312 191.640625 212.898438 196.417969 C 212.898438 196.417969 214.867188 175.703125 210.613281 169.59375 C 206.355469 163.480469 139.191406 173.277344 125.746094 133.480469 Z M 125.746094 133.480469 "/></clipPath><linearGradient x1="120.953094" gradientTransform="matrix(1.457417,0,0,1.455788,0.0000045,5.62134)" y1="178.162942" x2="128.140067" gradientUnits="userSpaceOnUse" y2="84.733123" id="14d3707526"><stop style="stop-color:#ffc7c5;stop-opacity:1;" offset="0"/><stop style="stop-color:#ffc7c4;stop-opacity:1;" offset="0.03125"/><stop style="stop-color:#ffc6c4;stop-opacity:1;" offset="0.0625"/><stop style="stop-color:#ffc6c4;stop-opacity:1;" offset="0.0703286"/><stop style="stop-color:#ffc5c3;stop-opacity:1;" offset="0.09375"/><stop style="stop-color:#ffc5c3;stop-opacity:1;" offset="0.125"/><stop style="stop-color:#ffc4c3;stop-opacity:1;" offset="0.15625"/><stop style="stop-color:#ffc4c2;stop-opacity:1;" offset="0.1875"/><stop style="stop-color:#ffc3c2;stop-opacity:1;" offset="0.21875"/><stop style="stop-color:#ffc3c2;stop-opacity:1;" offset="0.25"/><stop style="stop-color:#ffc2c1;stop-opacity:1;" offset="0.28125"/><stop style="stop-color:#ffc2c1;stop-opacity:1;" offset="0.3125"/><stop style="stop-color:#ffc1c0;stop-opacity:1;" offset="0.34375"/><stop style="stop-color:#ffc1c0;stop-opacity:1;" offset="0.375"/><stop style="stop-color:#ffc0c0;stop-opacity:1;" offset="0.40625"/><stop style="stop-color:#ffc0bf;stop-opacity:1;" offset="0.4375"/><stop style="stop-color:#ffbfbf;stop-opacity:1;" offset="0.46875"/><stop style="stop-color:#ffbfbe;stop-opacity:1;" offset="0.5"/><stop style="stop-color:#ffbebe;stop-opacity:1;" offset="0.53125"/><stop style="stop-color:#ffbebe;stop-opacity:1;" offset="0.5625"/><stop style="stop-color:#ffbdbd;stop-opacity:1;" offset="0.59375"/><stop style="stop-color:#ffbdbd;stop-opacity:1;" offset="0.625"/><stop style="stop-color:#ffbcbd;stop-opacity:1;" offset="0.65625"/><stop style="stop-color:#ffbcbc;stop-opacity:1;" offset="0.6875"/><stop style="stop-color:#ffbbbc;stop-opacity:1;" offset="0.71875"/><stop style="stop-color:#ffbbbb;stop-opacity:1;" offset="0.75"/><stop style="stop-color:#ffbabb;stop-opacity:1;" offset="0.78125"/><stop style="stop-color:#ffbabb;stop-opacity:1;" offset="0.8125"/><stop style="stop-color:#ffb9ba;stop-opacity:1;" offset="0.84375"/><stop style="stop-color:#ffb9ba;stop-opacity:1;" offset="0.875"/><stop style="stop-color:#ffb8b9;stop-opacity:1;" offset="0.90625"/><stop style="stop-color:#ffb8b9;stop-opacity:1;" offset="0.929671"/><stop style="stop-color:#ffb7b9;stop-opacity:1;" offset="0.9375"/><stop style="stop-color:#ffb7b9;stop-opacity:1;" offset="0.96875"/><stop style="stop-color:#ffb6b8;stop-opacity:1;" offset="1"/></linearGradient></defs><g id="b2cf9393e7"><rect x="0" width="375" y="0" height="374.999991" style="fill:#ffffff;fill-opacity:1;stroke:none;"/><rect x="0" width="375" y="0" height="374.999991" style="fill:#ffffff;fill-opacity:1;stroke:none;"/><g clip-rule="nonzero" clip-path="url(#426b7370cd)"><g clip-rule="nonzero" clip-path="url(#579994dfb6)"><path style=" stroke:none;fill-rule:nonzero;fill:url(#a07d5ee29e);" d="M 0 5.613281 L 0 369.566406 L 364.363281 369.566406 L 364.363281 5.613281 Z M 0 5.613281 "/></g></g><g clip-rule="nonzero" clip-path="url(#e36b2656c1)"><g clip-rule="nonzero" clip-path="url(#a902cee0f9)"><path style=" stroke:none;fill-rule:nonzero;fill:url(#ade167b6aa);" d="M 72.933594 97.527344 L 72.933594 309.875 L 283.46875 309.875 L 283.46875 97.527344 Z M 72.933594 97.527344 "/></g></g><path style=" stroke:none;fill-rule:nonzero;fill:#ffffff;fill-opacity:1;" d="M 306.550781 320.53125 C 304.429688 322.511719 302.261719 324.441406 300.046875 326.320312 C 297.832031 328.199219 295.574219 330.023438 293.273438 331.792969 C 290.972656 333.5625 288.628906 335.273438 286.246094 336.933594 C 283.863281 338.589844 281.441406 340.191406 278.984375 341.734375 C 276.523438 343.277344 274.027344 344.757812 271.496094 346.179688 C 268.964844 347.605469 266.402344 348.964844 263.804688 350.265625 C 261.210938 351.566406 258.582031 352.804688 255.929688 353.980469 C 253.273438 355.152344 250.589844 356.265625 247.882812 357.3125 C 245.171875 358.359375 242.441406 359.339844 239.683594 360.257812 C 236.929688 361.171875 234.152344 362.023438 231.355469 362.804688 C 228.5625 363.589844 225.746094 364.304688 222.917969 364.957031 C 220.085938 365.605469 217.242188 366.183594 214.382812 366.699219 C 211.523438 367.210938 208.65625 367.65625 205.773438 368.03125 C 202.894531 368.410156 200.007812 368.714844 197.113281 368.953125 C 194.21875 369.191406 191.320312 369.359375 188.417969 369.460938 C 185.515625 369.558594 182.613281 369.589844 179.707031 369.550781 C 176.804688 369.511719 173.902344 369.402344 171.003906 369.226562 C 168.105469 369.046875 165.210938 368.800781 162.324219 368.484375 C 159.4375 368.167969 156.558594 367.785156 153.691406 367.332031 C 150.824219 366.878906 147.964844 366.355469 145.121094 365.765625 C 142.277344 365.175781 139.453125 364.519531 136.640625 363.792969 C 133.828125 363.066406 131.035156 362.277344 128.257812 361.417969 C 125.484375 360.558594 122.734375 359.632812 120.003906 358.644531 C 117.273438 357.65625 114.570312 356.601562 111.890625 355.480469 C 109.210938 354.359375 106.558594 353.179688 103.9375 351.933594 C 101.3125 350.6875 98.722656 349.378906 96.160156 348.007812 C 93.601562 346.636719 91.074219 345.207031 88.582031 343.71875 C 86.09375 342.226562 83.636719 340.679688 81.21875 339.070312 C 78.804688 337.460938 76.425781 335.796875 74.085938 334.074219 C 71.75 332.355469 69.453125 330.578125 67.203125 328.746094 C 64.949219 326.914062 62.742188 325.03125 60.578125 323.09375 C 58.417969 321.160156 56.300781 319.171875 54.234375 317.132812 C 56.0625 309.09375 62.890625 285.335938 82.113281 274.535156 C 95.636719 266.910156 120.640625 260.582031 143.070312 256.992188 C 159.332031 254.421875 174.238281 253.289062 182.507812 254.171875 C 188.757812 254.835938 200.902344 254.757812 215.144531 255.582031 C 245.761719 257.40625 285.945312 263.539062 297.230469 290.859375 C 301.207031 300.480469 304.3125 310.371094 306.550781 320.53125 Z M 306.550781 320.53125 "/><path style=" stroke:none;fill-rule:nonzero;fill:#ffffff;fill-opacity:1;" d="M 172.609375 300.0625 C 142.101562 299.121094 142.019531 268.566406 143.070312 256.992188 C 159.332031 254.421875 174.238281 253.289062 182.507812 254.171875 C 188.757812 254.835938 200.902344 254.757812 215.144531 255.582031 C 217.496094 276.054688 206.765625 301.136719 172.609375 300.0625 Z M 172.609375 300.0625 "/><g clip-rule="nonzero" clip-path="url(#3fdd69f170)"><g clip-rule="nonzero" clip-path="url(#7097b75bf9)"><path style=" stroke:none;fill-rule:nonzero;fill:url(#7f9bd0aa43);" d="M 148.8125 198.296875 L 148.8125 291.898438 L 205.132812 291.898438 L 205.132812 198.296875 Z M 148.8125 198.296875 "/></g></g><g clip-rule="nonzero" clip-path="url(#7a15ef10ad)"><g clip-rule="nonzero" clip-path="url(#a0606052f8)"><path style=" stroke:none;fill-rule:nonzero;fill:url(#14d3707526);" d="M 120.160156 133.480469 L 120.160156 260.675781 L 245.390625 260.675781 L 245.390625 133.480469 Z M 120.160156 133.480469 "/></g></g><path style="fill:none;stroke-width:2.77;stroke-linecap:butt;stroke-linejoin:miter;stroke:#ffffff;stroke-opacity:1;stroke-miterlimit:10;" d="M 102.061455 124.999286 C 102.061455 125.444707 102.040013 125.887444 101.997129 126.330181 C 101.954245 126.772918 101.887239 127.210289 101.80147 127.647659 C 101.715702 128.082347 101.605812 128.514351 101.477159 128.938305 C 101.348507 129.362259 101.198413 129.780847 101.029557 130.191385 C 100.85802 130.601923 100.670402 131.004412 100.461343 131.396167 C 100.249602 131.787922 100.021781 132.168944 99.775197 132.53655 C 99.528614 132.90684 99.263268 133.263713 98.981841 133.607169 C 98.700414 133.950626 98.402906 134.277983 98.089316 134.594607 C 97.773046 134.908548 97.446055 135.206389 97.102982 135.488131 C 96.757229 135.769873 96.400755 136.032832 96.03356 136.279692 C 95.663685 136.526551 95.283088 136.754628 94.891771 136.963922 C 94.497773 137.173216 94.098415 137.363727 93.685656 137.535455 C 93.275577 137.7045 92.857457 137.854762 92.433977 137.983559 C 92.007816 138.112355 91.576295 138.219685 91.142093 138.305549 C 90.705212 138.394097 90.26565 138.458495 89.826088 138.501427 C 89.383846 138.544359 88.938923 138.565825 88.494001 138.565825 C 88.051758 138.565825 87.606836 138.544359 87.164594 138.501427 C 86.722352 138.458495 86.28279 138.394097 85.848588 138.305549 C 85.411707 138.219685 84.982866 138.112355 84.556705 137.983559 C 84.130544 137.854762 83.712424 137.7045 83.302345 137.535455 C 82.892266 137.363727 82.490228 137.173216 82.09891 136.963922 C 81.707593 136.754628 81.326997 136.526551 80.957122 136.279692 C 80.587246 136.032832 80.230772 135.769873 79.887699 135.488131 C 79.544627 135.206389 79.214955 134.908548 78.901365 134.594607 C 78.587775 134.277983 78.290267 133.950626 78.00884 133.607169 C 77.724733 133.263713 77.462068 132.90684 77.215484 132.53655 C 76.968901 132.168944 76.738399 131.787922 76.529339 131.396167 C 76.320279 131.004412 76.129981 130.601923 75.961125 130.191385 C 75.789588 129.780847 75.642174 129.362259 75.513522 128.938305 C 75.38219 128.514351 75.274979 128.082347 75.189211 127.647659 C 75.100763 127.210289 75.036437 126.772918 74.993552 126.330181 C 74.950668 125.887444 74.929226 125.444707 74.929226 124.999286 C 74.929226 124.556549 74.950668 124.111129 74.993552 123.671075 C 75.036437 123.228338 75.100763 122.788284 75.189211 122.353597 C 75.274979 121.916226 75.38219 121.486905 75.513522 121.062951 C 75.642174 120.636313 75.789588 120.217726 75.961125 119.807188 C 76.129981 119.39665 76.320279 118.996844 76.529339 118.605089 C 76.738399 118.213334 76.968901 117.832312 77.215484 117.462022 C 77.462068 117.094416 77.724733 116.737544 78.00884 116.394087 C 78.290267 116.05063 78.587775 115.72059 78.901365 115.406649 C 79.214955 115.092708 79.544627 114.794867 79.887699 114.513125 C 80.230772 114.231383 80.587246 113.965741 80.957122 113.718881 C 81.326997 113.472022 81.707593 113.243945 82.09891 113.034651 C 82.490228 112.825357 82.892266 112.634846 83.302345 112.465801 C 83.712424 112.296756 84.130544 112.146494 84.556705 112.017698 C 84.982866 111.888901 85.411707 111.781571 85.848588 111.693024 C 86.28279 111.60716 86.722352 111.542761 87.164594 111.497146 C 87.606836 111.454214 88.051758 111.432748 88.494001 111.432748 C 88.938923 111.432748 89.383846 111.454214 89.826088 111.497146 C 90.26833 111.542761 90.705212 111.60716 91.142093 111.693024 C 91.576295 111.781571 92.007816 111.888901 92.433977 112.017698 C 92.857457 112.146494 93.275577 112.296756 93.685656 112.465801 C 94.098415 112.634846 94.497773 112.825357 94.891771 113.034651 C 95.283088 113.243945 95.663685 113.472022 96.03356 113.718881 C 96.400755 113.965741 96.757229 114.231383 97.102982 114.513125 C 97.446055 114.794867 97.773046 115.092708 98.089316 115.406649 C 98.402906 115.72059 98.700414 116.05063 98.981841 116.394087 C 99.263268 116.737544 99.528614 117.094416 99.775197 117.462022 C 100.021781 117.832312 100.249602 118.213334 100.461343 118.605089 C 100.670402 118.996844 100.85802 119.39665 101.029557 119.807188 C 101.198413 120.217726 101.348507 120.636313 101.477159 121.062951 C 101.605812 121.486905 101.715702 121.916226 101.80147 122.353597 C 101.887239 122.788284 101.954245 123.228338 101.997129 123.671075 C 102.040013 124.111129 102.061455 124.556549 102.061455 124.999286 Z M 102.061455 124.999286 " transform="matrix(1.457417,0,0,1.455788,0.0000045,5.621326)"/><path style="fill:none;stroke-width:2.77;stroke-linecap:butt;stroke-linejoin:miter;stroke:#ffffff;stroke-opacity:1;stroke-miterlimit:10;" d="M 136.465218 124.999286 C 136.462538 125.286395 136.454497 125.57082 136.435735 125.857928 C 136.416973 126.142353 136.390171 126.426778 136.352647 126.711203 C 136.317804 126.995628 136.272239 127.27737 136.215954 127.559112 C 136.162349 127.838171 136.098023 128.117229 136.028336 128.396288 C 135.955969 128.672663 135.872881 128.946355 135.784433 129.217364 C 135.695984 129.491056 135.596815 129.759381 135.489605 130.025024 C 135.385075 130.290666 135.269824 130.550942 135.146532 130.811217 C 135.02324 131.06881 134.891908 131.323719 134.752534 131.573262 C 134.613161 131.822805 134.465747 132.066981 134.312972 132.308474 C 134.157518 132.549967 133.994022 132.786093 133.825166 133.01417 C 133.65631 133.24493 133.479413 133.470323 133.294475 133.69035 C 133.112218 133.907694 132.92192 134.122354 132.723581 134.328965 C 132.525242 134.535576 132.321542 134.73682 132.112483 134.930014 C 131.900742 135.125892 131.686322 135.31372 131.463861 135.493498 C 131.241399 135.673276 131.013578 135.847687 130.780395 136.014049 C 130.547213 136.180411 130.311351 136.338723 130.067447 136.488985 C 129.823544 136.639248 129.576961 136.784144 129.325017 136.918306 C 129.073073 137.055152 128.815768 137.181265 128.555783 137.299329 C 128.295798 137.420075 128.033133 137.530088 127.765108 137.632052 C 127.497082 137.734016 127.229057 137.82793 126.95567 137.913794 C 126.682284 137.999658 126.406218 138.077473 126.127471 138.144554 C 125.851405 138.211635 125.569978 138.270667 125.288551 138.321649 C 125.007125 138.372631 124.723017 138.412879 124.43891 138.445079 C 124.154803 138.477278 123.870696 138.501427 123.583909 138.514843 C 123.299802 138.528259 123.013014 138.533626 122.726227 138.530943 C 122.44212 138.525576 122.155332 138.51216 121.871225 138.490694 C 121.584438 138.469228 121.300331 138.437029 121.016224 138.39678 C 120.734797 138.356531 120.45069 138.308232 120.171943 138.249201 C 119.890516 138.192853 119.61445 138.125771 119.338384 138.05064 C 119.062317 137.975509 118.788931 137.889645 118.518225 137.798414 C 118.24752 137.7045 117.979494 137.602536 117.714149 137.492523 C 117.451484 137.382509 117.191499 137.264446 116.934194 137.138333 C 116.67689 137.01222 116.424946 136.878057 116.175682 136.735845 C 115.929098 136.593632 115.685195 136.44337 115.446652 136.285058 C 115.20811 136.129429 114.974927 135.963067 114.744425 135.791339 C 114.516604 135.619611 114.294142 135.439833 114.077042 135.252005 C 113.859941 135.06686 113.650881 134.870983 113.444501 134.672422 C 113.240802 134.471177 113.042463 134.26725 112.852165 134.05259 C 112.659186 133.840613 112.474249 133.623269 112.297352 133.397875 C 112.120455 133.175165 111.948919 132.944405 111.785423 132.708279 C 111.621927 132.474836 111.466473 132.233343 111.319059 131.989166 C 111.171644 131.74499 111.029591 131.495447 110.898258 131.240538 C 110.766926 130.988312 110.643634 130.73072 110.525703 130.467761 C 110.410452 130.207485 110.303242 129.941843 110.204072 129.673517 C 110.104903 129.405192 110.013774 129.134183 109.933366 128.860491 C 109.850278 128.584115 109.777911 128.30774 109.713585 128.031365 C 109.649259 127.752306 109.592974 127.470565 109.547409 127.188823 C 109.499165 126.907081 109.461641 126.622656 109.434839 126.338231 C 109.405356 126.053806 109.386594 125.766697 109.375873 125.482272 C 109.365152 125.195164 109.362472 124.910739 109.370513 124.623631 C 109.378553 124.339206 109.394635 124.052097 109.421437 123.767672 C 109.44556 123.483247 109.480403 123.198822 109.523287 122.91708 C 109.568852 122.632655 109.619776 122.350914 109.681422 122.071855 C 109.743068 121.792796 109.812755 121.516421 109.893162 121.240046 C 109.97089 120.966354 110.059338 120.692662 110.155828 120.424336 C 110.252317 120.153327 110.356847 119.887685 110.469417 119.624726 C 110.581988 119.361767 110.70528 119.104175 110.833932 118.849265 C 110.962584 118.594356 111.101958 118.34213 111.246692 118.095271 C 111.391425 117.851094 111.5442 117.609602 111.705015 117.370792 C 111.865831 117.134665 112.034687 116.903905 112.208903 116.678512 C 112.3858 116.450435 112.568058 116.230408 112.755676 116.015748 C 112.945974 115.801087 113.141632 115.594477 113.345332 115.390549 C 113.546351 115.189305 113.755411 114.993428 113.969831 114.8056 C 114.184252 114.615089 114.406713 114.435311 114.631855 114.258216 C 114.859676 114.083804 115.090178 113.917442 115.328721 113.756447 C 115.564584 113.595452 115.805807 113.442506 116.05239 113.29761 C 116.298974 113.152715 116.550918 113.015869 116.805542 112.887072 C 117.062847 112.758276 117.320151 112.63753 117.585496 112.524833 C 117.848161 112.412136 118.113507 112.310172 118.384213 112.213575 C 118.652238 112.116978 118.925624 112.031114 119.201691 111.953299 C 119.475077 111.872802 119.753823 111.803037 120.03257 111.744006 C 120.311317 111.682291 120.592743 111.631309 120.87685 111.588377 C 121.158277 111.545445 121.442384 111.510562 121.729172 111.48373 C 122.013279 111.45958 122.300066 111.443481 122.584173 111.438114 C 122.870961 111.430065 123.157748 111.432748 123.441855 111.443481 C 123.728643 111.454214 124.01275 111.47568 124.299537 111.502513 C 124.583644 111.532028 124.867751 111.572277 125.149178 111.617893 C 125.430605 111.666191 125.712032 111.722539 125.990778 111.786938 C 126.269525 111.851336 126.545591 111.926467 126.818977 112.006965 C 127.092364 112.090145 127.363069 112.181376 127.633775 112.280657 C 127.901801 112.379937 128.164466 112.487267 128.427131 112.60533 C 128.687116 112.72071 128.947101 112.846823 129.199045 112.978303 C 129.453669 113.112466 129.702933 113.251995 129.946836 113.399574 C 130.190739 113.549836 130.431962 113.705465 130.665144 113.869144 C 130.901007 114.032822 131.128829 114.201867 131.35397 114.381645 C 131.576431 114.55874 131.796212 114.743885 132.007953 114.937079 C 132.219693 115.12759 132.426072 115.326151 132.624411 115.532762 C 132.825431 115.736689 133.018409 115.948667 133.203347 116.16601 C 133.388284 116.383354 133.567861 116.606064 133.739398 116.834141 C 133.913614 117.062217 134.07711 117.298344 134.235245 117.537154 C 134.3907 117.775963 134.540794 118.02014 134.682848 118.266999 C 134.824901 118.516542 134.958914 118.768768 135.084886 119.02636 C 135.210858 119.283953 135.328789 119.544229 135.436 119.807188 C 135.54589 120.07283 135.64774 120.341155 135.738869 120.612164 C 135.832677 120.88049 135.915765 121.154182 135.990813 121.430557 C 136.06586 121.706932 136.132866 121.985991 136.189152 122.265049 C 136.374089 123.169306 136.465218 124.07893 136.465218 124.999286 Z M 136.465218 124.999286 " transform="matrix(1.457417,0,0,1.455788,0.0000045,5.621326)"/><path style="fill:none;stroke-width:2.77;stroke-linecap:butt;stroke-linejoin:miter;stroke:#ffffff;stroke-opacity:1;stroke-miterlimit:10;" d="M 102.10702 124.068197 L 109.330309 124.068197 " transform="matrix(1.457417,0,0,1.455788,0.0000045,5.621326)"/><path style="fill:none;stroke-width:2.77;stroke-linecap:butt;stroke-linejoin:miter;stroke:#ffffff;stroke-opacity:1;stroke-miterlimit:10;" d="M 136.189152 122.265049 L 148.376274 122.265049 " transform="matrix(1.457417,0,0,1.455788,0.0000045,5.621326)"/></g></svg>