<svg xmlns="http://www.w3.org/2000/svg" xmlns:xlink="http://www.w3.org/1999/xlink" width="500" zoomAndPan="magnify" viewBox="0 0 375 374.999991" height="500" preserveAspectRatio="xMidYMid meet" version="1.2"><defs><clipPath id="561caf3910"><path d="M 0 187.527344 C 0 181.386719 0.300781 175.257812 0.902344 169.144531 C 1.503906 163.035156 2.40625 156.964844 3.601562 150.941406 C 4.800781 144.917969 6.292969 138.96875 8.074219 133.089844 C 9.859375 127.214844 11.925781 121.4375 14.273438 115.761719 C 16.625 110.089844 19.246094 104.542969 22.144531 99.128906 C 25.039062 93.710938 28.191406 88.449219 31.605469 83.34375 C 35.015625 78.234375 38.671875 73.308594 42.566406 68.5625 C 46.464844 63.8125 50.582031 59.269531 54.925781 54.925781 C 59.269531 50.582031 63.8125 46.464844 68.5625 42.566406 C 73.308594 38.671875 78.234375 35.015625 83.34375 31.605469 C 88.449219 28.191406 93.710938 25.039062 99.128906 22.144531 C 104.542969 19.246094 110.089844 16.625 115.761719 14.273438 C 121.4375 11.925781 127.214844 9.859375 133.089844 8.074219 C 138.96875 6.292969 144.917969 4.800781 150.941406 3.601562 C 156.964844 2.40625 163.035156 1.503906 169.144531 0.902344 C 175.257812 0.300781 181.386719 0 187.527344 0 C 193.667969 0 199.796875 0.300781 205.90625 0.902344 C 212.019531 1.503906 218.089844 2.40625 224.113281 3.601562 C 230.136719 4.800781 236.085938 6.292969 241.964844 8.074219 C 247.839844 9.859375 253.617188 11.925781 259.289062 14.273438 C 264.964844 16.625 270.511719 19.246094 275.925781 22.144531 C 281.34375 25.039062 286.605469 28.191406 291.710938 31.605469 C 296.820312 35.015625 301.746094 38.671875 306.492188 42.566406 C 311.242188 46.464844 315.785156 50.582031 320.128906 54.925781 C 324.472656 59.269531 328.589844 63.8125 332.488281 68.5625 C 336.382812 73.308594 340.039062 78.234375 343.449219 83.34375 C 346.863281 88.449219 350.015625 93.710938 352.910156 99.128906 C 355.804688 104.542969 358.429688 110.089844 360.78125 115.761719 C 363.128906 121.4375 365.195312 127.214844 366.980469 133.089844 C 368.761719 138.96875 370.253906 144.917969 371.449219 150.941406 C 372.648438 156.964844 373.550781 163.035156 374.152344 169.144531 C 374.753906 175.257812 375.054688 181.386719 375.054688 187.527344 C 375.054688 193.667969 374.753906 199.796875 374.152344 205.90625 C 373.550781 212.019531 372.648438 218.089844 371.449219 224.113281 C 370.253906 230.136719 368.761719 236.085938 366.980469 241.964844 C 365.195312 247.839844 363.128906 253.617188 360.78125 259.289062 C 358.429688 264.964844 355.804688 270.511719 352.910156 275.925781 C 350.015625 281.34375 346.863281 286.605469 343.449219 291.710938 C 340.039062 296.820312 336.382812 301.746094 332.488281 306.492188 C 328.589844 311.242188 324.472656 315.785156 320.128906 320.128906 C 315.785156 324.472656 311.242188 328.589844 306.492188 332.488281 C 301.746094 336.382812 296.820312 340.039062 291.710938 343.449219 C 286.605469 346.863281 281.34375 350.015625 275.925781 352.910156 C 270.511719 355.804688 264.964844 358.429688 259.289062 360.78125 C 253.617188 363.128906 247.839844 365.195312 241.964844 366.980469 C 236.085938 368.761719 230.136719 370.253906 224.113281 371.449219 C 218.089844 372.648438 212.019531 373.550781 205.90625 374.152344 C 199.796875 374.753906 193.667969 375.054688 187.527344 375.054688 C 181.386719 375.054688 175.257812 374.753906 169.144531 374.152344 C 163.035156 373.550781 156.964844 372.648438 150.941406 371.449219 C 144.917969 370.253906 138.96875 368.761719 133.089844 366.980469 C 127.214844 365.195312 121.4375 363.128906 115.761719 360.78125 C 110.089844 358.429688 104.542969 355.804688 99.128906 352.910156 C 93.710938 350.015625 88.449219 346.863281 83.34375 343.449219 C 78.234375 340.039062 73.308594 336.382812 68.5625 332.488281 C 63.8125 328.589844 59.269531 324.472656 54.925781 320.128906 C 50.582031 315.785156 46.464844 311.242188 42.566406 306.492188 C 38.671875 301.746094 35.015625 296.820312 31.605469 291.710938 C 28.191406 286.605469 25.039062 281.34375 22.144531 275.925781 C 19.246094 270.511719 16.625 264.964844 14.273438 259.289062 C 11.925781 253.617188 9.859375 247.839844 8.074219 241.964844 C 6.292969 236.085938 4.800781 230.136719 3.601562 224.113281 C 2.40625 218.089844 1.503906 212.019531 0.902344 205.90625 C 0.300781 199.796875 0 193.667969 0 187.527344 Z M 0 187.527344 "/></clipPath><clipPath id="202a8e9f98"><path d="M 145 202 L 222 202 L 222 271 L 145 271 Z M 145 202 "/></clipPath><clipPath id="05e49a2054"><path d="M 0 187.527344 C 0 181.386719 0.300781 175.257812 0.902344 169.144531 C 1.503906 163.035156 2.40625 156.964844 3.601562 150.941406 C 4.800781 144.917969 6.292969 138.96875 8.074219 133.089844 C 9.859375 127.214844 11.925781 121.4375 14.273438 115.761719 C 16.625 110.089844 19.246094 104.542969 22.144531 99.128906 C 25.039062 93.710938 28.191406 88.449219 31.605469 83.34375 C 35.015625 78.234375 38.671875 73.308594 42.566406 68.5625 C 46.464844 63.8125 50.582031 59.269531 54.925781 54.925781 C 59.269531 50.582031 63.8125 46.464844 68.5625 42.566406 C 73.308594 38.671875 78.234375 35.015625 83.34375 31.605469 C 88.449219 28.191406 93.710938 25.039062 99.128906 22.144531 C 104.542969 19.246094 110.089844 16.625 115.761719 14.273438 C 121.4375 11.925781 127.214844 9.859375 133.089844 8.074219 C 138.96875 6.292969 144.917969 4.800781 150.941406 3.601562 C 156.964844 2.40625 163.035156 1.503906 169.144531 0.902344 C 175.257812 0.300781 181.386719 0 187.527344 0 C 193.667969 0 199.796875 0.300781 205.90625 0.902344 C 212.019531 1.503906 218.089844 2.40625 224.113281 3.601562 C 230.136719 4.800781 236.085938 6.292969 241.964844 8.074219 C 247.839844 9.859375 253.617188 11.925781 259.289062 14.273438 C 264.964844 16.625 270.511719 19.246094 275.925781 22.144531 C 281.34375 25.039062 286.605469 28.191406 291.710938 31.605469 C 296.820312 35.015625 301.746094 38.671875 306.492188 42.566406 C 311.242188 46.464844 315.785156 50.582031 320.128906 54.925781 C 324.472656 59.269531 328.589844 63.8125 332.488281 68.5625 C 336.382812 73.308594 340.039062 78.234375 343.449219 83.34375 C 346.863281 88.449219 350.015625 93.710938 352.910156 99.128906 C 355.804688 104.542969 358.429688 110.089844 360.78125 115.761719 C 363.128906 121.4375 365.195312 127.214844 366.980469 133.089844 C 368.761719 138.96875 370.253906 144.917969 371.449219 150.941406 C 372.648438 156.964844 373.550781 163.035156 374.152344 169.144531 C 374.753906 175.257812 375.054688 181.386719 375.054688 187.527344 C 375.054688 193.667969 374.753906 199.796875 374.152344 205.90625 C 373.550781 212.019531 372.648438 218.089844 371.449219 224.113281 C 370.253906 230.136719 368.761719 236.085938 366.980469 241.964844 C 365.195312 247.839844 363.128906 253.617188 360.78125 259.289062 C 358.429688 264.964844 355.804688 270.511719 352.910156 275.925781 C 350.015625 281.34375 346.863281 286.605469 343.449219 291.710938 C 340.039062 296.820312 336.382812 301.746094 332.488281 306.492188 C 328.589844 311.242188 324.472656 315.785156 320.128906 320.128906 C 315.785156 324.472656 311.242188 328.589844 306.492188 332.488281 C 301.746094 336.382812 296.820312 340.039062 291.710938 343.449219 C 286.605469 346.863281 281.34375 350.015625 275.925781 352.910156 C 270.511719 355.804688 264.964844 358.429688 259.289062 360.78125 C 253.617188 363.128906 247.839844 365.195312 241.964844 366.980469 C 236.085938 368.761719 230.136719 370.253906 224.113281 371.449219 C 218.089844 372.648438 212.019531 373.550781 205.90625 374.152344 C 199.796875 374.753906 193.667969 375.054688 187.527344 375.054688 C 181.386719 375.054688 175.257812 374.753906 169.144531 374.152344 C 163.035156 373.550781 156.964844 372.648438 150.941406 371.449219 C 144.917969 370.253906 138.96875 368.761719 133.089844 366.980469 C 127.214844 365.195312 121.4375 363.128906 115.761719 360.78125 C 110.089844 358.429688 104.542969 355.804688 99.128906 352.910156 C 93.710938 350.015625 88.449219 346.863281 83.34375 343.449219 C 78.234375 340.039062 73.308594 336.382812 68.5625 332.488281 C 63.8125 328.589844 59.269531 324.472656 54.925781 320.128906 C 50.582031 315.785156 46.464844 311.242188 42.566406 306.492188 C 38.671875 301.746094 35.015625 296.820312 31.605469 291.710938 C 28.191406 286.605469 25.039062 281.34375 22.144531 275.925781 C 19.246094 270.511719 16.625 264.964844 14.273438 259.289062 C 11.925781 253.617188 9.859375 247.839844 8.074219 241.964844 C 6.292969 236.085938 4.800781 230.136719 3.601562 224.113281 C 2.40625 218.089844 1.503906 212.019531 0.902344 205.90625 C 0.300781 199.796875 0 193.667969 0 187.527344 Z M 0 187.527344 "/></clipPath><clipPath id="ee4702ff47"><path d="M 187 217 L 222 217 L 222 254 L 187 254 Z M 187 217 "/></clipPath><clipPath id="8e8012db6f"><path d="M 0 187.527344 C 0 181.386719 0.300781 175.257812 0.902344 169.144531 C 1.503906 163.035156 2.40625 156.964844 3.601562 150.941406 C 4.800781 144.917969 6.292969 138.96875 8.074219 133.089844 C 9.859375 127.214844 11.925781 121.4375 14.273438 115.761719 C 16.625 110.089844 19.246094 104.542969 22.144531 99.128906 C 25.039062 93.710938 28.191406 88.449219 31.605469 83.34375 C 35.015625 78.234375 38.671875 73.308594 42.566406 68.5625 C 46.464844 63.8125 50.582031 59.269531 54.925781 54.925781 C 59.269531 50.582031 63.8125 46.464844 68.5625 42.566406 C 73.308594 38.671875 78.234375 35.015625 83.34375 31.605469 C 88.449219 28.191406 93.710938 25.039062 99.128906 22.144531 C 104.542969 19.246094 110.089844 16.625 115.761719 14.273438 C 121.4375 11.925781 127.214844 9.859375 133.089844 8.074219 C 138.96875 6.292969 144.917969 4.800781 150.941406 3.601562 C 156.964844 2.40625 163.035156 1.503906 169.144531 0.902344 C 175.257812 0.300781 181.386719 0 187.527344 0 C 193.667969 0 199.796875 0.300781 205.90625 0.902344 C 212.019531 1.503906 218.089844 2.40625 224.113281 3.601562 C 230.136719 4.800781 236.085938 6.292969 241.964844 8.074219 C 247.839844 9.859375 253.617188 11.925781 259.289062 14.273438 C 264.964844 16.625 270.511719 19.246094 275.925781 22.144531 C 281.34375 25.039062 286.605469 28.191406 291.710938 31.605469 C 296.820312 35.015625 301.746094 38.671875 306.492188 42.566406 C 311.242188 46.464844 315.785156 50.582031 320.128906 54.925781 C 324.472656 59.269531 328.589844 63.8125 332.488281 68.5625 C 336.382812 73.308594 340.039062 78.234375 343.449219 83.34375 C 346.863281 88.449219 350.015625 93.710938 352.910156 99.128906 C 355.804688 104.542969 358.429688 110.089844 360.78125 115.761719 C 363.128906 121.4375 365.195312 127.214844 366.980469 133.089844 C 368.761719 138.96875 370.253906 144.917969 371.449219 150.941406 C 372.648438 156.964844 373.550781 163.035156 374.152344 169.144531 C 374.753906 175.257812 375.054688 181.386719 375.054688 187.527344 C 375.054688 193.667969 374.753906 199.796875 374.152344 205.90625 C 373.550781 212.019531 372.648438 218.089844 371.449219 224.113281 C 370.253906 230.136719 368.761719 236.085938 366.980469 241.964844 C 365.195312 247.839844 363.128906 253.617188 360.78125 259.289062 C 358.429688 264.964844 355.804688 270.511719 352.910156 275.925781 C 350.015625 281.34375 346.863281 286.605469 343.449219 291.710938 C 340.039062 296.820312 336.382812 301.746094 332.488281 306.492188 C 328.589844 311.242188 324.472656 315.785156 320.128906 320.128906 C 315.785156 324.472656 311.242188 328.589844 306.492188 332.488281 C 301.746094 336.382812 296.820312 340.039062 291.710938 343.449219 C 286.605469 346.863281 281.34375 350.015625 275.925781 352.910156 C 270.511719 355.804688 264.964844 358.429688 259.289062 360.78125 C 253.617188 363.128906 247.839844 365.195312 241.964844 366.980469 C 236.085938 368.761719 230.136719 370.253906 224.113281 371.449219 C 218.089844 372.648438 212.019531 373.550781 205.90625 374.152344 C 199.796875 374.753906 193.667969 375.054688 187.527344 375.054688 C 181.386719 375.054688 175.257812 374.753906 169.144531 374.152344 C 163.035156 373.550781 156.964844 372.648438 150.941406 371.449219 C 144.917969 370.253906 138.96875 368.761719 133.089844 366.980469 C 127.214844 365.195312 121.4375 363.128906 115.761719 360.78125 C 110.089844 358.429688 104.542969 355.804688 99.128906 352.910156 C 93.710938 350.015625 88.449219 346.863281 83.34375 343.449219 C 78.234375 340.039062 73.308594 336.382812 68.5625 332.488281 C 63.8125 328.589844 59.269531 324.472656 54.925781 320.128906 C 50.582031 315.785156 46.464844 311.242188 42.566406 306.492188 C 38.671875 301.746094 35.015625 296.820312 31.605469 291.710938 C 28.191406 286.605469 25.039062 281.34375 22.144531 275.925781 C 19.246094 270.511719 16.625 264.964844 14.273438 259.289062 C 11.925781 253.617188 9.859375 247.839844 8.074219 241.964844 C 6.292969 236.085938 4.800781 230.136719 3.601562 224.113281 C 2.40625 218.089844 1.503906 212.019531 0.902344 205.90625 C 0.300781 199.796875 0 193.667969 0 187.527344 Z M 0 187.527344 "/></clipPath><clipPath id="6ff7d242bd"><path d="M 9 256 L 366 256 L 366 375 L 9 375 Z M 9 256 "/></clipPath><clipPath id="cf5bf0e4e4"><path d="M 0 187.527344 C 0 181.386719 0.300781 175.257812 0.902344 169.144531 C 1.503906 163.035156 2.40625 156.964844 3.601562 150.941406 C 4.800781 144.917969 6.292969 138.96875 8.074219 133.089844 C 9.859375 127.214844 11.925781 121.4375 14.273438 115.761719 C 16.625 110.089844 19.246094 104.542969 22.144531 99.128906 C 25.039062 93.710938 28.191406 88.449219 31.605469 83.34375 C 35.015625 78.234375 38.671875 73.308594 42.566406 68.5625 C 46.464844 63.8125 50.582031 59.269531 54.925781 54.925781 C 59.269531 50.582031 63.8125 46.464844 68.5625 42.566406 C 73.308594 38.671875 78.234375 35.015625 83.34375 31.605469 C 88.449219 28.191406 93.710938 25.039062 99.128906 22.144531 C 104.542969 19.246094 110.089844 16.625 115.761719 14.273438 C 121.4375 11.925781 127.214844 9.859375 133.089844 8.074219 C 138.96875 6.292969 144.917969 4.800781 150.941406 3.601562 C 156.964844 2.40625 163.035156 1.503906 169.144531 0.902344 C 175.257812 0.300781 181.386719 0 187.527344 0 C 193.667969 0 199.796875 0.300781 205.90625 0.902344 C 212.019531 1.503906 218.089844 2.40625 224.113281 3.601562 C 230.136719 4.800781 236.085938 6.292969 241.964844 8.074219 C 247.839844 9.859375 253.617188 11.925781 259.289062 14.273438 C 264.964844 16.625 270.511719 19.246094 275.925781 22.144531 C 281.34375 25.039062 286.605469 28.191406 291.710938 31.605469 C 296.820312 35.015625 301.746094 38.671875 306.492188 42.566406 C 311.242188 46.464844 315.785156 50.582031 320.128906 54.925781 C 324.472656 59.269531 328.589844 63.8125 332.488281 68.5625 C 336.382812 73.308594 340.039062 78.234375 343.449219 83.34375 C 346.863281 88.449219 350.015625 93.710938 352.910156 99.128906 C 355.804688 104.542969 358.429688 110.089844 360.78125 115.761719 C 363.128906 121.4375 365.195312 127.214844 366.980469 133.089844 C 368.761719 138.96875 370.253906 144.917969 371.449219 150.941406 C 372.648438 156.964844 373.550781 163.035156 374.152344 169.144531 C 374.753906 175.257812 375.054688 181.386719 375.054688 187.527344 C 375.054688 193.667969 374.753906 199.796875 374.152344 205.90625 C 373.550781 212.019531 372.648438 218.089844 371.449219 224.113281 C 370.253906 230.136719 368.761719 236.085938 366.980469 241.964844 C 365.195312 247.839844 363.128906 253.617188 360.78125 259.289062 C 358.429688 264.964844 355.804688 270.511719 352.910156 275.925781 C 350.015625 281.34375 346.863281 286.605469 343.449219 291.710938 C 340.039062 296.820312 336.382812 301.746094 332.488281 306.492188 C 328.589844 311.242188 324.472656 315.785156 320.128906 320.128906 C 315.785156 324.472656 311.242188 328.589844 306.492188 332.488281 C 301.746094 336.382812 296.820312 340.039062 291.710938 343.449219 C 286.605469 346.863281 281.34375 350.015625 275.925781 352.910156 C 270.511719 355.804688 264.964844 358.429688 259.289062 360.78125 C 253.617188 363.128906 247.839844 365.195312 241.964844 366.980469 C 236.085938 368.761719 230.136719 370.253906 224.113281 371.449219 C 218.089844 372.648438 212.019531 373.550781 205.90625 374.152344 C 199.796875 374.753906 193.667969 375.054688 187.527344 375.054688 C 181.386719 375.054688 175.257812 374.753906 169.144531 374.152344 C 163.035156 373.550781 156.964844 372.648438 150.941406 371.449219 C 144.917969 370.253906 138.96875 368.761719 133.089844 366.980469 C 127.214844 365.195312 121.4375 363.128906 115.761719 360.78125 C 110.089844 358.429688 104.542969 355.804688 99.128906 352.910156 C 93.710938 350.015625 88.449219 346.863281 83.34375 343.449219 C 78.234375 340.039062 73.308594 336.382812 68.5625 332.488281 C 63.8125 328.589844 59.269531 324.472656 54.925781 320.128906 C 50.582031 315.785156 46.464844 311.242188 42.566406 306.492188 C 38.671875 301.746094 35.015625 296.820312 31.605469 291.710938 C 28.191406 286.605469 25.039062 281.34375 22.144531 275.925781 C 19.246094 270.511719 16.625 264.964844 14.273438 259.289062 C 11.925781 253.617188 9.859375 247.839844 8.074219 241.964844 C 6.292969 236.085938 4.800781 230.136719 3.601562 224.113281 C 2.40625 218.089844 1.503906 212.019531 0.902344 205.90625 C 0.300781 199.796875 0 193.667969 0 187.527344 Z M 0 187.527344 "/></clipPath><clipPath id="6b2a90a369"><path d="M 206 81 L 297 81 L 297 168 L 206 168 Z M 206 81 "/></clipPath><clipPath id="8220f55a88"><path d="M 0 187.527344 C 0 181.386719 0.300781 175.257812 0.902344 169.144531 C 1.503906 163.035156 2.40625 156.964844 3.601562 150.941406 C 4.800781 144.917969 6.292969 138.96875 8.074219 133.089844 C 9.859375 127.214844 11.925781 121.4375 14.273438 115.761719 C 16.625 110.089844 19.246094 104.542969 22.144531 99.128906 C 25.039062 93.710938 28.191406 88.449219 31.605469 83.34375 C 35.015625 78.234375 38.671875 73.308594 42.566406 68.5625 C 46.464844 63.8125 50.582031 59.269531 54.925781 54.925781 C 59.269531 50.582031 63.8125 46.464844 68.5625 42.566406 C 73.308594 38.671875 78.234375 35.015625 83.34375 31.605469 C 88.449219 28.191406 93.710938 25.039062 99.128906 22.144531 C 104.542969 19.246094 110.089844 16.625 115.761719 14.273438 C 121.4375 11.925781 127.214844 9.859375 133.089844 8.074219 C 138.96875 6.292969 144.917969 4.800781 150.941406 3.601562 C 156.964844 2.40625 163.035156 1.503906 169.144531 0.902344 C 175.257812 0.300781 181.386719 0 187.527344 0 C 193.667969 0 199.796875 0.300781 205.90625 0.902344 C 212.019531 1.503906 218.089844 2.40625 224.113281 3.601562 C 230.136719 4.800781 236.085938 6.292969 241.964844 8.074219 C 247.839844 9.859375 253.617188 11.925781 259.289062 14.273438 C 264.964844 16.625 270.511719 19.246094 275.925781 22.144531 C 281.34375 25.039062 286.605469 28.191406 291.710938 31.605469 C 296.820312 35.015625 301.746094 38.671875 306.492188 42.566406 C 311.242188 46.464844 315.785156 50.582031 320.128906 54.925781 C 324.472656 59.269531 328.589844 63.8125 332.488281 68.5625 C 336.382812 73.308594 340.039062 78.234375 343.449219 83.34375 C 346.863281 88.449219 350.015625 93.710938 352.910156 99.128906 C 355.804688 104.542969 358.429688 110.089844 360.78125 115.761719 C 363.128906 121.4375 365.195312 127.214844 366.980469 133.089844 C 368.761719 138.96875 370.253906 144.917969 371.449219 150.941406 C 372.648438 156.964844 373.550781 163.035156 374.152344 169.144531 C 374.753906 175.257812 375.054688 181.386719 375.054688 187.527344 C 375.054688 193.667969 374.753906 199.796875 374.152344 205.90625 C 373.550781 212.019531 372.648438 218.089844 371.449219 224.113281 C 370.253906 230.136719 368.761719 236.085938 366.980469 241.964844 C 365.195312 247.839844 363.128906 253.617188 360.78125 259.289062 C 358.429688 264.964844 355.804688 270.511719 352.910156 275.925781 C 350.015625 281.34375 346.863281 286.605469 343.449219 291.710938 C 340.039062 296.820312 336.382812 301.746094 332.488281 306.492188 C 328.589844 311.242188 324.472656 315.785156 320.128906 320.128906 C 315.785156 324.472656 311.242188 328.589844 306.492188 332.488281 C 301.746094 336.382812 296.820312 340.039062 291.710938 343.449219 C 286.605469 346.863281 281.34375 350.015625 275.925781 352.910156 C 270.511719 355.804688 264.964844 358.429688 259.289062 360.78125 C 253.617188 363.128906 247.839844 365.195312 241.964844 366.980469 C 236.085938 368.761719 230.136719 370.253906 224.113281 371.449219 C 218.089844 372.648438 212.019531 373.550781 205.90625 374.152344 C 199.796875 374.753906 193.667969 375.054688 187.527344 375.054688 C 181.386719 375.054688 175.257812 374.753906 169.144531 374.152344 C 163.035156 373.550781 156.964844 372.648438 150.941406 371.449219 C 144.917969 370.253906 138.96875 368.761719 133.089844 366.980469 C 127.214844 365.195312 121.4375 363.128906 115.761719 360.78125 C 110.089844 358.429688 104.542969 355.804688 99.128906 352.910156 C 93.710938 350.015625 88.449219 346.863281 83.34375 343.449219 C 78.234375 340.039062 73.308594 336.382812 68.5625 332.488281 C 63.8125 328.589844 59.269531 324.472656 54.925781 320.128906 C 50.582031 315.785156 46.464844 311.242188 42.566406 306.492188 C 38.671875 301.746094 35.015625 296.820312 31.605469 291.710938 C 28.191406 286.605469 25.039062 281.34375 22.144531 275.925781 C 19.246094 270.511719 16.625 264.964844 14.273438 259.289062 C 11.925781 253.617188 9.859375 247.839844 8.074219 241.964844 C 6.292969 236.085938 4.800781 230.136719 3.601562 224.113281 C 2.40625 218.089844 1.503906 212.019531 0.902344 205.90625 C 0.300781 199.796875 0 193.667969 0 187.527344 Z M 0 187.527344 "/></clipPath><clipPath id="bf941af65c"><path d="M 180 97 L 290 97 L 290 247 L 180 247 Z M 180 97 "/></clipPath><clipPath id="0dc305cc47"><path d="M 0 187.527344 C 0 181.386719 0.300781 175.257812 0.902344 169.144531 C 1.503906 163.035156 2.40625 156.964844 3.601562 150.941406 C 4.800781 144.917969 6.292969 138.96875 8.074219 133.089844 C 9.859375 127.214844 11.925781 121.4375 14.273438 115.761719 C 16.625 110.089844 19.246094 104.542969 22.144531 99.128906 C 25.039062 93.710938 28.191406 88.449219 31.605469 83.34375 C 35.015625 78.234375 38.671875 73.308594 42.566406 68.5625 C 46.464844 63.8125 50.582031 59.269531 54.925781 54.925781 C 59.269531 50.582031 63.8125 46.464844 68.5625 42.566406 C 73.308594 38.671875 78.234375 35.015625 83.34375 31.605469 C 88.449219 28.191406 93.710938 25.039062 99.128906 22.144531 C 104.542969 19.246094 110.089844 16.625 115.761719 14.273438 C 121.4375 11.925781 127.214844 9.859375 133.089844 8.074219 C 138.96875 6.292969 144.917969 4.800781 150.941406 3.601562 C 156.964844 2.40625 163.035156 1.503906 169.144531 0.902344 C 175.257812 0.300781 181.386719 0 187.527344 0 C 193.667969 0 199.796875 0.300781 205.90625 0.902344 C 212.019531 1.503906 218.089844 2.40625 224.113281 3.601562 C 230.136719 4.800781 236.085938 6.292969 241.964844 8.074219 C 247.839844 9.859375 253.617188 11.925781 259.289062 14.273438 C 264.964844 16.625 270.511719 19.246094 275.925781 22.144531 C 281.34375 25.039062 286.605469 28.191406 291.710938 31.605469 C 296.820312 35.015625 301.746094 38.671875 306.492188 42.566406 C 311.242188 46.464844 315.785156 50.582031 320.128906 54.925781 C 324.472656 59.269531 328.589844 63.8125 332.488281 68.5625 C 336.382812 73.308594 340.039062 78.234375 343.449219 83.34375 C 346.863281 88.449219 350.015625 93.710938 352.910156 99.128906 C 355.804688 104.542969 358.429688 110.089844 360.78125 115.761719 C 363.128906 121.4375 365.195312 127.214844 366.980469 133.089844 C 368.761719 138.96875 370.253906 144.917969 371.449219 150.941406 C 372.648438 156.964844 373.550781 163.035156 374.152344 169.144531 C 374.753906 175.257812 375.054688 181.386719 375.054688 187.527344 C 375.054688 193.667969 374.753906 199.796875 374.152344 205.90625 C 373.550781 212.019531 372.648438 218.089844 371.449219 224.113281 C 370.253906 230.136719 368.761719 236.085938 366.980469 241.964844 C 365.195312 247.839844 363.128906 253.617188 360.78125 259.289062 C 358.429688 264.964844 355.804688 270.511719 352.910156 275.925781 C 350.015625 281.34375 346.863281 286.605469 343.449219 291.710938 C 340.039062 296.820312 336.382812 301.746094 332.488281 306.492188 C 328.589844 311.242188 324.472656 315.785156 320.128906 320.128906 C 315.785156 324.472656 311.242188 328.589844 306.492188 332.488281 C 301.746094 336.382812 296.820312 340.039062 291.710938 343.449219 C 286.605469 346.863281 281.34375 350.015625 275.925781 352.910156 C 270.511719 355.804688 264.964844 358.429688 259.289062 360.78125 C 253.617188 363.128906 247.839844 365.195312 241.964844 366.980469 C 236.085938 368.761719 230.136719 370.253906 224.113281 371.449219 C 218.089844 372.648438 212.019531 373.550781 205.90625 374.152344 C 199.796875 374.753906 193.667969 375.054688 187.527344 375.054688 C 181.386719 375.054688 175.257812 374.753906 169.144531 374.152344 C 163.035156 373.550781 156.964844 372.648438 150.941406 371.449219 C 144.917969 370.253906 138.96875 368.761719 133.089844 366.980469 C 127.214844 365.195312 121.4375 363.128906 115.761719 360.78125 C 110.089844 358.429688 104.542969 355.804688 99.128906 352.910156 C 93.710938 350.015625 88.449219 346.863281 83.34375 343.449219 C 78.234375 340.039062 73.308594 336.382812 68.5625 332.488281 C 63.8125 328.589844 59.269531 324.472656 54.925781 320.128906 C 50.582031 315.785156 46.464844 311.242188 42.566406 306.492188 C 38.671875 301.746094 35.015625 296.820312 31.605469 291.710938 C 28.191406 286.605469 25.039062 281.34375 22.144531 275.925781 C 19.246094 270.511719 16.625 264.964844 14.273438 259.289062 C 11.925781 253.617188 9.859375 247.839844 8.074219 241.964844 C 6.292969 236.085938 4.800781 230.136719 3.601562 224.113281 C 2.40625 218.089844 1.503906 212.019531 0.902344 205.90625 C 0.300781 199.796875 0 193.667969 0 187.527344 Z M 0 187.527344 "/></clipPath><clipPath id="e18383c128"><path d="M 108 53 L 270 53 L 270 228 L 108 228 Z M 108 53 "/></clipPath><clipPath id="14291e33de"><path d="M 0 187.527344 C 0 181.386719 0.300781 175.257812 0.902344 169.144531 C 1.503906 163.035156 2.40625 156.964844 3.601562 150.941406 C 4.800781 144.917969 6.292969 138.96875 8.074219 133.089844 C 9.859375 127.214844 11.925781 121.4375 14.273438 115.761719 C 16.625 110.089844 19.246094 104.542969 22.144531 99.128906 C 25.039062 93.710938 28.191406 88.449219 31.605469 83.34375 C 35.015625 78.234375 38.671875 73.308594 42.566406 68.5625 C 46.464844 63.8125 50.582031 59.269531 54.925781 54.925781 C 59.269531 50.582031 63.8125 46.464844 68.5625 42.566406 C 73.308594 38.671875 78.234375 35.015625 83.34375 31.605469 C 88.449219 28.191406 93.710938 25.039062 99.128906 22.144531 C 104.542969 19.246094 110.089844 16.625 115.761719 14.273438 C 121.4375 11.925781 127.214844 9.859375 133.089844 8.074219 C 138.96875 6.292969 144.917969 4.800781 150.941406 3.601562 C 156.964844 2.40625 163.035156 1.503906 169.144531 0.902344 C 175.257812 0.300781 181.386719 0 187.527344 0 C 193.667969 0 199.796875 0.300781 205.90625 0.902344 C 212.019531 1.503906 218.089844 2.40625 224.113281 3.601562 C 230.136719 4.800781 236.085938 6.292969 241.964844 8.074219 C 247.839844 9.859375 253.617188 11.925781 259.289062 14.273438 C 264.964844 16.625 270.511719 19.246094 275.925781 22.144531 C 281.34375 25.039062 286.605469 28.191406 291.710938 31.605469 C 296.820312 35.015625 301.746094 38.671875 306.492188 42.566406 C 311.242188 46.464844 315.785156 50.582031 320.128906 54.925781 C 324.472656 59.269531 328.589844 63.8125 332.488281 68.5625 C 336.382812 73.308594 340.039062 78.234375 343.449219 83.34375 C 346.863281 88.449219 350.015625 93.710938 352.910156 99.128906 C 355.804688 104.542969 358.429688 110.089844 360.78125 115.761719 C 363.128906 121.4375 365.195312 127.214844 366.980469 133.089844 C 368.761719 138.96875 370.253906 144.917969 371.449219 150.941406 C 372.648438 156.964844 373.550781 163.035156 374.152344 169.144531 C 374.753906 175.257812 375.054688 181.386719 375.054688 187.527344 C 375.054688 193.667969 374.753906 199.796875 374.152344 205.90625 C 373.550781 212.019531 372.648438 218.089844 371.449219 224.113281 C 370.253906 230.136719 368.761719 236.085938 366.980469 241.964844 C 365.195312 247.839844 363.128906 253.617188 360.78125 259.289062 C 358.429688 264.964844 355.804688 270.511719 352.910156 275.925781 C 350.015625 281.34375 346.863281 286.605469 343.449219 291.710938 C 340.039062 296.820312 336.382812 301.746094 332.488281 306.492188 C 328.589844 311.242188 324.472656 315.785156 320.128906 320.128906 C 315.785156 324.472656 311.242188 328.589844 306.492188 332.488281 C 301.746094 336.382812 296.820312 340.039062 291.710938 343.449219 C 286.605469 346.863281 281.34375 350.015625 275.925781 352.910156 C 270.511719 355.804688 264.964844 358.429688 259.289062 360.78125 C 253.617188 363.128906 247.839844 365.195312 241.964844 366.980469 C 236.085938 368.761719 230.136719 370.253906 224.113281 371.449219 C 218.089844 372.648438 212.019531 373.550781 205.90625 374.152344 C 199.796875 374.753906 193.667969 375.054688 187.527344 375.054688 C 181.386719 375.054688 175.257812 374.753906 169.144531 374.152344 C 163.035156 373.550781 156.964844 372.648438 150.941406 371.449219 C 144.917969 370.253906 138.96875 368.761719 133.089844 366.980469 C 127.214844 365.195312 121.4375 363.128906 115.761719 360.78125 C 110.089844 358.429688 104.542969 355.804688 99.128906 352.910156 C 93.710938 350.015625 88.449219 346.863281 83.34375 343.449219 C 78.234375 340.039062 73.308594 336.382812 68.5625 332.488281 C 63.8125 328.589844 59.269531 324.472656 54.925781 320.128906 C 50.582031 315.785156 46.464844 311.242188 42.566406 306.492188 C 38.671875 301.746094 35.015625 296.820312 31.605469 291.710938 C 28.191406 286.605469 25.039062 281.34375 22.144531 275.925781 C 19.246094 270.511719 16.625 264.964844 14.273438 259.289062 C 11.925781 253.617188 9.859375 247.839844 8.074219 241.964844 C 6.292969 236.085938 4.800781 230.136719 3.601562 224.113281 C 2.40625 218.089844 1.503906 212.019531 0.902344 205.90625 C 0.300781 199.796875 0 193.667969 0 187.527344 Z M 0 187.527344 "/></clipPath><clipPath id="a80b176f08"><path d="M 177 146 L 216 146 L 216 188 L 177 188 Z M 177 146 "/></clipPath><clipPath id="2728382277"><path d="M 0 187.527344 C 0 181.386719 0.300781 175.257812 0.902344 169.144531 C 1.503906 163.035156 2.40625 156.964844 3.601562 150.941406 C 4.800781 144.917969 6.292969 138.96875 8.074219 133.089844 C 9.859375 127.214844 11.925781 121.4375 14.273438 115.761719 C 16.625 110.089844 19.246094 104.542969 22.144531 99.128906 C 25.039062 93.710938 28.191406 88.449219 31.605469 83.34375 C 35.015625 78.234375 38.671875 73.308594 42.566406 68.5625 C 46.464844 63.8125 50.582031 59.269531 54.925781 54.925781 C 59.269531 50.582031 63.8125 46.464844 68.5625 42.566406 C 73.308594 38.671875 78.234375 35.015625 83.34375 31.605469 C 88.449219 28.191406 93.710938 25.039062 99.128906 22.144531 C 104.542969 19.246094 110.089844 16.625 115.761719 14.273438 C 121.4375 11.925781 127.214844 9.859375 133.089844 8.074219 C 138.96875 6.292969 144.917969 4.800781 150.941406 3.601562 C 156.964844 2.40625 163.035156 1.503906 169.144531 0.902344 C 175.257812 0.300781 181.386719 0 187.527344 0 C 193.667969 0 199.796875 0.300781 205.90625 0.902344 C 212.019531 1.503906 218.089844 2.40625 224.113281 3.601562 C 230.136719 4.800781 236.085938 6.292969 241.964844 8.074219 C 247.839844 9.859375 253.617188 11.925781 259.289062 14.273438 C 264.964844 16.625 270.511719 19.246094 275.925781 22.144531 C 281.34375 25.039062 286.605469 28.191406 291.710938 31.605469 C 296.820312 35.015625 301.746094 38.671875 306.492188 42.566406 C 311.242188 46.464844 315.785156 50.582031 320.128906 54.925781 C 324.472656 59.269531 328.589844 63.8125 332.488281 68.5625 C 336.382812 73.308594 340.039062 78.234375 343.449219 83.34375 C 346.863281 88.449219 350.015625 93.710938 352.910156 99.128906 C 355.804688 104.542969 358.429688 110.089844 360.78125 115.761719 C 363.128906 121.4375 365.195312 127.214844 366.980469 133.089844 C 368.761719 138.96875 370.253906 144.917969 371.449219 150.941406 C 372.648438 156.964844 373.550781 163.035156 374.152344 169.144531 C 374.753906 175.257812 375.054688 181.386719 375.054688 187.527344 C 375.054688 193.667969 374.753906 199.796875 374.152344 205.90625 C 373.550781 212.019531 372.648438 218.089844 371.449219 224.113281 C 370.253906 230.136719 368.761719 236.085938 366.980469 241.964844 C 365.195312 247.839844 363.128906 253.617188 360.78125 259.289062 C 358.429688 264.964844 355.804688 270.511719 352.910156 275.925781 C 350.015625 281.34375 346.863281 286.605469 343.449219 291.710938 C 340.039062 296.820312 336.382812 301.746094 332.488281 306.492188 C 328.589844 311.242188 324.472656 315.785156 320.128906 320.128906 C 315.785156 324.472656 311.242188 328.589844 306.492188 332.488281 C 301.746094 336.382812 296.820312 340.039062 291.710938 343.449219 C 286.605469 346.863281 281.34375 350.015625 275.925781 352.910156 C 270.511719 355.804688 264.964844 358.429688 259.289062 360.78125 C 253.617188 363.128906 247.839844 365.195312 241.964844 366.980469 C 236.085938 368.761719 230.136719 370.253906 224.113281 371.449219 C 218.089844 372.648438 212.019531 373.550781 205.90625 374.152344 C 199.796875 374.753906 193.667969 375.054688 187.527344 375.054688 C 181.386719 375.054688 175.257812 374.753906 169.144531 374.152344 C 163.035156 373.550781 156.964844 372.648438 150.941406 371.449219 C 144.917969 370.253906 138.96875 368.761719 133.089844 366.980469 C 127.214844 365.195312 121.4375 363.128906 115.761719 360.78125 C 110.089844 358.429688 104.542969 355.804688 99.128906 352.910156 C 93.710938 350.015625 88.449219 346.863281 83.34375 343.449219 C 78.234375 340.039062 73.308594 336.382812 68.5625 332.488281 C 63.8125 328.589844 59.269531 324.472656 54.925781 320.128906 C 50.582031 315.785156 46.464844 311.242188 42.566406 306.492188 C 38.671875 301.746094 35.015625 296.820312 31.605469 291.710938 C 28.191406 286.605469 25.039062 281.34375 22.144531 275.925781 C 19.246094 270.511719 16.625 264.964844 14.273438 259.289062 C 11.925781 253.617188 9.859375 247.839844 8.074219 241.964844 C 6.292969 236.085938 4.800781 230.136719 3.601562 224.113281 C 2.40625 218.089844 1.503906 212.019531 0.902344 205.90625 C 0.300781 199.796875 0 193.667969 0 187.527344 Z M 0 187.527344 "/></clipPath><clipPath id="4dc9fad956"><path d="M 188 158 L 203 158 L 203 176 L 188 176 Z M 188 158 "/></clipPath><clipPath id="dda7cba81c"><path d="M 0 187.527344 C 0 181.386719 0.300781 175.257812 0.902344 169.144531 C 1.503906 163.035156 2.40625 156.964844 3.601562 150.941406 C 4.800781 144.917969 6.292969 138.96875 8.074219 133.089844 C 9.859375 127.214844 11.925781 121.4375 14.273438 115.761719 C 16.625 110.089844 19.246094 104.542969 22.144531 99.128906 C 25.039062 93.710938 28.191406 88.449219 31.605469 83.34375 C 35.015625 78.234375 38.671875 73.308594 42.566406 68.5625 C 46.464844 63.8125 50.582031 59.269531 54.925781 54.925781 C 59.269531 50.582031 63.8125 46.464844 68.5625 42.566406 C 73.308594 38.671875 78.234375 35.015625 83.34375 31.605469 C 88.449219 28.191406 93.710938 25.039062 99.128906 22.144531 C 104.542969 19.246094 110.089844 16.625 115.761719 14.273438 C 121.4375 11.925781 127.214844 9.859375 133.089844 8.074219 C 138.96875 6.292969 144.917969 4.800781 150.941406 3.601562 C 156.964844 2.40625 163.035156 1.503906 169.144531 0.902344 C 175.257812 0.300781 181.386719 0 187.527344 0 C 193.667969 0 199.796875 0.300781 205.90625 0.902344 C 212.019531 1.503906 218.089844 2.40625 224.113281 3.601562 C 230.136719 4.800781 236.085938 6.292969 241.964844 8.074219 C 247.839844 9.859375 253.617188 11.925781 259.289062 14.273438 C 264.964844 16.625 270.511719 19.246094 275.925781 22.144531 C 281.34375 25.039062 286.605469 28.191406 291.710938 31.605469 C 296.820312 35.015625 301.746094 38.671875 306.492188 42.566406 C 311.242188 46.464844 315.785156 50.582031 320.128906 54.925781 C 324.472656 59.269531 328.589844 63.8125 332.488281 68.5625 C 336.382812 73.308594 340.039062 78.234375 343.449219 83.34375 C 346.863281 88.449219 350.015625 93.710938 352.910156 99.128906 C 355.804688 104.542969 358.429688 110.089844 360.78125 115.761719 C 363.128906 121.4375 365.195312 127.214844 366.980469 133.089844 C 368.761719 138.96875 370.253906 144.917969 371.449219 150.941406 C 372.648438 156.964844 373.550781 163.035156 374.152344 169.144531 C 374.753906 175.257812 375.054688 181.386719 375.054688 187.527344 C 375.054688 193.667969 374.753906 199.796875 374.152344 205.90625 C 373.550781 212.019531 372.648438 218.089844 371.449219 224.113281 C 370.253906 230.136719 368.761719 236.085938 366.980469 241.964844 C 365.195312 247.839844 363.128906 253.617188 360.78125 259.289062 C 358.429688 264.964844 355.804688 270.511719 352.910156 275.925781 C 350.015625 281.34375 346.863281 286.605469 343.449219 291.710938 C 340.039062 296.820312 336.382812 301.746094 332.488281 306.492188 C 328.589844 311.242188 324.472656 315.785156 320.128906 320.128906 C 315.785156 324.472656 311.242188 328.589844 306.492188 332.488281 C 301.746094 336.382812 296.820312 340.039062 291.710938 343.449219 C 286.605469 346.863281 281.34375 350.015625 275.925781 352.910156 C 270.511719 355.804688 264.964844 358.429688 259.289062 360.78125 C 253.617188 363.128906 247.839844 365.195312 241.964844 366.980469 C 236.085938 368.761719 230.136719 370.253906 224.113281 371.449219 C 218.089844 372.648438 212.019531 373.550781 205.90625 374.152344 C 199.796875 374.753906 193.667969 375.054688 187.527344 375.054688 C 181.386719 375.054688 175.257812 374.753906 169.144531 374.152344 C 163.035156 373.550781 156.964844 372.648438 150.941406 371.449219 C 144.917969 370.253906 138.96875 368.761719 133.089844 366.980469 C 127.214844 365.195312 121.4375 363.128906 115.761719 360.78125 C 110.089844 358.429688 104.542969 355.804688 99.128906 352.910156 C 93.710938 350.015625 88.449219 346.863281 83.34375 343.449219 C 78.234375 340.039062 73.308594 336.382812 68.5625 332.488281 C 63.8125 328.589844 59.269531 324.472656 54.925781 320.128906 C 50.582031 315.785156 46.464844 311.242188 42.566406 306.492188 C 38.671875 301.746094 35.015625 296.820312 31.605469 291.710938 C 28.191406 286.605469 25.039062 281.34375 22.144531 275.925781 C 19.246094 270.511719 16.625 264.964844 14.273438 259.289062 C 11.925781 253.617188 9.859375 247.839844 8.074219 241.964844 C 6.292969 236.085938 4.800781 230.136719 3.601562 224.113281 C 2.40625 218.089844 1.503906 212.019531 0.902344 205.90625 C 0.300781 199.796875 0 193.667969 0 187.527344 Z M 0 187.527344 "/></clipPath><clipPath id="ebfe922313"><path d="M 71 43 L 160 43 L 160 132 L 71 132 Z M 71 43 "/></clipPath><clipPath id="6535feb52d"><path d="M 0 187.527344 C 0 181.386719 0.300781 175.257812 0.902344 169.144531 C 1.503906 163.035156 2.40625 156.964844 3.601562 150.941406 C 4.800781 144.917969 6.292969 138.96875 8.074219 133.089844 C 9.859375 127.214844 11.925781 121.4375 14.273438 115.761719 C 16.625 110.089844 19.246094 104.542969 22.144531 99.128906 C 25.039062 93.710938 28.191406 88.449219 31.605469 83.34375 C 35.015625 78.234375 38.671875 73.308594 42.566406 68.5625 C 46.464844 63.8125 50.582031 59.269531 54.925781 54.925781 C 59.269531 50.582031 63.8125 46.464844 68.5625 42.566406 C 73.308594 38.671875 78.234375 35.015625 83.34375 31.605469 C 88.449219 28.191406 93.710938 25.039062 99.128906 22.144531 C 104.542969 19.246094 110.089844 16.625 115.761719 14.273438 C 121.4375 11.925781 127.214844 9.859375 133.089844 8.074219 C 138.96875 6.292969 144.917969 4.800781 150.941406 3.601562 C 156.964844 2.40625 163.035156 1.503906 169.144531 0.902344 C 175.257812 0.300781 181.386719 0 187.527344 0 C 193.667969 0 199.796875 0.300781 205.90625 0.902344 C 212.019531 1.503906 218.089844 2.40625 224.113281 3.601562 C 230.136719 4.800781 236.085938 6.292969 241.964844 8.074219 C 247.839844 9.859375 253.617188 11.925781 259.289062 14.273438 C 264.964844 16.625 270.511719 19.246094 275.925781 22.144531 C 281.34375 25.039062 286.605469 28.191406 291.710938 31.605469 C 296.820312 35.015625 301.746094 38.671875 306.492188 42.566406 C 311.242188 46.464844 315.785156 50.582031 320.128906 54.925781 C 324.472656 59.269531 328.589844 63.8125 332.488281 68.5625 C 336.382812 73.308594 340.039062 78.234375 343.449219 83.34375 C 346.863281 88.449219 350.015625 93.710938 352.910156 99.128906 C 355.804688 104.542969 358.429688 110.089844 360.78125 115.761719 C 363.128906 121.4375 365.195312 127.214844 366.980469 133.089844 C 368.761719 138.96875 370.253906 144.917969 371.449219 150.941406 C 372.648438 156.964844 373.550781 163.035156 374.152344 169.144531 C 374.753906 175.257812 375.054688 181.386719 375.054688 187.527344 C 375.054688 193.667969 374.753906 199.796875 374.152344 205.90625 C 373.550781 212.019531 372.648438 218.089844 371.449219 224.113281 C 370.253906 230.136719 368.761719 236.085938 366.980469 241.964844 C 365.195312 247.839844 363.128906 253.617188 360.78125 259.289062 C 358.429688 264.964844 355.804688 270.511719 352.910156 275.925781 C 350.015625 281.34375 346.863281 286.605469 343.449219 291.710938 C 340.039062 296.820312 336.382812 301.746094 332.488281 306.492188 C 328.589844 311.242188 324.472656 315.785156 320.128906 320.128906 C 315.785156 324.472656 311.242188 328.589844 306.492188 332.488281 C 301.746094 336.382812 296.820312 340.039062 291.710938 343.449219 C 286.605469 346.863281 281.34375 350.015625 275.925781 352.910156 C 270.511719 355.804688 264.964844 358.429688 259.289062 360.78125 C 253.617188 363.128906 247.839844 365.195312 241.964844 366.980469 C 236.085938 368.761719 230.136719 370.253906 224.113281 371.449219 C 218.089844 372.648438 212.019531 373.550781 205.90625 374.152344 C 199.796875 374.753906 193.667969 375.054688 187.527344 375.054688 C 181.386719 375.054688 175.257812 374.753906 169.144531 374.152344 C 163.035156 373.550781 156.964844 372.648438 150.941406 371.449219 C 144.917969 370.253906 138.96875 368.761719 133.089844 366.980469 C 127.214844 365.195312 121.4375 363.128906 115.761719 360.78125 C 110.089844 358.429688 104.542969 355.804688 99.128906 352.910156 C 93.710938 350.015625 88.449219 346.863281 83.34375 343.449219 C 78.234375 340.039062 73.308594 336.382812 68.5625 332.488281 C 63.8125 328.589844 59.269531 324.472656 54.925781 320.128906 C 50.582031 315.785156 46.464844 311.242188 42.566406 306.492188 C 38.671875 301.746094 35.015625 296.820312 31.605469 291.710938 C 28.191406 286.605469 25.039062 281.34375 22.144531 275.925781 C 19.246094 270.511719 16.625 264.964844 14.273438 259.289062 C 11.925781 253.617188 9.859375 247.839844 8.074219 241.964844 C 6.292969 236.085938 4.800781 230.136719 3.601562 224.113281 C 2.40625 218.089844 1.503906 212.019531 0.902344 205.90625 C 0.300781 199.796875 0 193.667969 0 187.527344 Z M 0 187.527344 "/></clipPath></defs><g id="d726727dc7"><rect x="0" width="375" y="0" height="374.999991" style="fill:#ffffff;fill-opacity:1;stroke:none;"/><rect x="0" width="375" y="0" height="374.999991" style="fill:#ffffff;fill-opacity:1;stroke:none;"/><g clip-rule="nonzero" clip-path="url(#561caf3910)"><path style=" stroke:none;fill-rule:nonzero;fill:#e4ecf4;fill-opacity:1;" d="M 375.054688 187.527344 C 375.054688 190.597656 374.980469 193.664062 374.828125 196.730469 C 374.679688 199.792969 374.453125 202.855469 374.152344 205.90625 C 373.851562 208.960938 373.476562 212.007812 373.023438 215.042969 C 372.574219 218.078125 372.050781 221.101562 371.449219 224.113281 C 370.851562 227.121094 370.179688 230.117188 369.433594 233.09375 C 368.6875 236.070312 367.871094 239.027344 366.980469 241.964844 C 366.089844 244.898438 365.125 247.8125 364.09375 250.703125 C 363.058594 253.59375 361.953125 256.457031 360.78125 259.289062 C 359.605469 262.125 358.363281 264.929688 357.050781 267.707031 C 355.738281 270.480469 354.359375 273.21875 352.910156 275.925781 C 351.464844 278.632812 349.953125 281.304688 348.375 283.933594 C 346.796875 286.566406 345.15625 289.160156 343.449219 291.710938 C 341.746094 294.261719 339.980469 296.773438 338.148438 299.238281 C 336.320312 301.703125 334.433594 304.121094 332.488281 306.492188 C 330.539062 308.867188 328.535156 311.1875 326.476562 313.460938 C 324.414062 315.738281 322.300781 317.957031 320.128906 320.128906 C 317.957031 322.300781 315.738281 324.414062 313.460938 326.476562 C 311.1875 328.535156 308.867188 330.539062 306.492188 332.488281 C 304.121094 334.433594 301.703125 336.320312 299.238281 338.148438 C 296.773438 339.980469 294.261719 341.746094 291.710938 343.449219 C 289.160156 345.15625 286.566406 346.796875 283.933594 348.375 C 281.304688 349.953125 278.632812 351.464844 275.925781 352.910156 C 273.21875 354.359375 270.480469 355.738281 267.707031 357.050781 C 264.929688 358.363281 262.125 359.605469 259.289062 360.78125 C 256.457031 361.953125 253.59375 363.058594 250.703125 364.09375 C 247.8125 365.125 244.898438 366.089844 241.964844 366.980469 C 239.027344 367.871094 236.070312 368.6875 233.09375 369.433594 C 230.117188 370.179688 227.121094 370.851562 224.113281 371.449219 C 221.101562 372.050781 218.078125 372.574219 215.042969 373.023438 C 212.007812 373.476562 208.960938 373.851562 205.90625 374.152344 C 202.855469 374.453125 199.792969 374.679688 196.730469 374.828125 C 193.664062 374.980469 190.597656 375.054688 187.527344 375.054688 C 184.457031 375.054688 181.390625 374.980469 178.324219 374.828125 C 175.261719 374.679688 172.199219 374.453125 169.144531 374.152344 C 166.09375 373.851562 163.046875 373.476562 160.011719 373.023438 C 156.976562 372.574219 153.953125 372.050781 150.941406 371.449219 C 147.933594 370.851562 144.9375 370.179688 141.960938 369.433594 C 138.984375 368.6875 136.027344 367.871094 133.089844 366.980469 C 130.152344 366.089844 127.242188 365.125 124.351562 364.09375 C 121.460938 363.058594 118.597656 361.953125 115.761719 360.78125 C 112.929688 359.605469 110.125 358.363281 107.347656 357.050781 C 104.574219 355.738281 101.835938 354.359375 99.128906 352.910156 C 96.421875 351.464844 93.75 349.953125 91.117188 348.375 C 88.488281 346.796875 85.894531 345.15625 83.34375 343.449219 C 80.789062 341.746094 78.28125 339.980469 75.816406 338.148438 C 73.351562 336.320312 70.933594 334.433594 68.5625 332.488281 C 66.1875 330.539062 63.867188 328.535156 61.589844 326.476562 C 59.316406 324.414062 57.09375 322.300781 54.925781 320.128906 C 52.753906 317.957031 50.640625 315.738281 48.578125 313.460938 C 46.519531 311.1875 44.515625 308.867188 42.566406 306.492188 C 40.621094 304.121094 38.730469 301.703125 36.902344 299.238281 C 35.074219 296.773438 33.308594 294.261719 31.605469 291.710938 C 29.898438 289.160156 28.257812 286.566406 26.679688 283.933594 C 25.101562 281.304688 23.589844 278.632812 22.144531 275.925781 C 20.695312 273.21875 19.316406 270.480469 18.003906 267.707031 C 16.691406 264.929688 15.449219 262.125 14.273438 259.289062 C 13.101562 256.457031 11.996094 253.59375 10.960938 250.703125 C 9.929688 247.8125 8.964844 244.898438 8.074219 241.964844 C 7.183594 239.027344 6.367188 236.070312 5.621094 233.09375 C 4.875 230.117188 4.203125 227.121094 3.601562 224.113281 C 3.003906 221.101562 2.480469 218.078125 2.03125 215.042969 C 1.578125 212.007812 1.203125 208.960938 0.902344 205.90625 C 0.601562 202.855469 0.375 199.792969 0.226562 196.730469 C 0.0742188 193.664062 0 190.597656 0 187.527344 C 0 184.457031 0.0742188 181.390625 0.226562 178.324219 C 0.375 175.261719 0.601562 172.199219 0.902344 169.144531 C 1.203125 166.09375 1.578125 163.046875 2.03125 160.011719 C 2.480469 156.976562 3.003906 153.953125 3.601562 150.941406 C 4.203125 147.933594 4.875 144.9375 5.621094 141.960938 C 6.367188 138.984375 7.183594 136.027344 8.074219 133.089844 C 8.964844 130.152344 9.929688 127.242188 10.960938 124.351562 C 11.996094 121.460938 13.101562 118.597656 14.273438 115.761719 C 15.449219 112.929688 16.691406 110.125 18.003906 107.347656 C 19.316406 104.574219 20.695312 101.835938 22.144531 99.128906 C 23.589844 96.421875 25.101562 93.75 26.679688 91.117188 C 28.257812 88.488281 29.898438 85.894531 31.605469 83.34375 C 33.308594 80.789062 35.074219 78.28125 36.902344 75.816406 C 38.730469 73.351562 40.621094 70.933594 42.566406 68.5625 C 44.515625 66.1875 46.519531 63.867188 48.578125 61.589844 C 50.640625 59.316406 52.753906 57.09375 54.925781 54.925781 C 57.09375 52.753906 59.316406 50.640625 61.589844 48.578125 C 63.867188 46.519531 66.1875 44.511719 68.5625 42.566406 C 70.933594 40.621094 73.351562 38.730469 75.816406 36.902344 C 78.28125 35.074219 80.789062 33.308594 83.34375 31.605469 C 85.894531 29.898438 88.488281 28.257812 91.117188 26.679688 C 93.75 25.101562 96.421875 23.589844 99.128906 22.144531 C 101.835938 20.695312 104.574219 19.316406 107.347656 18.003906 C 110.125 16.691406 112.929688 15.449219 115.761719 14.273438 C 118.597656 13.101562 121.460938 11.996094 124.351562 10.960938 C 127.242188 9.929688 130.152344 8.964844 133.089844 8.074219 C 136.027344 7.183594 138.984375 6.367188 141.960938 5.621094 C 144.9375 4.875 147.933594 4.203125 150.941406 3.601562 C 153.953125 3.003906 156.976562 2.480469 160.011719 2.03125 C 163.046875 1.578125 166.09375 1.203125 169.144531 0.902344 C 172.199219 0.601562 175.261719 0.375 178.324219 0.226562 C 181.390625 0.0742188 184.457031 0 187.527344 0 C 190.597656 0 193.664062 0.0742188 196.730469 0.226562 C 199.792969 0.375 202.855469 0.601562 205.90625 0.902344 C 208.960938 1.203125 212.007812 1.578125 215.042969 2.03125 C 218.078125 2.480469 221.101562 3.003906 224.113281 3.601562 C 227.121094 4.203125 230.117188 4.875 233.09375 5.621094 C 236.070312 6.367188 239.027344 7.183594 241.964844 8.074219 C 244.898438 8.964844 247.8125 9.929688 250.703125 10.960938 C 253.59375 11.996094 256.457031 13.101562 259.289062 14.273438 C 262.125 15.449219 264.929688 16.691406 267.707031 18.003906 C 270.480469 19.316406 273.21875 20.695312 275.925781 22.144531 C 278.632812 23.589844 281.304688 25.101562 283.933594 26.679688 C 286.566406 28.257812 289.160156 29.898438 291.710938 31.605469 C 294.261719 33.308594 296.773438 35.074219 299.238281 36.902344 C 301.703125 38.730469 304.121094 40.621094 306.492188 42.566406 C 308.867188 44.511719 311.1875 46.519531 313.460938 48.578125 C 315.738281 50.640625 317.957031 52.753906 320.128906 54.925781 C 322.300781 57.09375 324.414062 59.316406 326.476562 61.589844 C 328.535156 63.867188 330.539062 66.1875 332.488281 68.5625 C 334.433594 70.933594 336.320312 73.351562 338.148438 75.816406 C 339.980469 78.28125 341.746094 80.789062 343.449219 83.34375 C 345.15625 85.894531 346.796875 88.488281 348.375 91.117188 C 349.953125 93.75 351.464844 96.421875 352.910156 99.128906 C 354.359375 101.835938 355.738281 104.574219 357.050781 107.347656 C 358.363281 110.125 359.605469 112.929688 360.78125 115.761719 C 361.953125 118.597656 363.058594 121.460938 364.09375 124.351562 C 365.125 127.242188 366.089844 130.152344 366.980469 133.089844 C 367.871094 136.027344 368.6875 138.984375 369.433594 141.960938 C 370.179688 144.9375 370.851562 147.933594 371.449219 150.941406 C 372.050781 153.953125 372.574219 156.976562 373.023438 160.011719 C 373.476562 163.046875 373.851562 166.09375 374.152344 169.144531 C 374.453125 172.199219 374.679688 175.261719 374.828125 178.324219 C 374.980469 181.390625 375.054688 184.457031 375.054688 187.527344 Z M 375.054688 187.527344 "/></g><g clip-rule="nonzero" clip-path="url(#202a8e9f98)"><g clip-rule="nonzero" clip-path="url(#05e49a2054)"><path style=" stroke:none;fill-rule:nonzero;fill:#ffa38a;fill-opacity:1;" d="M 221.859375 229.875 C 220.148438 235.488281 218.867188 241.199219 218.015625 247.003906 C 217.628906 249.355469 217.289062 251.683594 217.011719 253.929688 C 215.769531 263.199219 215.238281 270.804688 215.238281 270.804688 L 145.160156 270.804688 C 145.160156 270.804688 150.480469 249.609375 152.9375 240.363281 C 156.636719 226.523438 159.367188 210.066406 159.367188 209.574219 C 159.367188 208.742188 193.765625 202.378906 193.765625 202.378906 L 213.46875 221.648438 Z M 221.859375 229.875 "/></g></g><g clip-rule="nonzero" clip-path="url(#ee4702ff47)"><g clip-rule="nonzero" clip-path="url(#8e8012db6f)"><path style=" stroke:none;fill-rule:nonzero;fill:#e56151;fill-opacity:1;" d="M 221.859375 229.875 C 220.148438 235.488281 218.867188 241.199219 218.015625 247.003906 C 217.628906 249.355469 217.289062 251.683594 217.011719 253.929688 C 204.9375 245.40625 192.3125 233.097656 187.527344 217.03125 L 213.464844 221.65625 Z M 221.859375 229.875 "/></g></g><g clip-rule="nonzero" clip-path="url(#6ff7d242bd)"><g clip-rule="nonzero" clip-path="url(#cf5bf0e4e4)"><path style=" stroke:none;fill-rule:nonzero;fill:#ff8d4f;fill-opacity:1;" d="M 365.898438 413.179688 C 365.898438 413.179688 361.453125 403.546875 353.390625 389.359375 C 350.761719 384.699219 347.707031 379.53125 344.308594 374.0625 C 338.667969 365.003906 332.046875 355.089844 324.546875 345.113281 C 320.703125 339.984375 316.621094 334.855469 312.328125 329.816406 C 306.296875 322.695312 299.886719 315.9375 293.097656 309.539062 C 289.851562 306.507812 286.453125 303.613281 282.910156 300.863281 C 275.492188 295.171875 267.683594 290.074219 259.492188 285.566406 C 242.050781 276.082031 223.816406 268.492188 204.796875 262.792969 C 198.84375 260.929688 192.792969 259.453125 186.648438 258.363281 C 180.503906 257.277344 174.316406 256.582031 168.085938 256.285156 C 161.851562 255.984375 155.625 256.085938 149.40625 256.582031 C 143.1875 257.082031 137.023438 257.972656 130.917969 259.257812 C 110.386719 263.746094 94.621094 271.992188 81.269531 285.558594 C 76.625 290.292969 72.425781 295.394531 68.660156 300.855469 C 65.839844 304.890625 63.109375 309.230469 60.4375 313.929688 C 57.597656 319.054688 55.121094 324.34375 53 329.804688 C 51.121094 334.484375 49.242188 339.609375 47.382812 345.101562 C 44.390625 353.96875 41.464844 363.753906 38.625 374.050781 C 37.234375 379.050781 35.878906 384.148438 34.5625 389.347656 C 32.128906 398.863281 29.796875 408.640625 27.578125 418.296875 C 26.425781 423.421875 25.289062 428.550781 24.222656 433.59375 C 22.046875 443.636719 20.058594 453.398438 18.285156 462.542969 C 17.257812 467.886719 16.296875 473.011719 15.398438 477.839844 C 13.285156 489.507812 11.617188 499.484375 10.546875 506.792969 C 9.714844 512.472656 9.222656 516.511719 9.160156 518.484375 C 9.105469 519.746094 9.347656 520.953125 9.886719 522.09375 C 15.503906 534.167969 53.515625 535.726562 98.464844 543.308594 C 147.542969 551.578125 235.753906 578.582031 234.976562 563.15625 C 234.722656 558.179688 237.457031 541.902344 241.300781 522.09375 C 242.242188 517.183594 243.269531 512.035156 244.335938 506.800781 C 246.261719 497.226562 248.332031 487.335938 250.339844 477.847656 C 251.453125 472.59375 252.5625 467.445312 253.601562 462.550781 C 256.105469 450.929688 258.367188 440.714844 259.949219 433.601562 C 261.378906 427.042969 262.277344 423.113281 262.277344 423.113281 C 262.277344 423.113281 264.691406 427.148438 268.804688 433.601562 C 273.484375 440.910156 280.320312 451.355469 288.289062 462.550781 C 291.855469 467.574219 295.660156 472.742188 299.59375 477.847656 C 307.332031 488.09375 315.757812 497.746094 324.867188 506.800781 C 332.449219 514.125 339.800781 519.703125 346.316406 522.09375 C 347.160156 522.425781 348.019531 522.695312 348.898438 522.910156 C 353.109375 523.605469 357.253906 523.332031 361.335938 522.09375 "/></g></g><g clip-rule="nonzero" clip-path="url(#6b2a90a369)"><g clip-rule="nonzero" clip-path="url(#8220f55a88)"><path style=" stroke:none;fill-rule:nonzero;fill:#4a0e2c;fill-opacity:1;" d="M 257.277344 81.824219 C 283.1875 76.035156 314.066406 123.175781 283.1875 156.53125 C 252.3125 189.886719 224.46875 138.890625 223.089844 132.273438 C 221.710938 125.660156 206.550781 101.121094 206.550781 101.121094 Z M 257.277344 81.824219 "/></g></g><g clip-rule="nonzero" clip-path="url(#bf941af65c)"><g clip-rule="nonzero" clip-path="url(#0dc305cc47)"><path style=" stroke:none;fill-rule:nonzero;fill:#ffa38a;fill-opacity:1;" d="M 265.0625 97.953125 C 283.257812 113.875 278.589844 161.585938 280.15625 171.761719 C 281.398438 179.828125 291.320312 190.992188 289.460938 196.78125 C 287.601562 202.570312 278.089844 202.363281 276.433594 208.359375 C 273.851562 217.726562 274.574219 243.507812 254.3125 245.992188 C 234.050781 248.472656 187.738281 221.179688 185.875 219.527344 C 184.015625 217.871094 180.292969 181.894531 180.292969 181.894531 L 186.082031 144.058594 L 213.789062 122.347656 Z M 265.0625 97.953125 "/></g></g><g clip-rule="nonzero" clip-path="url(#e18383c128)"><g clip-rule="nonzero" clip-path="url(#14291e33de)"><path style=" stroke:none;fill-rule:nonzero;fill:#4a0e2c;fill-opacity:1;" d="M 268.160156 92.695312 C 275.832031 128.257812 246.0625 137.355469 229.9375 144.398438 C 213.808594 151.441406 211.742188 163.707031 211.742188 163.707031 C 211.742188 163.707031 189.136719 170.855469 186.585938 179.949219 C 184.035156 189.046875 194.371094 208.257812 167.90625 223.257812 C 141.441406 238.261719 124.238281 209.828125 113.570312 176.300781 C 79.25 68.417969 212.980469 9.648438 268.160156 92.695312 Z M 268.160156 92.695312 "/></g></g><g clip-rule="nonzero" clip-path="url(#a80b176f08)"><g clip-rule="nonzero" clip-path="url(#2728382277)"><path style=" stroke:none;fill-rule:nonzero;fill:#ffa38a;fill-opacity:1;" d="M 214.183594 161.628906 C 214.382812 162.273438 214.554688 162.921875 214.695312 163.582031 C 214.839844 164.242188 214.949219 164.902344 215.03125 165.570312 C 215.113281 166.238281 215.167969 166.90625 215.1875 167.574219 C 215.210938 168.242188 215.203125 168.910156 215.164062 169.574219 C 215.125 170.238281 215.058594 170.898438 214.957031 171.550781 C 214.859375 172.203125 214.730469 172.847656 214.574219 173.484375 C 214.414062 174.121094 214.226562 174.746094 214.011719 175.359375 C 213.796875 175.972656 213.550781 176.570312 213.28125 177.152344 C 213.007812 177.738281 212.710938 178.304688 212.386719 178.851562 C 212.0625 179.398438 211.710938 179.929688 211.335938 180.4375 C 210.960938 180.945312 210.566406 181.433594 210.144531 181.894531 C 209.722656 182.359375 209.28125 182.800781 208.816406 183.214844 C 208.355469 183.628906 207.871094 184.015625 207.371094 184.375 C 206.871094 184.734375 206.351562 185.066406 205.820312 185.371094 C 205.285156 185.675781 204.738281 185.949219 204.175781 186.191406 C 203.613281 186.4375 203.042969 186.648438 202.457031 186.832031 C 201.871094 187.011719 201.28125 187.164062 200.679688 187.28125 C 200.078125 187.398438 199.472656 187.484375 198.859375 187.535156 C 198.246094 187.585938 197.632812 187.609375 197.015625 187.59375 C 196.398438 187.582031 195.78125 187.535156 195.164062 187.457031 C 194.550781 187.378906 193.9375 187.265625 193.328125 187.125 C 192.71875 186.980469 192.113281 186.804688 191.515625 186.597656 C 190.921875 186.390625 190.332031 186.15625 189.753906 185.886719 C 189.175781 185.617188 188.609375 185.320312 188.054688 184.996094 C 187.5 184.667969 186.960938 184.3125 186.433594 183.929688 C 185.910156 183.546875 185.402344 183.140625 184.910156 182.707031 C 184.417969 182.269531 183.949219 181.8125 183.496094 181.332031 C 183.042969 180.847656 182.613281 180.34375 182.203125 179.820312 C 181.796875 179.292969 181.410156 178.75 181.050781 178.1875 C 180.691406 177.621094 180.355469 177.042969 180.042969 176.445312 C 179.734375 175.851562 179.449219 175.242188 179.195312 174.617188 C 178.9375 173.996094 178.707031 173.363281 178.507812 172.71875 C 178.308594 172.074219 178.136719 171.421875 177.996094 170.765625 C 177.855469 170.105469 177.742188 169.445312 177.660156 168.777344 C 177.578125 168.109375 177.523438 167.441406 177.503906 166.773438 C 177.480469 166.105469 177.488281 165.4375 177.527344 164.773438 C 177.566406 164.109375 177.636719 163.449219 177.734375 162.796875 C 177.832031 162.144531 177.960938 161.5 178.121094 160.863281 C 178.277344 160.226562 178.464844 159.601562 178.679688 158.988281 C 178.898438 158.375 179.140625 157.777344 179.414062 157.195312 C 179.683594 156.609375 179.980469 156.042969 180.308594 155.496094 C 180.632812 154.945312 180.980469 154.417969 181.355469 153.910156 C 181.730469 153.402344 182.128906 152.914062 182.546875 152.449219 C 182.96875 151.988281 183.410156 151.546875 183.875 151.132812 C 184.335938 150.71875 184.820312 150.332031 185.320312 149.972656 C 185.820312 149.609375 186.339844 149.277344 186.871094 148.976562 C 187.40625 148.671875 187.953125 148.398438 188.515625 148.152344 C 189.078125 147.910156 189.652344 147.699219 190.234375 147.515625 C 190.820312 147.335938 191.414062 147.183594 192.011719 147.066406 C 192.613281 146.949219 193.222656 146.863281 193.832031 146.8125 C 194.445312 146.757812 195.058594 146.738281 195.675781 146.753906 C 196.292969 146.765625 196.910156 146.8125 197.527344 146.890625 C 198.144531 146.96875 198.757812 147.078125 199.367188 147.222656 C 199.976562 147.367188 200.578125 147.542969 201.175781 147.75 C 201.773438 147.953125 202.359375 148.191406 202.9375 148.460938 C 203.515625 148.726562 204.082031 149.027344 204.636719 149.351562 C 205.191406 149.679688 205.734375 150.035156 206.257812 150.417969 C 206.785156 150.800781 207.292969 151.207031 207.78125 151.640625 C 208.273438 152.078125 208.746094 152.535156 209.195312 153.015625 C 209.648438 153.5 210.078125 154.003906 210.488281 154.527344 C 210.894531 155.054688 211.28125 155.597656 211.640625 156.160156 C 212.003906 156.722656 212.339844 157.304688 212.648438 157.898438 C 212.957031 158.496094 213.242188 159.105469 213.5 159.730469 C 213.753906 160.351562 213.984375 160.984375 214.183594 161.628906 Z M 214.183594 161.628906 "/></g></g><g clip-rule="nonzero" clip-path="url(#4dc9fad956)"><g clip-rule="nonzero" clip-path="url(#dda7cba81c)"><path style="fill:none;stroke-width:0.786;stroke-linecap:round;stroke-linejoin:round;stroke:#e56151;stroke-opacity:1;stroke-miterlimit:4;" d="M 73.421699 64.285825 C 75.34799 61.414345 72.40756 57.764304 69.771658 58.985293 " transform="matrix(2.719362,0,0,2.719362,0.0000045,0)"/></g></g><g clip-rule="nonzero" clip-path="url(#ebfe922313)"><g clip-rule="nonzero" clip-path="url(#6535feb52d)"><path style=" stroke:none;fill-rule:nonzero;fill:#6b1e48;fill-opacity:1;" d="M 159.609375 87.855469 C 159.609375 89.300781 159.535156 90.738281 159.394531 92.179688 C 159.253906 93.617188 159.042969 95.042969 158.761719 96.460938 C 158.476562 97.875 158.128906 99.277344 157.707031 100.660156 C 157.289062 102.039062 156.804688 103.398438 156.25 104.734375 C 155.695312 106.070312 155.082031 107.371094 154.398438 108.648438 C 153.71875 109.921875 152.976562 111.160156 152.175781 112.359375 C 151.371094 113.5625 150.511719 114.71875 149.59375 115.835938 C 148.679688 116.953125 147.710938 118.023438 146.6875 119.042969 C 145.667969 120.066406 144.597656 121.035156 143.480469 121.949219 C 142.363281 122.867188 141.207031 123.726562 140.003906 124.527344 C 138.804688 125.332031 137.566406 126.074219 136.292969 126.753906 C 135.019531 127.433594 133.714844 128.050781 132.378906 128.605469 C 131.042969 129.15625 129.6875 129.644531 128.304688 130.0625 C 126.921875 130.484375 125.519531 130.832031 124.105469 131.113281 C 122.6875 131.398438 121.261719 131.609375 119.824219 131.75 C 118.386719 131.890625 116.945312 131.960938 115.5 131.960938 C 114.054688 131.960938 112.613281 131.890625 111.175781 131.75 C 109.738281 131.609375 108.3125 131.398438 106.894531 131.113281 C 105.476562 130.832031 104.078125 130.484375 102.695312 130.0625 C 101.3125 129.644531 99.953125 129.15625 98.621094 128.605469 C 97.285156 128.050781 95.980469 127.433594 94.707031 126.753906 C 93.433594 126.074219 92.195312 125.332031 90.996094 124.527344 C 89.792969 123.726562 88.632812 122.867188 87.519531 121.949219 C 86.402344 121.035156 85.332031 120.066406 84.308594 119.042969 C 83.289062 118.023438 82.320312 116.953125 81.402344 115.835938 C 80.488281 114.71875 79.628906 113.5625 78.824219 112.359375 C 78.023438 111.160156 77.28125 109.921875 76.601562 108.648438 C 75.917969 107.371094 75.300781 106.070312 74.75 104.734375 C 74.195312 103.398438 73.710938 102.039062 73.289062 100.660156 C 72.871094 99.277344 72.519531 97.875 72.238281 96.460938 C 71.957031 95.042969 71.746094 93.617188 71.605469 92.179688 C 71.460938 90.738281 71.390625 89.300781 71.390625 87.855469 C 71.390625 86.410156 71.460938 84.96875 71.605469 83.53125 C 71.746094 82.09375 71.957031 80.667969 72.238281 79.25 C 72.519531 77.832031 72.871094 76.433594 73.289062 75.050781 C 73.710938 73.667969 74.195312 72.308594 74.75 70.976562 C 75.300781 69.640625 75.917969 68.335938 76.601562 67.0625 C 77.28125 65.789062 78.023438 64.550781 78.824219 63.347656 C 79.628906 62.148438 80.488281 60.988281 81.402344 59.871094 C 82.320312 58.757812 83.289062 57.6875 84.308594 56.664062 C 85.332031 55.644531 86.402344 54.675781 87.519531 53.757812 C 88.632812 52.84375 89.792969 51.984375 90.996094 51.179688 C 92.195312 50.378906 93.433594 49.636719 94.707031 48.953125 C 95.980469 48.273438 97.285156 47.65625 98.621094 47.105469 C 99.953125 46.550781 101.3125 46.066406 102.695312 45.644531 C 104.078125 45.226562 105.476562 44.875 106.894531 44.59375 C 108.3125 44.3125 109.738281 44.101562 111.175781 43.957031 C 112.613281 43.816406 114.054688 43.746094 115.5 43.746094 C 116.945312 43.746094 118.386719 43.816406 119.824219 43.957031 C 121.261719 44.101562 122.6875 44.3125 124.105469 44.59375 C 125.519531 44.875 126.921875 45.226562 128.304688 45.644531 C 129.6875 46.066406 131.042969 46.550781 132.378906 47.105469 C 133.714844 47.65625 135.019531 48.273438 136.292969 48.953125 C 137.566406 49.636719 138.804688 50.378906 140.003906 51.179688 C 141.207031 51.984375 142.363281 52.84375 143.480469 53.757812 C 144.597656 54.675781 145.667969 55.644531 146.6875 56.664062 C 147.710938 57.6875 148.679688 58.757812 149.59375 59.871094 C 150.511719 60.988281 151.371094 62.148438 152.175781 63.347656 C 152.976562 64.550781 153.71875 65.789062 154.398438 67.0625 C 155.082031 68.335938 155.695312 69.640625 156.25 70.976562 C 156.804688 72.308594 157.289062 73.667969 157.707031 75.050781 C 158.128906 76.433594 158.476562 77.832031 158.761719 79.25 C 159.042969 80.667969 159.253906 82.09375 159.394531 83.53125 C 159.535156 84.96875 159.609375 86.410156 159.609375 87.855469 Z M 159.609375 87.855469 "/></g></g></g></svg>